<svg xmlns="http://www.w3.org/2000/svg" xmlns:xlink="http://www.w3.org/1999/xlink" width="500" zoomAndPan="magnify" viewBox="0 0 375 187.499995" height="250" preserveAspectRatio="xMidYMid meet" version="1.2"><defs><clipPath id="9755de68a4"><path d="M 210.523438 64.902344 L 277.609375 64.902344 L 277.609375 122.796875 L 210.523438 122.796875 Z M 210.523438 64.902344 "/></clipPath></defs><g id="e7311679aa"><g clip-rule="nonzero" clip-path="url(#9755de68a4)"><path style=" stroke:none;fill-rule:nonzero;fill:#288de6;fill-opacity:1;" d="M 210.539062 122.796875 L 243.964844 64.902344 L 277.390625 122.796875 Z M 210.539062 122.796875 "/></g><g style="fill:#000000;fill-opacity:1;"><g transform="translate(3.177719, 122.701159)"><path style="stroke:none" d="M 42.921875 0 L 18.109375 -42.75 C 18.378906 -37.195312 18.515625 -33.703125 18.515625 -32.265625 L 18.515625 0 L 6.421875 0 L 6.421875 -57.3125 L 22.65625 -57.3125 L 47.84375 -14.234375 C 47.757812 -15.398438 47.660156 -16.890625 47.546875 -18.703125 C 47.441406 -20.523438 47.390625 -22.820312 47.390625 -25.59375 L 47.390625 -57.3125 L 59.390625 -57.3125 L 59.390625 0 Z M 42.921875 0 "/></g></g><g style="fill:#000000;fill-opacity:1;"><g transform="translate(68.994858, 122.701159)"><path style="stroke:none" d="M 6.421875 0 L 6.421875 -57.3125 L 40.4375 -57.3125 L 40.4375 -46.65625 L 20.09375 -46.65625 L 20.09375 -34.171875 L 37.90625 -34.171875 L 37.90625 -23.84375 L 20.09375 -23.84375 L 20.09375 -10.578125 L 42.109375 -10.578125 L 42.109375 0 Z M 6.421875 0 "/></g></g><g style="fill:#000000;fill-opacity:1;"><g transform="translate(114.513675, 122.701159)"><path style="stroke:none" d="M 68.5 0 L 53.125 0 L 44.546875 -32.578125 C 44.023438 -34.535156 43.179688 -38.644531 42.015625 -44.90625 C 40.828125 -38.5625 39.972656 -34.453125 39.453125 -32.578125 L 30.71875 0 L 15.375 0 L -0.25 -57.3125 L 13.671875 -57.3125 L 21.03125 -25.828125 C 21.570312 -23.441406 22.09375 -21.082031 22.59375 -18.75 C 23.09375 -16.414062 23.601562 -14.054688 24.125 -11.671875 C 25.71875 -19.617188 26.859375 -24.894531 27.546875 -27.5 L 35.515625 -57.3125 L 48.28125 -57.3125 L 56.34375 -27.5 C 57.238281 -24.164062 58.40625 -18.890625 59.84375 -11.671875 C 59.976562 -12.410156 60.273438 -13.921875 60.734375 -16.203125 C 61.191406 -18.492188 64.320312 -32.195312 70.125 -57.3125 L 84.046875 -57.3125 Z M 68.5 0 "/></g></g><g style="fill:#000000;fill-opacity:1;"><g transform="translate(281.176316, 122.701159)"><path style="stroke:none" d="M 9.4375 -20.625 C 9.4375 -15.113281 10.539062 -10.90625 12.75 -8 C 14.957031 -5.101562 18.207031 -3.65625 22.5 -3.65625 C 26.914062 -3.65625 30.28125 -5.144531 32.59375 -8.125 C 34.914062 -11.113281 36.078125 -15.390625 36.078125 -20.953125 C 36.078125 -26.429688 34.9375 -30.632812 32.65625 -33.5625 C 30.382812 -36.488281 27.109375 -37.953125 22.828125 -37.953125 C 18.398438 -37.953125 15.0625 -36.457031 12.8125 -33.46875 C 10.5625 -30.488281 9.4375 -26.207031 9.4375 -20.625 Z M 4.0625 -20.625 C 4.0625 -27.375 5.59375 -32.660156 8.65625 -36.484375 C 11.726562 -40.304688 16.070312 -42.21875 21.6875 -42.21875 C 28.332031 -42.21875 33.078125 -39.441406 35.921875 -33.890625 L 36.078125 -33.890625 C 36.109375 -35.679688 36.257812 -38.1875 36.53125 -41.40625 L 41.40625 -41.40625 C 41.25 -38.644531 41.171875 -35.488281 41.171875 -31.9375 L 41.171875 -1.140625 C 41.171875 5.234375 39.597656 10.09375 36.453125 13.4375 C 33.304688 16.789062 28.664062 18.46875 22.53125 18.46875 C 13.070312 18.46875 7.445312 15.023438 5.65625 8.140625 L 10.78125 7.203125 C 12.113281 11.785156 16.0625 14.078125 22.625 14.078125 C 31.539062 14.078125 36 9.097656 36 -0.859375 L 36 -4.4375 C 36 -5.0625 36.003906 -5.65625 36.015625 -6.21875 C 36.035156 -6.789062 36.054688 -7.390625 36.078125 -8.015625 L 35.921875 -8.015625 C 34.347656 -5.054688 32.347656 -2.878906 29.921875 -1.484375 C 27.492188 -0.0859375 24.488281 0.609375 20.90625 0.609375 C 15.5625 0.609375 11.414062 -1.265625 8.46875 -5.015625 C 5.53125 -8.773438 4.0625 -13.976562 4.0625 -20.625 Z M 4.0625 -20.625 "/></g></g><g style="fill:#000000;fill-opacity:1;"><g transform="translate(329.013742, 122.701159)"><path style="stroke:none" d="M 9.4375 -19.890625 C 9.4375 -14.710938 10.582031 -10.675781 12.875 -7.78125 C 15.164062 -4.894531 18.359375 -3.453125 22.453125 -3.453125 C 25.191406 -3.453125 27.546875 -4.015625 29.515625 -5.140625 C 31.484375 -6.265625 33.1875 -8.160156 34.625 -10.828125 L 38.734375 -8.578125 C 36.828125 -5.191406 34.546875 -2.78125 31.890625 -1.34375 C 29.234375 0.09375 26.046875 0.8125 22.328125 0.8125 C 16.441406 0.8125 11.925781 -1.054688 8.78125 -4.796875 C 5.632812 -8.546875 4.0625 -13.957031 4.0625 -21.03125 C 4.0625 -25.5625 4.804688 -29.410156 6.296875 -32.578125 C 7.796875 -35.753906 9.90625 -38.15625 12.625 -39.78125 C 15.351562 -41.40625 18.535156 -42.21875 22.171875 -42.21875 C 27.804688 -42.21875 32.113281 -40.414062 35.09375 -36.8125 C 38.082031 -33.207031 39.578125 -28.03125 39.578125 -21.28125 L 39.578125 -19.890625 Z M 21.96875 -37.953125 C 18.164062 -37.953125 15.191406 -36.765625 13.046875 -34.390625 C 10.910156 -32.015625 9.734375 -28.523438 9.515625 -23.921875 L 34.171875 -23.921875 C 33.679688 -33.273438 29.613281 -37.953125 21.96875 -37.953125 Z M 21.96875 -37.953125 "/></g></g><g style="fill:#288de6;fill-opacity:1;"><g transform="translate(10.928876, 143.678211)"><path style="stroke:none" d="M 8.9375 -3.375 C 8.9375 -2.238281 8.5625 -1.363281 7.8125 -0.75 C 7.070312 -0.144531 6.003906 0.15625 4.609375 0.15625 C 3.390625 0.15625 2.425781 -0.101562 1.71875 -0.625 C 1.007812 -1.144531 0.550781 -1.96875 0.34375 -3.09375 L 2.890625 -3.5 C 2.972656 -2.976562 3.175781 -2.570312 3.5 -2.28125 C 3.832031 -2 4.265625 -1.859375 4.796875 -1.859375 C 5.804688 -1.859375 6.3125 -2.3125 6.3125 -3.21875 C 6.3125 -3.5 6.242188 -3.726562 6.109375 -3.90625 C 5.972656 -4.09375 5.789062 -4.25 5.5625 -4.375 C 5.332031 -4.5 5.070312 -4.597656 4.78125 -4.671875 C 4.5 -4.753906 4.207031 -4.835938 3.90625 -4.921875 C 3.257812 -5.097656 2.796875 -5.25 2.515625 -5.375 C 2.242188 -5.5 2 -5.644531 1.78125 -5.8125 C 1.5625 -5.988281 1.367188 -6.195312 1.203125 -6.4375 C 1.046875 -6.6875 0.925781 -6.972656 0.84375 -7.296875 C 0.757812 -7.628906 0.71875 -8.003906 0.71875 -8.421875 C 0.71875 -9.472656 1.054688 -10.28125 1.734375 -10.84375 C 2.421875 -11.414062 3.394531 -11.703125 4.65625 -11.703125 C 5.820312 -11.703125 6.710938 -11.472656 7.328125 -11.015625 C 7.953125 -10.554688 8.378906 -9.796875 8.609375 -8.734375 L 6.015625 -8.40625 C 5.953125 -8.832031 5.796875 -9.164062 5.546875 -9.40625 C 5.304688 -9.65625 5 -9.78125 4.625 -9.78125 C 4.238281 -9.78125 3.925781 -9.664062 3.6875 -9.4375 C 3.457031 -9.21875 3.34375 -8.929688 3.34375 -8.578125 C 3.34375 -8.242188 3.445312 -7.972656 3.65625 -7.765625 C 3.875 -7.554688 4.207031 -7.382812 4.65625 -7.25 L 6.3125 -6.75 C 7.257812 -6.476562 7.929688 -6.070312 8.328125 -5.53125 C 8.734375 -4.988281 8.9375 -4.269531 8.9375 -3.375 Z M 8.9375 -3.375 "/></g></g><g style="fill:#288de6;fill-opacity:1;"><g transform="translate(30.521064, 143.678211)"><path style="stroke:none" d="M 11.9375 -5.8125 C 11.9375 -3.925781 11.445312 -2.457031 10.46875 -1.40625 C 9.488281 -0.363281 8.113281 0.15625 6.34375 0.15625 C 4.539062 0.15625 3.160156 -0.351562 2.203125 -1.375 C 1.242188 -2.40625 0.765625 -3.882812 0.765625 -5.8125 C 0.765625 -7.707031 1.242188 -9.160156 2.203125 -10.171875 C 3.160156 -11.191406 4.546875 -11.703125 6.359375 -11.703125 C 8.148438 -11.703125 9.523438 -11.191406 10.484375 -10.171875 C 11.453125 -9.160156 11.9375 -7.707031 11.9375 -5.8125 Z M 9.171875 -5.8125 C 9.171875 -8.3125 8.234375 -9.5625 6.359375 -9.5625 C 5.410156 -9.5625 4.703125 -9.253906 4.234375 -8.640625 C 3.765625 -8.035156 3.53125 -7.09375 3.53125 -5.8125 C 3.53125 -3.25 4.46875 -1.96875 6.34375 -1.96875 C 7.300781 -1.96875 8.007812 -2.273438 8.46875 -2.890625 C 8.9375 -3.503906 9.171875 -4.476562 9.171875 -5.8125 Z M 9.171875 -5.8125 "/></g></g><g style="fill:#288de6;fill-opacity:1;"><g transform="translate(53.425301, 143.678211)"><path style="stroke:none" d="M 1.296875 0 L 1.296875 -11.53125 L 4.046875 -11.53125 L 4.046875 -2.125 L 8.28125 -2.125 L 8.28125 0 Z M 1.296875 0 "/></g></g><g style="fill:#288de6;fill-opacity:1;"><g transform="translate(71.954274, 143.678211)"><path style="stroke:none" d="M 10.921875 -4.46875 C 10.921875 -2.945312 10.507812 -1.796875 9.6875 -1.015625 C 8.863281 -0.234375 7.640625 0.15625 6.015625 0.15625 C 4.410156 0.15625 3.203125 -0.222656 2.390625 -0.984375 C 1.585938 -1.742188 1.1875 -2.875 1.1875 -4.375 L 1.1875 -11.53125 L 3.921875 -11.53125 L 3.921875 -4.5625 C 3.921875 -3.644531 4.101562 -2.984375 4.46875 -2.578125 C 4.84375 -2.171875 5.382812 -1.96875 6.09375 -1.96875 C 6.8125 -1.96875 7.335938 -2.179688 7.671875 -2.609375 C 8.015625 -3.035156 8.1875 -3.71875 8.1875 -4.65625 L 8.1875 -11.53125 L 10.921875 -11.53125 Z M 10.921875 -4.46875 "/></g></g><g style="fill:#288de6;fill-opacity:1;"><g transform="translate(94.269703, 143.678211)"><path style="stroke:none" d="M 6.265625 -9.359375 L 6.265625 0 L 3.546875 0 L 3.546875 -9.359375 L 0.234375 -9.359375 L 0.234375 -11.53125 L 9.578125 -11.53125 L 9.578125 -9.359375 Z M 6.265625 -9.359375 "/></g></g><g style="fill:#288de6;fill-opacity:1;"><g transform="translate(114.287142, 143.678211)"><path style="stroke:none" d="M 1.296875 0 L 1.296875 -11.53125 L 4.046875 -11.53125 L 4.046875 0 Z M 1.296875 0 "/></g></g><g style="fill:#288de6;fill-opacity:1;"><g transform="translate(129.798573, 143.678211)"><path style="stroke:none" d="M 11.9375 -5.8125 C 11.9375 -3.925781 11.445312 -2.457031 10.46875 -1.40625 C 9.488281 -0.363281 8.113281 0.15625 6.34375 0.15625 C 4.539062 0.15625 3.160156 -0.351562 2.203125 -1.375 C 1.242188 -2.40625 0.765625 -3.882812 0.765625 -5.8125 C 0.765625 -7.707031 1.242188 -9.160156 2.203125 -10.171875 C 3.160156 -11.191406 4.546875 -11.703125 6.359375 -11.703125 C 8.148438 -11.703125 9.523438 -11.191406 10.484375 -10.171875 C 11.453125 -9.160156 11.9375 -7.707031 11.9375 -5.8125 Z M 9.171875 -5.8125 C 9.171875 -8.3125 8.234375 -9.5625 6.359375 -9.5625 C 5.410156 -9.5625 4.703125 -9.253906 4.234375 -8.640625 C 3.765625 -8.035156 3.53125 -7.09375 3.53125 -5.8125 C 3.53125 -3.25 4.46875 -1.96875 6.34375 -1.96875 C 7.300781 -1.96875 8.007812 -2.273438 8.46875 -2.890625 C 8.9375 -3.503906 9.171875 -4.476562 9.171875 -5.8125 Z M 9.171875 -5.8125 "/></g></g><g style="fill:#288de6;fill-opacity:1;"><g transform="translate(152.70281, 143.678211)"><path style="stroke:none" d="M 8.625 0 L 3.640625 -8.59375 C 3.691406 -7.476562 3.71875 -6.773438 3.71875 -6.484375 L 3.71875 0 L 1.296875 0 L 1.296875 -11.53125 L 4.5625 -11.53125 L 9.625 -2.859375 C 9.601562 -3.097656 9.582031 -3.398438 9.5625 -3.765625 C 9.539062 -4.128906 9.53125 -4.585938 9.53125 -5.140625 L 9.53125 -11.53125 L 11.9375 -11.53125 L 11.9375 0 Z M 8.625 0 "/></g></g><g style="fill:#288de6;fill-opacity:1;"><g transform="translate(176.138604, 143.678211)"><path style="stroke:none" d="M 8.9375 -3.375 C 8.9375 -2.238281 8.5625 -1.363281 7.8125 -0.75 C 7.070312 -0.144531 6.003906 0.15625 4.609375 0.15625 C 3.390625 0.15625 2.425781 -0.101562 1.71875 -0.625 C 1.007812 -1.144531 0.550781 -1.96875 0.34375 -3.09375 L 2.890625 -3.5 C 2.972656 -2.976562 3.175781 -2.570312 3.5 -2.28125 C 3.832031 -2 4.265625 -1.859375 4.796875 -1.859375 C 5.804688 -1.859375 6.3125 -2.3125 6.3125 -3.21875 C 6.3125 -3.5 6.242188 -3.726562 6.109375 -3.90625 C 5.972656 -4.09375 5.789062 -4.25 5.5625 -4.375 C 5.332031 -4.5 5.070312 -4.597656 4.78125 -4.671875 C 4.5 -4.753906 4.207031 -4.835938 3.90625 -4.921875 C 3.257812 -5.097656 2.796875 -5.25 2.515625 -5.375 C 2.242188 -5.5 2 -5.644531 1.78125 -5.8125 C 1.5625 -5.988281 1.367188 -6.195312 1.203125 -6.4375 C 1.046875 -6.6875 0.925781 -6.972656 0.84375 -7.296875 C 0.757812 -7.628906 0.71875 -8.003906 0.71875 -8.421875 C 0.71875 -9.472656 1.054688 -10.28125 1.734375 -10.84375 C 2.421875 -11.414062 3.394531 -11.703125 4.65625 -11.703125 C 5.820312 -11.703125 6.710938 -11.472656 7.328125 -11.015625 C 7.953125 -10.554688 8.378906 -9.796875 8.609375 -8.734375 L 6.015625 -8.40625 C 5.953125 -8.832031 5.796875 -9.164062 5.546875 -9.40625 C 5.304688 -9.65625 5 -9.78125 4.625 -9.78125 C 4.238281 -9.78125 3.925781 -9.664062 3.6875 -9.4375 C 3.457031 -9.21875 3.34375 -8.929688 3.34375 -8.578125 C 3.34375 -8.242188 3.445312 -7.972656 3.65625 -7.765625 C 3.875 -7.554688 4.207031 -7.382812 4.65625 -7.25 L 6.3125 -6.75 C 7.257812 -6.476562 7.929688 -6.070312 8.328125 -5.53125 C 8.734375 -4.988281 8.9375 -4.269531 8.9375 -3.375 Z M 8.9375 -3.375 "/></g></g></g></svg>