<svg xmlns="http://www.w3.org/2000/svg" xmlns:xlink="http://www.w3.org/1999/xlink" width="102" zoomAndPan="magnify" viewBox="0 0 76.5 50.999998" height="68" preserveAspectRatio="xMidYMid meet" version="1.0"><defs><filter x="0%" y="0%" width="100%" height="100%" id="aabd42b480"><feColorMatrix values="0 0 0 0 1 0 0 0 0 1 0 0 0 0 1 0 0 0 1 0" color-interpolation-filters="sRGB"/></filter><g/><clipPath id="e84398fa7d"><path d="M 0 0.164062 L 57 0.164062 L 57 21 L 0 21 Z M 0 0.164062 " clip-rule="nonzero"/></clipPath><mask id="03d80b8d39"><g filter="url(#aabd42b480)"><rect x="-7.65" width="91.8" fill="#000000" y="-5.1" height="61.199998" fill-opacity="0.1"/></g></mask><clipPath id="d203910fd8"><path d="M 0.488281 1 L 13.363281 1 L 13.363281 7.472656 L 0.488281 7.472656 Z M 0.488281 1 " clip-rule="nonzero"/></clipPath><clipPath id="c48b03c51a"><rect x="0" width="14" y="0" height="8"/></clipPath><mask id="8314e997e6"><g filter="url(#aabd42b480)"><rect x="-7.65" width="91.8" fill="#000000" y="-5.1" height="61.199998" fill-opacity="0.1"/></g></mask><clipPath id="dad108614e"><path d="M 1 0.695312 L 14.257812 0.695312 L 14.257812 4 L 1 4 Z M 1 0.695312 " clip-rule="nonzero"/></clipPath><clipPath id="4d18b55130"><rect x="0" width="15" y="0" height="5"/></clipPath><mask id="a1ec397a8c"><g filter="url(#aabd42b480)"><rect x="-7.65" width="91.8" fill="#000000" y="-5.1" height="61.199998" fill-opacity="0.1"/></g></mask><clipPath id="8a449d8846"><path d="M 0.726562 1 L 13.839844 1 L 13.839844 6.808594 L 0.726562 6.808594 Z M 0.726562 1 " clip-rule="nonzero"/></clipPath><clipPath id="f4c50ba855"><rect x="0" width="14" y="0" height="7"/></clipPath><mask id="e685c973cf"><g filter="url(#aabd42b480)"><rect x="-7.65" width="91.8" fill="#000000" y="-5.1" height="61.199998" fill-opacity="0.1"/></g></mask><clipPath id="932b262c89"><path d="M 1 1 L 11.410156 1 L 11.410156 6 L 1 6 Z M 1 1 " clip-rule="nonzero"/></clipPath><clipPath id="62d44117e6"><rect x="0" width="12" y="0" height="7"/></clipPath><mask id="c3e3703414"><g filter="url(#aabd42b480)"><rect x="-7.65" width="91.8" fill="#000000" y="-5.1" height="61.199998" fill-opacity="0.1"/></g></mask><clipPath id="fa541d27cd"><path d="M 0.503906 0.289062 L 0.980469 0.289062 L 0.980469 1 L 0.503906 1 Z M 0.503906 0.289062 " clip-rule="nonzero"/></clipPath><clipPath id="36cafa71e3"><rect x="0" width="1" y="0" height="2"/></clipPath><mask id="fe2886452f"><g filter="url(#aabd42b480)"><rect x="-7.65" width="91.8" fill="#000000" y="-5.1" height="61.199998" fill-opacity="0.1"/></g></mask><clipPath id="9a18858de6"><path d="M 0.476562 0.28125 L 51.265625 0.28125 L 51.265625 7.910156 L 0.476562 7.910156 Z M 0.476562 0.28125 " clip-rule="nonzero"/></clipPath><clipPath id="0fb058a68b"><rect x="0" width="52" y="0" height="8"/></clipPath><mask id="98aafb4ccd"><g filter="url(#aabd42b480)"><rect x="-7.65" width="91.8" fill="#000000" y="-5.1" height="61.199998" fill-opacity="0.1"/></g></mask><clipPath id="2f39c0fe8b"><path d="M 0.503906 0.00390625 L 0.980469 0.00390625 L 0.980469 0.480469 L 0.503906 0.480469 Z M 0.503906 0.00390625 " clip-rule="nonzero"/></clipPath><clipPath id="a7518e8be3"><rect x="0" width="1" y="0" height="1"/></clipPath><mask id="476aa7a84e"><g filter="url(#aabd42b480)"><rect x="-7.65" width="91.8" fill="#000000" y="-5.1" height="61.199998" fill-opacity="0.1"/></g></mask><clipPath id="151fdb7435"><path d="M 0.128906 0.558594 L 10.144531 0.558594 L 10.144531 9.855469 L 0.128906 9.855469 Z M 0.128906 0.558594 " clip-rule="nonzero"/></clipPath><clipPath id="801f8885b3"><rect x="0" width="11" y="0" height="10"/></clipPath><mask id="a88cecbc9d"><g filter="url(#aabd42b480)"><rect x="-7.65" width="91.8" fill="#000000" y="-5.1" height="61.199998" fill-opacity="0.1"/></g></mask><clipPath id="c38e3af603"><path d="M 0.0976562 0.703125 L 6 0.703125 L 6 10 L 0.0976562 10 Z M 0.0976562 0.703125 " clip-rule="nonzero"/></clipPath><clipPath id="32cbf0d6d7"><rect x="0" width="7" y="0" height="11"/></clipPath><clipPath id="4dc9cb6151"><path d="M 19 24 L 75.257812 24 L 75.257812 46.363281 L 19 46.363281 Z M 19 24 " clip-rule="nonzero"/></clipPath><mask id="768d9dd3f4"><g filter="url(#aabd42b480)"><rect x="-7.65" width="91.8" fill="#000000" y="-5.1" height="61.199998" fill-opacity="0.1"/></g></mask><clipPath id="dfacb61c6a"><path d="M 0.699219 0.730469 L 13.574219 0.730469 L 13.574219 7.648438 L 0.699219 7.648438 Z M 0.699219 0.730469 " clip-rule="nonzero"/></clipPath><clipPath id="c281f16b37"><rect x="0" width="14" y="0" height="8"/></clipPath><mask id="c6f8f2796c"><g filter="url(#aabd42b480)"><rect x="-7.65" width="91.8" fill="#000000" y="-5.1" height="61.199998" fill-opacity="0.1"/></g></mask><clipPath id="67ff06e643"><path d="M 0.328125 1 L 13.917969 1 L 13.917969 3.746094 L 0.328125 3.746094 Z M 0.328125 1 " clip-rule="nonzero"/></clipPath><clipPath id="2fab09b64a"><rect x="0" width="14" y="0" height="4"/></clipPath><mask id="74120cbf46"><g filter="url(#aabd42b480)"><rect x="-7.65" width="91.8" fill="#000000" y="-5.1" height="61.199998" fill-opacity="0.1"/></g></mask><clipPath id="18fb08b820"><path d="M 0.222656 0.394531 L 13.574219 0.394531 L 13.574219 6.832031 L 0.222656 6.832031 Z M 0.222656 0.394531 " clip-rule="nonzero"/></clipPath><clipPath id="7e2000a97a"><rect x="0" width="14" y="0" height="7"/></clipPath><mask id="e883ca88d7"><g filter="url(#aabd42b480)"><rect x="-7.65" width="91.8" fill="#000000" y="-5.1" height="61.199998" fill-opacity="0.1"/></g></mask><clipPath id="038a426239"><path d="M 0.128906 1 L 10.144531 1 L 10.144531 6.925781 L 0.128906 6.925781 Z M 0.128906 1 " clip-rule="nonzero"/></clipPath><clipPath id="3cbc9cbeac"><rect x="0" width="11" y="0" height="7"/></clipPath><mask id="696fb41bff"><g filter="url(#aabd42b480)"><rect x="-7.65" width="91.8" fill="#000000" y="-5.1" height="61.199998" fill-opacity="0.1"/></g></mask><clipPath id="8ad54d381e"><path d="M 0.320312 0.203125 L 1 0.203125 L 1 0.917969 L 0.320312 0.917969 Z M 0.320312 0.203125 " clip-rule="nonzero"/></clipPath><clipPath id="55a7b76638"><rect x="0" width="2" y="0" height="1"/></clipPath><clipPath id="4c912052fd"><path d="M 24 24 L 75.257812 24 L 75.257812 34 L 24 34 Z M 24 24 " clip-rule="nonzero"/></clipPath><mask id="0c3acf385c"><g filter="url(#aabd42b480)"><rect x="-7.65" width="91.8" fill="#000000" y="-5.1" height="61.199998" fill-opacity="0.1"/></g></mask><clipPath id="10abfbb44a"><path d="M 1 0.726562 L 51.257812 0.726562 L 51.257812 9.308594 L 1 9.308594 Z M 1 0.726562 " clip-rule="nonzero"/></clipPath><clipPath id="7a9f81450a"><rect x="0" width="52" y="0" height="10"/></clipPath><mask id="80044c2e03"><g filter="url(#aabd42b480)"><rect x="-7.65" width="91.8" fill="#000000" y="-5.1" height="61.199998" fill-opacity="0.1"/></g></mask><clipPath id="add2c905be"><path d="M 0.320312 0.726562 L 1 0.726562 L 1 1 L 0.320312 1 Z M 0.320312 0.726562 " clip-rule="nonzero"/></clipPath><clipPath id="843acd2f6c"><rect x="0" width="2" y="0" height="2"/></clipPath><mask id="cbee4d4f8c"><g filter="url(#aabd42b480)"><rect x="-7.65" width="91.8" fill="#000000" y="-5.1" height="61.199998" fill-opacity="0.1"/></g></mask><clipPath id="b86eb87bc3"><path d="M 0.441406 0.777344 L 11 0.777344 L 11 9.363281 L 0.441406 9.363281 Z M 0.441406 0.777344 " clip-rule="nonzero"/></clipPath><clipPath id="9cad7014bc"><rect x="0" width="12" y="0" height="10"/></clipPath><mask id="15d21d5d5e"><g filter="url(#aabd42b480)"><rect x="-7.65" width="91.8" fill="#000000" y="-5.1" height="61.199998" fill-opacity="0.1"/></g></mask><clipPath id="b22b8f67f6"><path d="M 1 1 L 7.203125 1 L 7.203125 10 L 1 10 Z M 1 1 " clip-rule="nonzero"/></clipPath><clipPath id="23cebb03bf"><rect x="0" width="8" y="0" height="11"/></clipPath><mask id="835096c77b"><g filter="url(#aabd42b480)"><rect x="-7.65" width="91.8" fill="#000000" y="-5.1" height="61.199998" fill-opacity="0.1"/></g></mask><clipPath id="0e93c7ba7c"><path d="M 0.320312 0.617188 L 29.886719 0.617188 L 29.886719 20.648438 L 0.320312 20.648438 Z M 0.320312 0.617188 " clip-rule="nonzero"/></clipPath><clipPath id="afa94e74ed"><rect x="0" width="30" y="0" height="21"/></clipPath><clipPath id="c00060ea39"><path d="M 35 45 L 41 45 L 41 50.832031 L 35 50.832031 Z M 35 45 " clip-rule="nonzero"/></clipPath><clipPath id="1f7aa4b87d"><path d="M 0.527344 2 L 5 2 L 5 4 L 0.527344 4 Z M 0.527344 2 " clip-rule="nonzero"/></clipPath><clipPath id="a3d1f16e82"><rect x="0" width="6" y="0" height="6"/></clipPath></defs><g clip-path="url(#e84398fa7d)"><path fill="#123282" d="M 51.210938 18.835938 C 51.316406 18.71875 51.355469 18.628906 51.355469 18.628906 C 51.414062 18.644531 51.46875 18.667969 51.527344 18.679688 C 51.59375 18.703125 51.664062 18.726562 51.726562 18.742188 C 52.28125 18.894531 52.730469 18.945312 53.09375 18.925781 L 53.097656 18.925781 C 54.234375 18.867188 54.558594 18.128906 54.652344 17.707031 C 54.691406 17.542969 54.691406 17.425781 54.691406 17.425781 C 56.347656 16.660156 56.542969 16.167969 56.0625 15.378906 L 56.0625 15.375 C 55.730469 14.832031 55.078125 14.144531 54.355469 13.128906 C 54.222656 12.9375 54.085938 12.734375 53.949219 12.523438 C 52.0625 9.578125 46.414062 5.273438 46.046875 4.988281 C 46.03125 4.980469 46.023438 4.976562 46.023438 4.976562 C 46.023438 4.976562 47.117188 3.605469 45.90625 2.34375 C 45.257812 1.667969 43.980469 1.773438 42.9375 2.023438 C 41.828125 2.289062 40.675781 2.324219 39.558594 2.089844 C 35.480469 1.234375 32.222656 2.148438 32.222656 2.148438 C 28.496094 3.183594 21.441406 7.75 20.453125 7.792969 C 19.464844 7.835938 0 0.15625 0 0.15625 L 0.65625 14.484375 C 0.65625 14.484375 0.679688 14.492188 0.726562 14.503906 C 2.011719 14.839844 20.085938 19.546875 21.339844 20 C 24.742188 21.226562 26.628906 19.863281 31.625 20.234375 C 36.617188 20.605469 39.589844 18.421875 41.796875 18.015625 C 44.003906 17.609375 48.203125 19.152344 48.203125 19.152344 C 50.105469 19.738281 50.914062 19.167969 51.210938 18.835938 Z M 51.210938 18.835938 " fill-opacity="1" fill-rule="nonzero"/></g><g mask="url(#03d80b8d39)"><g transform="matrix(1, 0, 0, 1, 41, 7)"><g clip-path="url(#c48b03c51a)"><g clip-path="url(#d203910fd8)"><path fill="#123282" d="M 7.835938 4.75 C 5.449219 1.550781 0.660156 1.160156 0.660156 1.160156 C 0.660156 1.160156 3.269531 2.628906 4.328125 2.578125 C 4.328125 2.578125 6.199219 4.082031 7.167969 4.460938 C 7.167969 4.460938 9.597656 9.011719 12.875 6.53125 C 13.144531 6.300781 13.199219 5.90625 13.007812 5.609375 C 13.007812 5.609375 12.726562 6.617188 12.148438 6.671875 C 11.570312 6.726562 9.855469 7.457031 7.835938 4.75 Z M 7.835938 4.75 " fill-opacity="1" fill-rule="nonzero"/></g></g></g></g><g mask="url(#8314e997e6)"><g transform="matrix(1, 0, 0, 1, 32, 4)"><g clip-path="url(#4d18b55130)"><g clip-path="url(#dad108614e)"><path fill="#123282" d="M 14.042969 0.988281 C 13.929688 1.480469 13.464844 1.757812 13.035156 2.03125 C 12.335938 2.484375 11.039062 3.238281 7.699219 3.007812 C 2.636719 2.65625 1.144531 3.855469 1.070312 3.917969 C 1.113281 3.847656 2.019531 2.503906 4.292969 2.605469 C 6.628906 2.714844 11.890625 2.921875 13.144531 1.566406 Z M 14.042969 0.988281 " fill-opacity="1" fill-rule="nonzero"/></g></g></g></g><g mask="url(#a1ec397a8c)"><g transform="matrix(1, 0, 0, 1, 41, 11)"><g clip-path="url(#f4c50ba855)"><g clip-path="url(#8a449d8846)"><path fill="#123282" d="M 13.683594 6.433594 C 13.722656 6.269531 12.910156 6.390625 12.910156 6.390625 C 10.546875 5.660156 9.015625 3.875 9.015625 3.875 L 5.445312 2.128906 C 2.914062 2.550781 0.957031 1.152344 0.84375 1.074219 C 2.332031 2.65625 5.15625 2.53125 5.15625 2.53125 C 5.15625 2.53125 7.230469 2.996094 8.3125 3.957031 C 9.390625 4.921875 11.695312 6.210938 12.65625 6.5 C 12.902344 6.570312 13.226562 6.398438 13.683594 6.433594 Z M 13.683594 6.433594 " fill-opacity="1" fill-rule="nonzero"/></g></g></g></g><g mask="url(#e685c973cf)"><g transform="matrix(1, 0, 0, 1, 42, 13)"><g clip-path="url(#62d44117e6)"><g clip-path="url(#932b262c89)"><path fill="#123282" d="M 11.09375 5.925781 C 9.433594 5.511719 8.90625 5.113281 8.90625 5.113281 C 7.824219 4.421875 7.59375 4.222656 7.59375 4.222656 C 6.644531 4.265625 4.65625 2.449219 4.65625 2.449219 C 2.996094 2.015625 1.21875 1.183594 1.105469 1.128906 C 1.753906 1.757812 4.5625 2.757812 4.5625 2.757812 C 5.441406 3.785156 7.207031 4.515625 7.582031 4.726562 C 7.953125 4.933594 9.359375 5.625 9.359375 5.625 C 10.082031 5.871094 10.648438 5.949219 11.09375 5.925781 Z M 11.09375 5.925781 " fill-opacity="1" fill-rule="nonzero"/></g></g></g></g><g mask="url(#c3e3703414)"><g transform="matrix(1, 0, 0, 1, 51, 18)"><g clip-path="url(#36cafa71e3)"><g clip-path="url(#fa541d27cd)"><path fill="#123282" d="M 0.527344 0.679688 C 0.59375 0.703125 0.664062 0.726562 0.726562 0.742188 C 0.710938 0.667969 0.648438 0.644531 0.527344 0.679688 Z M 0.527344 0.679688 " fill-opacity="1" fill-rule="nonzero"/></g></g></g></g><g mask="url(#fe2886452f)"><g transform="matrix(1, 0, 0, 1, 0, 13)"><g clip-path="url(#0fb058a68b)"><g clip-path="url(#9a18858de6)"><path fill="#123282" d="M 48.199219 6.152344 C 50.105469 6.738281 50.917969 6.167969 51.210938 5.835938 C 51.210938 5.835938 51.210938 5.835938 51.207031 5.835938 C 49.695312 6.75 47.871094 5.511719 47.871094 5.511719 C 44.210938 4.035156 40.855469 4.574219 40.855469 4.574219 C 38.675781 6 35.230469 6.410156 33.601562 6.492188 C 31.972656 6.574219 30.890625 5.519531 26.839844 5.984375 C 22.785156 6.445312 22.222656 5.8125 20.425781 5.335938 C 18.628906 4.863281 0.816406 0.40625 0.816406 0.40625 L 0.726562 1.507812 C 2.007812 1.839844 20.085938 6.550781 21.335938 7.003906 C 24.738281 8.230469 26.628906 6.863281 31.621094 7.238281 C 36.617188 7.605469 39.585938 5.421875 41.792969 5.019531 C 43.996094 4.609375 48.199219 6.152344 48.199219 6.152344 Z M 48.199219 6.152344 " fill-opacity="1" fill-rule="nonzero"/></g></g></g></g><g mask="url(#98aafb4ccd)"><g transform="matrix(1, 0, 0, 1, 51, 19)"><g clip-path="url(#a7518e8be3)"><g clip-path="url(#2f39c0fe8b)"><path fill="#123282" d="M 0.558594 0.40625 C 0.625 0.375 0.691406 0.347656 0.753906 0.328125 C 0.746094 0.398438 0.683594 0.429688 0.558594 0.40625 Z M 0.558594 0.40625 " fill-opacity="1" fill-rule="nonzero"/></g></g></g></g><g mask="url(#476aa7a84e)"><g transform="matrix(1, 0, 0, 1, 23, 7)"><g clip-path="url(#801f8885b3)"><g clip-path="url(#151fdb7435)"><path fill="#123282" d="M 10.070312 0.914062 C 10.070312 0.914062 10.132812 6.121094 6.160156 7.363281 C 2.183594 8.605469 1.320312 9.925781 0.367188 9.542969 C 0.367188 9.542969 4.75 7.441406 6.128906 6.753906 C 7.511719 6.0625 9.125 4.464844 10.070312 0.914062 Z M 10.070312 0.914062 " fill-opacity="1" fill-rule="nonzero"/></g></g></g></g><g mask="url(#a88cecbc9d)"><g transform="matrix(1, 0, 0, 1, 34, 9)"><g clip-path="url(#32cbf0d6d7)"><g clip-path="url(#c38e3af603)"><path fill="#123282" d="M 0.308594 9.867188 C 0.308594 9.867188 0.230469 6.242188 2.582031 4.1875 C 4.933594 2.132812 5.128906 0.96875 5.898438 0.941406 C 5.898438 0.941406 3.527344 3.707031 2.789062 4.597656 C 2.050781 5.492188 0.71875 7.214844 0.308594 9.867188 Z M 0.308594 9.867188 " fill-opacity="1" fill-rule="nonzero"/></g></g></g></g><g clip-path="url(#4dc9cb6151)"><path fill="#123282" d="M 25.140625 25.453125 C 25.027344 25.566406 24.988281 25.65625 24.988281 25.65625 C 24.929688 25.636719 24.875 25.613281 24.820312 25.59375 C 24.75 25.570312 24.683594 25.546875 24.621094 25.527344 C 24.078125 25.34375 23.628906 25.273438 23.265625 25.277344 L 23.261719 25.277344 C 22.121094 25.285156 21.765625 26.007812 21.652344 26.421875 C 21.605469 26.585938 21.601562 26.703125 21.601562 26.703125 C 19.910156 27.394531 19.691406 27.875 20.136719 28.6875 L 20.136719 28.691406 C 20.445312 29.25 21.066406 29.964844 21.738281 31.015625 C 21.863281 31.210938 21.992188 31.421875 22.121094 31.640625 C 23.871094 34.664062 29.3125 39.226562 29.667969 39.523438 C 29.683594 39.535156 29.691406 39.539062 29.691406 39.539062 C 29.691406 39.539062 28.539062 40.859375 29.691406 42.171875 C 30.308594 42.878906 31.585938 42.828125 32.640625 42.628906 C 33.761719 42.414062 34.914062 42.433594 36.019531 42.714844 C 40.050781 43.757812 43.351562 42.996094 43.351562 42.996094 C 47.121094 42.132812 54.375 37.894531 55.363281 37.894531 C 56.351562 37.894531 75.445312 46.453125 75.445312 46.453125 L 75.445312 32.109375 C 75.445312 32.109375 75.421875 32.101562 75.371094 32.089844 C 74.109375 31.695312 56.265625 26.167969 55.035156 25.65625 C 51.691406 24.273438 49.742188 25.550781 44.773438 24.953125 C 39.800781 24.355469 36.734375 26.398438 34.511719 26.703125 C 32.289062 27.011719 28.164062 25.277344 28.164062 25.277344 C 26.285156 24.605469 25.449219 25.128906 25.140625 25.453125 Z M 25.140625 25.453125 " fill-opacity="1" fill-rule="nonzero"/></g><g mask="url(#768d9dd3f4)"><g transform="matrix(1, 0, 0, 1, 21, 29)"><g clip-path="url(#c281f16b37)"><g clip-path="url(#dfacb61c6a)"><path fill="#123282" d="M 6.191406 3.640625 C 8.425781 6.941406 13.195312 7.554688 13.195312 7.554688 C 13.195312 7.554688 10.652344 5.96875 9.597656 5.96875 C 9.597656 5.96875 7.796875 4.382812 6.847656 3.957031 C 6.847656 3.957031 4.625 -0.699219 1.242188 1.628906 C 0.960938 1.847656 0.886719 2.238281 1.0625 2.539062 C 1.0625 2.539062 1.390625 1.550781 1.96875 1.523438 C 2.550781 1.492188 4.292969 0.84375 6.191406 3.640625 Z M 6.191406 3.640625 " fill-opacity="1" fill-rule="nonzero"/></g></g></g></g><g mask="url(#c6f8f2796c)"><g transform="matrix(1, 0, 0, 1, 29, 36)"><g clip-path="url(#2fab09b64a)"><g clip-path="url(#67ff06e643)"><path fill="#123282" d="M 0.671875 3.523438 C 0.808594 3.035156 1.289062 2.777344 1.722656 2.523438 C 2.445312 2.105469 3.773438 1.410156 7.101562 1.792969 C 12.140625 2.375 13.691406 1.246094 13.761719 1.1875 C 13.71875 1.253906 12.753906 2.554688 10.484375 2.347656 C 8.15625 2.136719 2.910156 1.6875 1.597656 2.984375 Z M 0.671875 3.523438 " fill-opacity="1" fill-rule="nonzero"/></g></g></g></g><g mask="url(#74120cbf46)"><g transform="matrix(1, 0, 0, 1, 21, 26)"><g clip-path="url(#7e2000a97a)"><g clip-path="url(#18fb08b820)"><path fill="#123282" d="M 0.609375 0.691406 C 0.5625 0.855469 1.378906 0.769531 1.378906 0.769531 C 3.703125 1.605469 5.152344 3.460938 5.152344 3.460938 L 8.644531 5.367188 C 11.191406 5.058594 13.082031 6.550781 13.191406 6.632812 C 11.773438 4.980469 8.949219 4.980469 8.949219 4.980469 C 8.949219 4.980469 6.898438 4.425781 5.859375 3.410156 C 4.824219 2.398438 2.582031 1.003906 1.636719 0.675781 C 1.394531 0.59375 1.0625 0.75 0.609375 0.691406 Z M 0.609375 0.691406 " fill-opacity="1" fill-rule="nonzero"/></g></g></g></g><g mask="url(#e883ca88d7)"><g transform="matrix(1, 0, 0, 1, 23, 24)"><g clip-path="url(#3cbc9cbeac)"><g clip-path="url(#038a426239)"><path fill="#123282" d="M 0.265625 1.273438 C 1.90625 1.765625 2.414062 2.183594 2.414062 2.183594 C 3.464844 2.921875 3.683594 3.136719 3.683594 3.136719 C 4.632812 3.136719 6.539062 5.039062 6.539062 5.039062 C 8.179688 5.550781 9.914062 6.460938 10.027344 6.519531 C 9.40625 5.867188 6.648438 4.738281 6.648438 4.738281 C 5.816406 3.667969 4.085938 2.855469 3.726562 2.632812 C 3.363281 2.40625 1.992188 1.652344 1.992188 1.652344 C 1.273438 1.375 0.707031 1.273438 0.265625 1.273438 Z M 0.265625 1.273438 " fill-opacity="1" fill-rule="nonzero"/></g></g></g></g><g mask="url(#696fb41bff)"><g transform="matrix(1, 0, 0, 1, 24, 25)"><g clip-path="url(#55a7b76638)"><g clip-path="url(#8ad54d381e)"><path fill="#123282" d="M 0.820312 0.59375 C 0.75 0.566406 0.683594 0.542969 0.621094 0.523438 C 0.628906 0.59375 0.695312 0.625 0.820312 0.59375 Z M 0.820312 0.59375 " fill-opacity="1" fill-rule="nonzero"/></g></g></g></g><g clip-path="url(#4c912052fd)"><g mask="url(#0c3acf385c)"><g transform="matrix(1, 0, 0, 1, 24, 24)"><g clip-path="url(#7a9f81450a)"><g clip-path="url(#10abfbb44a)"><path fill="#123282" d="M 4.164062 1.273438 C 2.285156 0.601562 1.449219 1.128906 1.140625 1.453125 C 1.140625 1.453125 1.140625 1.449219 1.144531 1.449219 C 2.695312 0.605469 4.460938 1.925781 4.460938 1.925781 C 8.050781 3.570312 11.425781 3.1875 11.425781 3.1875 C 13.667969 1.859375 17.128906 1.605469 18.761719 1.601562 C 20.394531 1.59375 21.421875 2.695312 25.492188 2.421875 C 29.558594 2.144531 30.09375 2.804688 31.871094 3.355469 C 33.644531 3.910156 51.230469 9.179688 51.230469 9.179688 L 51.375 8.085938 C 50.109375 7.691406 32.265625 2.160156 31.039062 1.652344 C 27.695312 0.269531 25.746094 1.546875 20.777344 0.945312 C 15.804688 0.347656 12.738281 2.390625 10.515625 2.699219 C 8.292969 3.003906 4.164062 1.273438 4.164062 1.273438 Z M 4.164062 1.273438 " fill-opacity="1" fill-rule="nonzero"/></g></g></g></g></g><g mask="url(#80044c2e03)"><g transform="matrix(1, 0, 0, 1, 24, 24)"><g clip-path="url(#843acd2f6c)"><g clip-path="url(#add2c905be)"><path fill="#123282" d="M 0.820312 0.867188 C 0.75 0.894531 0.683594 0.914062 0.621094 0.9375 C 0.628906 0.867188 0.695312 0.835938 0.820312 0.867188 Z M 0.820312 0.867188 " fill-opacity="1" fill-rule="nonzero"/></g></g></g></g><g mask="url(#cbee4d4f8c)"><g transform="matrix(1, 0, 0, 1, 42, 28)"><g clip-path="url(#9cad7014bc)"><g clip-path="url(#b86eb87bc3)"><path fill="#123282" d="M 0.761719 9.191406 C 0.761719 9.191406 0.9375 3.984375 4.964844 2.925781 C 8.992188 1.867188 9.917969 0.589844 10.847656 1.007812 C 10.847656 1.007812 6.378906 2.90625 4.964844 3.53125 C 3.550781 4.160156 1.867188 5.6875 0.761719 9.191406 Z M 0.761719 9.191406 " fill-opacity="1" fill-rule="nonzero"/></g></g></g></g><g mask="url(#15d21d5d5e)"><g transform="matrix(1, 0, 0, 1, 35, 25)"><g clip-path="url(#23cebb03bf)"><g clip-path="url(#b22b8f67f6)"><path fill="#123282" d="M 7.027344 1.195312 C 7.027344 1.195312 6.9375 4.820312 4.496094 6.761719 C 2.050781 8.707031 1.804688 9.863281 1.035156 9.855469 C 1.035156 9.855469 3.527344 7.203125 4.308594 6.347656 C 5.085938 5.492188 6.496094 3.824219 7.027344 1.195312 Z M 7.027344 1.195312 " fill-opacity="1" fill-rule="nonzero"/></g></g></g></g><path fill="#fddd00" d="M 52.492188 25.84375 C 52.46875 25.890625 52.441406 25.9375 52.417969 25.984375 C 52.355469 26.101562 52.296875 26.214844 52.226562 26.332031 C 51.292969 27.960938 49.832031 29.648438 47.632812 31.113281 C 43.273438 34.019531 38.820312 36.527344 38.820312 36.527344 L 31.542969 32.019531 C 31.25 31.835938 30.964844 31.652344 30.683594 31.453125 C 30.328125 31.203125 29.984375 30.941406 29.648438 30.671875 C 28.40625 29.664062 27.304688 28.484375 26.398438 27.160156 C 25.65625 26.074219 24.988281 24.820312 24.625 23.46875 C 24.296875 22.230469 24.222656 20.910156 24.585938 19.574219 C 24.585938 19.558594 24.589844 19.546875 24.59375 19.535156 C 24.953125 18.242188 25.453125 17.183594 26.035156 16.3125 C 28.125 13.195312 31.25 12.550781 32.53125 12.574219 C 34.167969 12.605469 37.9375 14.222656 38.820312 17.382812 C 38.820312 17.382812 41.339844 12.117188 46.386719 12.609375 C 46.894531 12.65625 47.375 12.753906 47.820312 12.890625 C 47.882812 12.914062 47.945312 12.933594 48.007812 12.953125 C 48.695312 13.183594 49.308594 13.511719 49.855469 13.902344 C 50.097656 14.074219 50.328125 14.261719 50.546875 14.453125 C 50.703125 14.597656 50.855469 14.742188 51 14.898438 C 51.578125 15.503906 52.050781 16.179688 52.433594 16.867188 C 53.195312 18.234375 53.582031 19.625 53.683594 20.539062 C 53.816406 21.757812 53.578125 23.730469 52.492188 25.84375 Z M 52.492188 25.84375 " fill-opacity="1" fill-rule="nonzero"/><path fill="#6eb531" d="M 33.203125 27.761719 C 33.292969 28.101562 33.019531 28.148438 33.019531 28.148438 C 33.019531 28.148438 33.066406 28.757812 33.019531 29.003906 C 32.976562 29.253906 32.457031 29.273438 32.457031 29.273438 C 32.367188 29.570312 32.140625 29.5 32.140625 29.5 C 32.207031 30.269531 31.800781 30.109375 31.800781 30.109375 C 31.800781 30.199219 31.78125 30.265625 31.757812 30.324219 C 31.636719 30.585938 31.304688 30.585938 31.304688 30.585938 C 31.371094 31.289062 30.898438 31.058594 30.898438 31.058594 C 30.886719 31.386719 30.773438 31.453125 30.6875 31.453125 C 30.332031 31.203125 29.988281 30.941406 29.652344 30.671875 C 29.660156 29.960938 29.683594 29.28125 29.695312 29.015625 C 29.699219 28.9375 29.699219 28.890625 29.699219 28.890625 C 29.699219 28.890625 29.125 28.621094 29.15625 28.28125 C 29.191406 27.941406 27.933594 26.925781 28.648438 26.6875 C 29.359375 26.449219 28.878906 26.007812 28.878906 26.007812 C 28.359375 26.246094 27.9375 25.566406 27.9375 25.566406 C 27.734375 25.601562 27.328125 25.328125 27.328125 25.328125 C 26.75 25.296875 26.140625 25.027344 26.242188 24.683594 C 26.34375 24.34375 25.699219 23.160156 25.53125 23.328125 C 25.359375 23.5 26.144531 24.546875 25.769531 24.53125 C 25.398438 24.507812 25.058594 23.023438 25.058594 23.023438 C 24.617188 22.886719 24.144531 21.664062 24.585938 21.566406 C 25.027344 21.460938 24.992188 20.652344 24.753906 20.683594 C 24.515625 20.71875 24.210938 20.277344 24.6875 20.242188 C 25.160156 20.207031 24.652344 19.597656 24.652344 19.597656 C 24.632812 19.589844 24.613281 19.578125 24.59375 19.566406 C 24.59375 19.554688 24.597656 19.542969 24.601562 19.53125 C 24.960938 18.238281 25.460938 17.175781 26.042969 16.308594 C 26.171875 16.414062 26.386719 16.527344 26.699219 16.5 C 27.265625 16.457031 27.242188 17.449219 27.601562 17.515625 C 27.964844 17.582031 27.898438 17.246094 27.671875 17.175781 C 27.445312 17.109375 27.445312 16.726562 27.695312 16.726562 C 27.941406 16.726562 27.648438 16.25 27.648438 16.25 C 27.648438 16.25 27.648438 16.542969 27.242188 16.363281 C 26.835938 16.179688 27.265625 15.910156 27.648438 15.546875 C 28.023438 15.199219 28.355469 16.429688 28.371094 16.496094 C 28.367188 16.449219 28.324219 15.964844 28.710938 16.160156 C 29.117188 16.359375 28.710938 16.160156 28.734375 16.859375 C 28.757812 17.558594 28.621094 17.015625 28.328125 17.175781 C 28.035156 17.335938 28.578125 17.515625 28.757812 17.515625 C 28.9375 17.515625 29.234375 17.085938 29.003906 16.722656 C 28.78125 16.359375 29.207031 16.328125 29.207031 16.328125 C 29.230469 15.980469 29.863281 16.046875 29.863281 16.328125 C 29.863281 16.613281 29.617188 16.542969 29.617188 16.542969 C 29.617188 16.542969 29.367188 16.609375 29.59375 17.222656 C 29.816406 17.832031 29.957031 17.265625 29.957031 17.265625 C 29.300781 16.859375 30.046875 16.5625 30.136719 16.386719 C 30.226562 16.203125 30.65625 16.519531 30.949219 16.519531 C 31.242188 16.519531 31.175781 17.175781 31.175781 17.175781 C 31.898438 17.445312 31.535156 17.964844 31.535156 17.964844 C 32.125 18.824219 31.265625 18.214844 31.265625 18.464844 C 31.265625 18.710938 31.378906 18.941406 31.378906 18.941406 C 30.636719 19.324219 30.859375 18.621094 30.5 18.621094 C 30.136719 18.621094 30 18.351562 30.25 18.351562 C 30.496094 18.351562 30.746094 18.171875 30.835938 17.988281 C 30.925781 17.808594 30.613281 17.671875 30.613281 17.671875 C 30.613281 17.199219 30.25 17.558594 30.25 17.558594 C 30.273438 18.417969 29.867188 17.808594 29.777344 18.125 C 29.683594 18.441406 30.207031 18.464844 29.710938 18.667969 C 29.210938 18.871094 29.347656 18.441406 29.347656 18.441406 C 28.917969 18.710938 28.398438 19.210938 28.648438 19.550781 C 28.894531 19.890625 29.460938 19.550781 29.347656 20.113281 C 29.234375 20.679688 29.617188 20.953125 29.574219 20.589844 C 29.527344 20.226562 29.914062 20.003906 29.914062 20.003906 C 29.757812 19.640625 30.003906 19.527344 30.003906 19.527344 C 30.003906 19.527344 29.734375 18.960938 30.25 18.875 C 30.769531 18.78125 30.796875 19.597656 30.796875 19.597656 L 30.996094 19.597656 C 30.996094 19.597656 31.085938 19.460938 31.3125 19.460938 C 31.539062 19.460938 31.378906 20.070312 31.378906 20.070312 C 31.808594 20.113281 31.71875 20.546875 31.71875 20.546875 C 31.902344 20.433594 32.058594 20.792969 31.878906 20.816406 C 31.699219 20.839844 31.8125 21.042969 31.8125 21.042969 C 31.8125 21.042969 32.082031 21.0625 31.972656 21.492188 C 31.859375 21.921875 31.585938 21.3125 31.585938 21.3125 C 31.585938 21.3125 31.269531 21.492188 31.359375 21.199219 C 31.449219 20.90625 31.292969 20.941406 31.292969 20.941406 C 30.976562 21.089844 31.109375 21.019531 30.816406 20.949219 C 30.523438 20.882812 30.5 21.21875 30.679688 21.175781 C 30.863281 21.128906 30.863281 21.492188 30.863281 21.492188 C 31.085938 21.195312 31.269531 21.492188 31.269531 21.492188 C 30.863281 22.238281 30.320312 21.421875 30.25 21.808594 C 30.183594 22.191406 29.957031 22.191406 29.957031 22.191406 C 29.347656 22.351562 29.574219 23.027344 29.28125 23.097656 C 28.988281 23.164062 28.761719 23.390625 28.941406 23.683594 C 29.125 23.976562 28.738281 24.316406 29.054688 24.339844 C 29.371094 24.363281 29.507812 24.589844 29.507812 24.589844 C 29.507812 24.589844 30.050781 24.609375 30.003906 24.859375 C 29.957031 25.105469 29.324219 25.105469 29.324219 25.105469 C 29.191406 25.402344 28.738281 25.019531 28.871094 24.996094 C 29.007812 24.972656 28.9375 24.589844 28.9375 24.589844 C 28.9375 24.589844 28.738281 24.703125 28.554688 24.519531 C 28.375 24.339844 28.578125 24.179688 28.578125 24.179688 C 28.578125 24.179688 28.578125 23.839844 28.511719 23.660156 C 28.445312 23.476562 28.082031 23.5 28.082031 23.5 C 27.96875 23.886719 27.492188 23.5 27.492188 23.5 C 27.402344 23.726562 27.175781 23.792969 27.175781 23.792969 C 27.175781 23.792969 26.925781 24.746094 27.355469 24.8125 C 27.785156 24.878906 27.492188 24.40625 27.898438 24.429688 C 28.304688 24.449219 28.054688 25.039062 28.054688 25.039062 C 28.644531 25.039062 28.304688 25.46875 28.554688 25.667969 C 28.800781 25.871094 29.183594 25.667969 29.183594 25.667969 C 29.570312 25.074219 30.15625 25.691406 30.15625 25.691406 C 30.855469 25.578125 30.8125 25.875 30.8125 25.875 C 31.082031 25.898438 31.21875 26.144531 31.21875 26.144531 C 31.851562 25.828125 31.929688 26.890625 31.929688 26.890625 C 32.28125 26.753906 32.414062 27.046875 32.414062 27.046875 C 33.027344 26.890625 33.226562 27.253906 33.226562 27.253906 C 33.601562 27.511719 33.203125 27.761719 33.203125 27.761719 Z M 33.203125 27.761719 " fill-opacity="1" fill-rule="nonzero"/><path fill="#6eb531" d="M 46.886719 27.765625 C 46.886719 27.765625 46.878906 27.800781 46.855469 27.851562 C 46.800781 27.960938 46.65625 28.152344 46.335938 28.25 L 46.335938 28.753906 C 46.335938 28.753906 45.972656 29.1875 46.335938 29.429688 C 46.695312 29.667969 46.71875 29.308594 46.71875 29.308594 L 46.71875 28.898438 C 46.71875 28.898438 47.035156 28.96875 46.886719 28.484375 C 46.886719 28.488281 47.394531 28.417969 46.886719 27.765625 Z M 46.886719 27.765625 " fill-opacity="1" fill-rule="nonzero"/><path fill="#6eb531" d="M 53.683594 20.535156 C 53.578125 19.625 53.195312 18.230469 52.433594 16.859375 C 52.050781 16.175781 51.578125 15.5 50.996094 14.890625 C 50.855469 14.960938 50.722656 15.003906 50.648438 14.980469 C 50.519531 14.941406 50.539062 14.683594 50.546875 14.449219 C 50.328125 14.253906 50.097656 14.066406 49.855469 13.894531 C 49.765625 13.855469 49.652344 13.835938 49.492188 13.859375 C 49.023438 13.929688 49.3125 13.28125 48.730469 13.316406 C 48.164062 13.351562 47.980469 13.457031 48.007812 12.945312 C 47.945312 12.925781 47.882812 12.90625 47.816406 12.882812 C 47.703125 13.078125 47.601562 13.429688 47.71875 13.640625 C 47.933594 14.039062 48.585938 13.863281 48.585938 13.863281 C 48.585938 13.863281 48.769531 14.351562 49.019531 14.429688 C 49.019531 14.429688 48.296875 14.796875 48.296875 15.304688 C 48.296875 15.304688 48.1875 15.699219 47.972656 15.484375 C 47.757812 15.273438 47.855469 15.707031 47.992188 15.867188 C 47.996094 15.871094 48 15.878906 48.007812 15.882812 C 48.007812 15.882812 47.796875 16.570312 47.664062 16.28125 C 47.640625 16.230469 47.609375 16.171875 47.582031 16.117188 C 47.441406 15.871094 47.246094 15.628906 47.246094 15.628906 C 47.246094 15.628906 47.136719 16.007812 47.117188 16.382812 C 47.109375 16.625 47.132812 16.863281 47.246094 17.003906 C 47.246094 17.003906 46.921875 16.816406 46.65625 16.632812 C 46.46875 16.503906 46.304688 16.375 46.304688 16.316406 C 46.304688 16.171875 46.234375 15.628906 46.703125 15.230469 C 47.175781 14.832031 46.199219 14.832031 46.015625 15.339844 C 45.835938 15.84375 45.730469 16.460938 46.015625 16.640625 C 46.125 16.707031 46.230469 16.761719 46.304688 16.816406 C 46.429688 16.894531 46.464844 16.957031 46.234375 17.003906 C 45.871094 17.074219 45.65625 17.367188 45.65625 17.367188 C 45.65625 17.367188 45.4375 17.765625 45.109375 17.621094 C 45.109375 17.621094 45.097656 17.539062 45.023438 17.425781 C 44.894531 17.222656 44.578125 16.898438 43.808594 16.714844 C 43.808594 16.714844 42.941406 16.785156 42.652344 17.980469 L 41.890625 18.5625 L 41.890625 19.25 C 41.890625 19.25 42.359375 19.503906 42.46875 19.25 C 42.578125 19 42.867188 19.863281 42.328125 19.863281 C 41.78125 19.863281 41.457031 19.648438 41.457031 19.464844 C 41.457031 19.285156 40.824219 19.066406 40.886719 19.71875 C 40.949219 20.371094 41.382812 19.71875 40.949219 20.371094 C 40.929688 20.398438 40.914062 20.425781 40.898438 20.453125 C 40.585938 20.996094 41.3125 20.734375 41.3125 20.734375 C 41.3125 20.734375 41.597656 21.3125 40.820312 21.242188 C 40.046875 21.167969 40.253906 22.109375 40.820312 22.472656 C 40.820312 22.472656 41.40625 22.371094 41.457031 22.257812 C 41.503906 22.144531 41.601562 21.761719 41.601562 21.761719 L 41.914062 21.65625 L 41.914062 21.492188 L 42.398438 21.492188 C 42.398438 21.492188 42.59375 21.039062 42.59375 21.304688 C 42.59375 21.425781 42.667969 21.523438 42.761719 21.609375 C 42.871094 21.714844 43.007812 21.800781 43.082031 21.90625 C 43.222656 22.101562 43.460938 22.101562 43.460938 21.882812 C 43.460938 21.664062 42.933594 21.21875 42.933594 21.21875 C 42.933594 21.21875 43.101562 21.0625 43.246094 21.21875 C 43.390625 21.375 43.753906 21.945312 43.753906 22.09375 C 43.753906 22.242188 43.945312 22.371094 44.019531 22.257812 C 44.089844 22.144531 43.921875 21.625 44.234375 21.65625 C 44.234375 21.65625 44.304688 22.371094 44.761719 22.257812 C 45.222656 22.144531 45.34375 22.386719 45.34375 22.386719 L 45.34375 22.964844 C 45.34375 22.964844 44.328125 23.0625 43.824219 22.578125 C 43.824219 22.578125 43.726562 22.738281 43.703125 22.972656 C 43.679688 23.203125 43.199219 22.722656 43.199219 22.722656 L 42.738281 22.652344 L 42.738281 22.253906 C 42.738281 22.253906 42.65625 22.238281 42.535156 22.222656 C 42.261719 22.183594 41.789062 22.148438 41.652344 22.34375 C 41.457031 22.625 40.824219 22.46875 40.824219 22.46875 C 40.824219 22.46875 40.445312 22.578125 40.484375 23.046875 C 40.484375 23.046875 39.757812 23.375 39.832031 24.457031 L 39.828125 25.253906 L 40.15625 25.507812 L 40.699219 26.089844 C 40.699219 26.089844 41.28125 26.269531 41.640625 25.835938 C 42.003906 25.402344 41.929688 26.308594 42.472656 26.125 C 43.015625 25.945312 42.472656 26.414062 42.367188 26.632812 C 42.257812 26.847656 42.835938 26.886719 42.835938 27.570312 C 42.835938 28.257812 42.511719 28.257812 42.910156 29.273438 C 43.308594 30.285156 43.308594 29.671875 43.308594 30.285156 C 43.308594 30.515625 43.472656 30.589844 43.699219 30.5625 C 44.085938 30.515625 44.664062 30.179688 44.9375 29.816406 C 44.957031 29.792969 44.976562 29.765625 44.992188 29.742188 C 45.308594 29.300781 45.167969 29.273438 45.128906 29.273438 C 45.210938 29.265625 45.8125 29.203125 45.40625 28.730469 C 45.40625 28.730469 45.734375 28.332031 46.023438 28.367188 C 46.3125 28.40625 45.804688 26.886719 46.132812 26.738281 C 46.457031 26.597656 47.617188 25.21875 47.21875 25.21875 C 46.820312 25.21875 46.347656 25.21875 46.347656 25.21875 C 46.347656 25.21875 45.574219 24.355469 45.269531 23.710938 C 45.234375 23.644531 45.210938 23.578125 45.191406 23.519531 C 45.09375 23.234375 45.28125 23.363281 45.53125 23.625 C 45.847656 23.949219 46.269531 24.480469 46.347656 24.640625 C 46.492188 24.929688 46.238281 25.1875 46.78125 24.929688 C 47.324219 24.679688 48.445312 24.171875 47.902344 23.882812 C 47.359375 23.59375 47.648438 23.808594 47.144531 23.59375 C 46.910156 23.492188 46.785156 23.3125 46.738281 23.167969 C 46.679688 22.988281 46.738281 22.859375 46.855469 22.980469 C 46.886719 23.011719 46.917969 23.042969 46.953125 23.078125 C 47.136719 23.261719 47.335938 23.425781 47.617188 23.488281 C 47.941406 23.558594 47.832031 23.777344 48.84375 23.707031 L 49.097656 24.089844 L 49.496094 24.089844 C 49.496094 24.089844 49.644531 25.207031 50.050781 25.597656 C 50.089844 25.636719 50.132812 25.671875 50.179688 25.695312 C 50.6875 25.949219 50.832031 25.910156 50.578125 25.441406 C 50.496094 25.292969 50.476562 25.152344 50.5 25.011719 C 50.546875 24.726562 50.78125 24.453125 51.078125 24.136719 C 51.09375 24.121094 51.105469 24.105469 51.121094 24.09375 L 51.554688 24.09375 C 51.554688 24.09375 51.769531 24.972656 52.132812 24.683594 C 52.496094 24.394531 52.351562 25.660156 52.351562 25.660156 L 52.496094 25.851562 C 53.578125 23.730469 53.816406 21.757812 53.683594 20.535156 Z M 43.847656 19.152344 C 43.535156 19.25 43.871094 19.589844 43.464844 19.734375 C 43.054688 19.878906 42.886719 19.878906 42.886719 19.878906 L 42.886719 19.566406 L 43.085938 19.566406 L 43.085938 19.226562 L 43.449219 19.007812 C 42.957031 18.550781 43.34375 18.429688 43.34375 18.429688 C 43.34375 18.429688 43.34375 18.429688 43.296875 18.210938 C 43.292969 18.195312 43.292969 18.175781 43.292969 18.160156 C 43.304688 17.964844 43.613281 17.777344 43.613281 17.777344 C 43.714844 17.839844 43.78125 17.894531 43.816406 17.949219 C 43.953125 18.15625 43.671875 18.308594 43.671875 18.308594 L 43.671875 18.828125 L 44.167969 18.828125 L 44.457031 18.960938 C 44.449219 18.960938 44.164062 19.058594 43.847656 19.152344 Z M 45.777344 21.65625 C 45.488281 21.820312 45.101562 21.398438 44.859375 21.492188 C 44.617188 21.582031 44.449219 21.664062 44.449219 21.351562 C 44.449219 21.035156 44.714844 20.9375 44.714844 20.9375 C 44.714844 20.9375 45.027344 21.109375 45.152344 21.0625 C 45.273438 21.011719 44.953125 20.773438 45.339844 20.726562 C 45.726562 20.675781 45.464844 21.152344 45.464844 21.152344 C 45.464844 21.152344 46.070312 21.492188 45.777344 21.65625 Z M 47.113281 22.121094 C 46.929688 22.480469 46.644531 22.046875 46.644531 21.65625 C 46.640625 21.261719 46.171875 21.128906 46.171875 21.128906 L 46.746094 20.71875 C 47.109375 20.910156 46.886719 21.082031 46.644531 21.152344 C 46.398438 21.226562 47.296875 21.757812 47.113281 22.121094 Z M 52.097656 26.050781 C 52.097656 26.101562 52.148438 26.203125 52.230469 26.332031 C 52.296875 26.214844 52.359375 26.097656 52.421875 25.984375 C 52.261719 25.9375 52.097656 25.917969 52.097656 26.050781 Z M 52.097656 26.050781 " fill-opacity="1" fill-rule="nonzero"/><path fill="#6eb531" d="M 37.96875 21.550781 C 37.96875 21.550781 37.515625 21.800781 37.96875 22.09375 C 38.417969 22.386719 38.78125 22.023438 38.78125 21.824219 C 38.78125 21.621094 38.222656 21.6875 38.222656 21.6875 Z M 37.96875 21.550781 " fill-opacity="1" fill-rule="nonzero"/><path fill="#6eb531" d="M 38.273438 17.84375 C 38.273438 17.84375 38.589844 17.878906 38.273438 17.367188 C 38.273438 17.367188 38.1875 16.859375 37.765625 17.234375 L 37.105469 17.09375 L 37.105469 17.46875 L 36.632812 17.46875 C 36.632812 17.46875 36.125 17.332031 35.988281 17.671875 L 35.613281 17.84375 L 35.613281 18.320312 C 35.613281 18.320312 34.734375 18.320312 34.800781 18.691406 C 34.867188 19.066406 34.5625 19.472656 35.445312 19.234375 C 35.445312 19.234375 35.785156 19.808594 35.511719 20.320312 C 35.242188 20.828125 35.582031 20.621094 35.582031 20.621094 C 35.582031 20.621094 35.140625 20.828125 35.445312 21.027344 C 35.445312 21.027344 35.34375 21.261719 35.480469 21.875 C 35.613281 22.484375 35.378906 22.441406 35.820312 22.664062 C 36.261719 22.894531 35.886719 22.390625 36.191406 22.199219 C 36.496094 22.011719 36.386719 21.683594 36.386719 21.683594 C 36.386719 21.683594 37.074219 21.773438 37.3125 21.367188 C 37.3125 21.367188 38.320312 21.332031 38.222656 20.414062 C 38.222656 20.414062 38.859375 19.941406 38.222656 19.398438 L 38.507812 19.367188 L 38.507812 18.722656 L 39.21875 18.113281 L 38.972656 17.808594 C 38.972656 17.8125 38.796875 18.046875 38.273438 17.84375 Z M 38.273438 17.84375 " fill-opacity="1" fill-rule="nonzero"/><path fill="#6eb531" d="M 42.472656 14.433594 C 42.472656 14.433594 41.96875 14.546875 42.253906 14.980469 C 42.542969 15.414062 42.96875 15.703125 43.082031 15.199219 C 43.082031 15.199219 43.804688 15.34375 43.082031 14.65625 C 43.082031 14.65625 43.910156 14.332031 43.082031 14.257812 C 42.253906 14.1875 42.472656 14.433594 42.472656 14.433594 Z M 42.472656 14.433594 " fill-opacity="1" fill-rule="nonzero"/><path fill="#6eb531" d="M 34.160156 17.097656 C 34.160156 17.097656 35.378906 16.496094 35.886719 16.96875 C 36.398438 17.445312 35.886719 17.472656 35.886719 17.472656 C 35.886719 17.472656 35.546875 17.980469 34.972656 18.113281 C 34.972656 18.113281 34.90625 18.609375 34.363281 18.546875 C 34.363281 18.546875 34.464844 19 33.71875 18.945312 C 32.972656 18.894531 34.035156 18.953125 33.992188 19.269531 C 33.945312 19.585938 32.464844 19.234375 32.464844 18.945312 C 32.464844 18.660156 32.5 18.429688 32.90625 18.375 C 33.316406 18.320312 32.941406 18.203125 32.941406 18.089844 C 32.941406 17.980469 32.90625 17.539062 32.90625 17.539062 L 33.351562 17.574219 C 33.351562 17.574219 33.28125 18.203125 33.453125 18.089844 C 33.617188 17.980469 33.628906 17.300781 34.160156 17.097656 Z M 34.160156 17.097656 " fill-opacity="1" fill-rule="nonzero"/><g mask="url(#835096c77b)"><g transform="matrix(1, 0, 0, 1, 24, 16)"><g clip-path="url(#afa94e74ed)"><g clip-path="url(#0e93c7ba7c)"><path fill="#123282" d="M 28.492188 9.84375 C 28.46875 9.890625 28.441406 9.9375 28.417969 9.984375 C 28.355469 10.101562 28.296875 10.214844 28.226562 10.332031 C 27.292969 11.960938 25.832031 13.648438 23.632812 15.113281 C 19.273438 18.019531 14.820312 20.527344 14.820312 20.527344 L 7.542969 16.019531 C 7.25 15.835938 6.964844 15.652344 6.683594 15.453125 C 6.328125 15.203125 5.984375 14.941406 5.648438 14.671875 C 4.40625 13.664062 3.304688 12.484375 2.398438 11.160156 C 1.65625 10.074219 0.988281 8.820312 0.625 7.46875 C 0.867188 7.90625 1.125 8.320312 1.394531 8.714844 C 2.546875 10.402344 4.015625 11.847656 5.695312 13.015625 C 5.972656 13.210938 6.25 13.394531 6.539062 13.570312 L 7.757812 14.328125 L 13.816406 18.078125 C 13.816406 18.078125 16.476562 16.582031 19.699219 14.566406 C 20.121094 14.300781 20.550781 14.027344 20.984375 13.746094 C 21.394531 13.480469 21.804688 13.214844 22.21875 12.941406 C 22.355469 12.851562 22.496094 12.757812 22.632812 12.667969 C 22.71875 12.609375 22.804688 12.550781 22.886719 12.492188 C 22.890625 12.492188 22.894531 12.492188 22.894531 12.488281 C 22.960938 12.441406 23.023438 12.398438 23.085938 12.351562 C 24.304688 11.484375 25.277344 10.546875 26.046875 9.597656 C 26.207031 9.402344 26.355469 9.203125 26.496094 9.011719 C 26.707031 8.71875 26.902344 8.425781 27.078125 8.136719 C 28.515625 5.753906 28.828125 3.457031 28.679688 2.089844 C 28.640625 1.746094 28.5625 1.324219 28.433594 0.867188 C 29.195312 2.234375 29.582031 3.625 29.683594 4.539062 C 29.816406 5.757812 29.578125 7.730469 28.492188 9.84375 Z M 28.492188 9.84375 " fill-opacity="1" fill-rule="nonzero"/></g></g></g></g><g clip-path="url(#c00060ea39)"><g transform="matrix(1, 0, 0, 1, 35, 45)"><g clip-path="url(#a3d1f16e82)"><g clip-path="url(#1f7aa4b87d)"><g fill="#000000" fill-opacity="1"><g transform="translate(0.613714, 4.156485)"><g><path d="M 0.6875 -1.40625 L 0.453125 -0.984375 L 0.265625 -1.140625 L 0.578125 -1.484375 L 0.5625 -1.515625 L 0.109375 -1.609375 L 0.1875 -1.84375 L 0.609375 -1.65625 L 0.640625 -1.671875 L 0.578125 -2.125 L 0.828125 -2.125 L 0.78125 -1.671875 L 0.796875 -1.65625 L 1.234375 -1.84375 L 1.3125 -1.609375 L 0.84375 -1.515625 L 0.84375 -1.484375 L 1.15625 -1.140625 L 0.953125 -1 L 0.71875 -1.40625 Z M 0.6875 -1.40625 "/></g></g><g transform="translate(2.021314, 4.156485)"><g><path d="M 0.6875 -1.40625 L 0.453125 -0.984375 L 0.265625 -1.140625 L 0.578125 -1.484375 L 0.5625 -1.515625 L 0.109375 -1.609375 L 0.1875 -1.84375 L 0.609375 -1.65625 L 0.640625 -1.671875 L 0.578125 -2.125 L 0.828125 -2.125 L 0.78125 -1.671875 L 0.796875 -1.65625 L 1.234375 -1.84375 L 1.3125 -1.609375 L 0.84375 -1.515625 L 0.84375 -1.484375 L 1.15625 -1.140625 L 0.953125 -1 L 0.71875 -1.40625 Z M 0.6875 -1.40625 "/></g></g><g transform="translate(3.428914, 4.156485)"><g><path d="M 0.6875 -1.40625 L 0.453125 -0.984375 L 0.265625 -1.140625 L 0.578125 -1.484375 L 0.5625 -1.515625 L 0.109375 -1.609375 L 0.1875 -1.84375 L 0.609375 -1.65625 L 0.640625 -1.671875 L 0.578125 -2.125 L 0.828125 -2.125 L 0.78125 -1.671875 L 0.796875 -1.65625 L 1.234375 -1.84375 L 1.3125 -1.609375 L 0.84375 -1.515625 L 0.84375 -1.484375 L 1.15625 -1.140625 L 0.953125 -1 L 0.71875 -1.40625 Z M 0.6875 -1.40625 "/></g></g></g></g></g></g></g></svg>