<svg xmlns="http://www.w3.org/2000/svg" xmlns:xlink="http://www.w3.org/1999/xlink" width="458" zoomAndPan="magnify" viewBox="0 0 343.5 123.750003" height="165" preserveAspectRatio="xMidYMid meet" version="1.0"><defs><filter x="0%" y="0%" width="100%" height="100%" id="3ad4691bf0"><feColorMatrix values="0 0 0 0 1 0 0 0 0 1 0 0 0 0 1 0 0 0 1 0" color-interpolation-filters="sRGB"/></filter><g/><clipPath id="fa3eb65e84"><path d="M 4 0.710938 L 23 0.710938 L 23 30 L 4 30 Z M 4 0.710938 " clip-rule="nonzero"/></clipPath><clipPath id="6324287407"><path d="M 25 0.710938 L 48 0.710938 L 48 30 L 25 30 Z M 25 0.710938 " clip-rule="nonzero"/></clipPath><clipPath id="2a31785e39"><path d="M 50 0.710938 L 70 0.710938 L 70 30 L 50 30 Z M 50 0.710938 " clip-rule="nonzero"/></clipPath><clipPath id="bc406d8bc1"><path d="M 72 0.710938 L 96 0.710938 L 96 30 L 72 30 Z M 72 0.710938 " clip-rule="nonzero"/></clipPath><clipPath id="250e8b0f81"><path d="M 99 0.710938 L 122 0.710938 L 122 30 L 99 30 Z M 99 0.710938 " clip-rule="nonzero"/></clipPath><clipPath id="bfd9423db3"><path d="M 124 0.710938 L 144 0.710938 L 144 30 L 124 30 Z M 124 0.710938 " clip-rule="nonzero"/></clipPath><clipPath id="387a8ceb34"><rect x="0" width="256" y="0" height="78"/></clipPath><clipPath id="9789a3b9ee"><path d="M 165.890625 15.839844 L 219 15.839844 L 219 35 L 165.890625 35 Z M 165.890625 15.839844 " clip-rule="nonzero"/></clipPath><mask id="e861b3da65"><g filter="url(#3ad4691bf0)"><rect x="-34.35" width="412.2" fill="#000000" y="-12.375" height="148.500004" fill-opacity="0.1"/></g></mask><clipPath id="4496498c48"><path d="M 0.644531 1 L 12.621094 1 L 12.621094 7.222656 L 0.644531 7.222656 Z M 0.644531 1 " clip-rule="nonzero"/></clipPath><clipPath id="40d48ba288"><rect x="0" width="13" y="0" height="8"/></clipPath><mask id="389ec668f8"><g filter="url(#3ad4691bf0)"><rect x="-34.35" width="412.2" fill="#000000" y="-12.375" height="148.500004" fill-opacity="0.1"/></g></mask><clipPath id="216605d079"><path d="M 0.5 0.121094 L 13 0.121094 L 13 3.234375 L 0.5 3.234375 Z M 0.5 0.121094 " clip-rule="nonzero"/></clipPath><clipPath id="c20b960844"><rect x="0" width="14" y="0" height="4"/></clipPath><mask id="8885e655a4"><g filter="url(#3ad4691bf0)"><rect x="-34.35" width="412.2" fill="#000000" y="-12.375" height="148.500004" fill-opacity="0.1"/></g></mask><clipPath id="7db9f0f70d"><path d="M 0.882812 0.824219 L 13 0.824219 L 13 6.335938 L 0.882812 6.335938 Z M 0.882812 0.824219 " clip-rule="nonzero"/></clipPath><clipPath id="c3b39aca57"><rect x="0" width="14" y="0" height="7"/></clipPath><mask id="0b2e631850"><g filter="url(#3ad4691bf0)"><rect x="-34.35" width="412.2" fill="#000000" y="-12.375" height="148.500004" fill-opacity="0.1"/></g></mask><clipPath id="9a479b2fe5"><path d="M 0.0820312 0.742188 L 9.660156 0.742188 L 9.660156 5.53125 L 0.0820312 5.53125 Z M 0.0820312 0.742188 " clip-rule="nonzero"/></clipPath><clipPath id="bfe7325e65"><rect x="0" width="10" y="0" height="6"/></clipPath><mask id="a588e8890f"><g filter="url(#3ad4691bf0)"><rect x="-34.35" width="412.2" fill="#000000" y="-12.375" height="148.500004" fill-opacity="0.1"/></g></mask><clipPath id="3c71861527"><path d="M 0.746094 1 L 1.222656 1 L 1.222656 1.53125 L 0.746094 1.53125 Z M 0.746094 1 " clip-rule="nonzero"/></clipPath><clipPath id="23a6f5244c"><rect x="0" width="2" y="0" height="2"/></clipPath><mask id="81e6e62496"><g filter="url(#3ad4691bf0)"><rect x="-34.35" width="412.2" fill="#000000" y="-12.375" height="148.500004" fill-opacity="0.1"/></g></mask><clipPath id="ec0cde7a1d"><path d="M 0.320312 0.0234375 L 47.746094 0.0234375 L 47.746094 7 L 0.320312 7 Z M 0.320312 0.0234375 " clip-rule="nonzero"/></clipPath><clipPath id="07dfc5cd58"><rect x="0" width="48" y="0" height="8"/></clipPath><mask id="68aaf5df83"><g filter="url(#3ad4691bf0)"><rect x="-34.35" width="412.2" fill="#000000" y="-12.375" height="148.500004" fill-opacity="0.1"/></g></mask><clipPath id="a678fd9b4a"><path d="M 1 0.53125 L 1.222656 0.53125 L 1.222656 1 L 1 1 Z M 1 0.53125 " clip-rule="nonzero"/></clipPath><clipPath id="2111f1e350"><rect x="0" width="2" y="0" height="2"/></clipPath><mask id="1e2ca6158b"><g filter="url(#3ad4691bf0)"><rect x="-34.35" width="412.2" fill="#000000" y="-12.375" height="148.500004" fill-opacity="0.1"/></g></mask><clipPath id="324c30652d"><path d="M 0.398438 1 L 9.980469 1 L 9.980469 9.375 L 0.398438 9.375 Z M 0.398438 1 " clip-rule="nonzero"/></clipPath><clipPath id="1035260392"><rect x="0" width="10" y="0" height="10"/></clipPath><mask id="85b631013a"><g filter="url(#3ad4691bf0)"><rect x="-34.35" width="412.2" fill="#000000" y="-12.375" height="148.500004" fill-opacity="0.1"/></g></mask><clipPath id="d6bedf961c"><path d="M 0.699219 0.671875 L 6.445312 0.671875 L 6.445312 9.53125 L 0.699219 9.53125 Z M 0.699219 0.671875 " clip-rule="nonzero"/></clipPath><clipPath id="73028a1691"><rect x="0" width="7" y="0" height="10"/></clipPath><clipPath id="baa82fbebe"><path d="M 184 38 L 236.246094 38 L 236.246094 59.253906 L 184 59.253906 Z M 184 38 " clip-rule="nonzero"/></clipPath><mask id="132fa7ab69"><g filter="url(#3ad4691bf0)"><rect x="-34.35" width="412.2" fill="#000000" y="-12.375" height="148.500004" fill-opacity="0.1"/></g></mask><clipPath id="e2ef9046e3"><path d="M 0.199219 0.59375 L 12 0.59375 L 12 7 L 0.199219 7 Z M 0.199219 0.59375 " clip-rule="nonzero"/></clipPath><clipPath id="e00cef621e"><rect x="0" width="13" y="0" height="8"/></clipPath><mask id="18a4860d0b"><g filter="url(#3ad4691bf0)"><rect x="-34.35" width="412.2" fill="#000000" y="-12.375" height="148.500004" fill-opacity="0.1"/></g></mask><clipPath id="4c9aaa2f66"><path d="M 0.386719 0.296875 L 13 0.296875 L 13 2.695312 L 0.386719 2.695312 Z M 0.386719 0.296875 " clip-rule="nonzero"/></clipPath><clipPath id="8c2e82e908"><rect x="0" width="14" y="0" height="3"/></clipPath><mask id="3e1efec2ce"><g filter="url(#3ad4691bf0)"><rect x="-34.35" width="412.2" fill="#000000" y="-12.375" height="148.500004" fill-opacity="0.1"/></g></mask><clipPath id="829abd29a9"><path d="M 1 0.476562 L 13 0.476562 L 13 6.464844 L 1 6.464844 Z M 1 0.476562 " clip-rule="nonzero"/></clipPath><clipPath id="d346754fe5"><rect x="0" width="14" y="0" height="7"/></clipPath><mask id="2a79a7bf6c"><g filter="url(#3ad4691bf0)"><rect x="-34.35" width="412.2" fill="#000000" y="-12.375" height="148.500004" fill-opacity="0.1"/></g></mask><clipPath id="e206b801c4"><path d="M 0.398438 0.0429688 L 9.980469 0.0429688 L 9.980469 5.550781 L 0.398438 5.550781 Z M 0.398438 0.0429688 " clip-rule="nonzero"/></clipPath><clipPath id="36872e6c3e"><rect x="0" width="10" y="0" height="6"/></clipPath><mask id="07e8fb9700"><g filter="url(#3ad4691bf0)"><rect x="-34.35" width="412.2" fill="#000000" y="-12.375" height="148.500004" fill-opacity="0.1"/></g></mask><clipPath id="3318f8b2e7"><path d="M 0.597656 0.28125 L 1.316406 0.28125 L 1.316406 1 L 0.597656 1 Z M 0.597656 0.28125 " clip-rule="nonzero"/></clipPath><clipPath id="98d0da06ae"><rect x="0" width="2" y="0" height="1"/></clipPath><clipPath id="231dd0d9ff"><path d="M 189 38 L 236.246094 38 L 236.246094 47 L 189 47 Z M 189 38 " clip-rule="nonzero"/></clipPath><mask id="be18ec57bd"><g filter="url(#3ad4691bf0)"><rect x="-34.35" width="412.2" fill="#000000" y="-12.375" height="148.500004" fill-opacity="0.1"/></g></mask><clipPath id="4f84b7794a"><path d="M 0.0742188 0.800781 L 47.246094 0.800781 L 47.246094 8.945312 L 0.0742188 8.945312 Z M 0.0742188 0.800781 " clip-rule="nonzero"/></clipPath><clipPath id="4827496769"><rect x="0" width="48" y="0" height="9"/></clipPath><mask id="366ee463e0"><g filter="url(#3ad4691bf0)"><rect x="-34.35" width="412.2" fill="#000000" y="-12.375" height="148.500004" fill-opacity="0.1"/></g></mask><clipPath id="7adb7ec947"><path d="M 0.597656 0.800781 L 1.316406 0.800781 L 1.316406 1 L 0.597656 1 Z M 0.597656 0.800781 " clip-rule="nonzero"/></clipPath><clipPath id="64c88af16f"><rect x="0" width="2" y="0" height="2"/></clipPath><mask id="af6e08c9ba"><g filter="url(#3ad4691bf0)"><rect x="-34.35" width="412.2" fill="#000000" y="-12.375" height="148.500004" fill-opacity="0.1"/></g></mask><clipPath id="071d0197b7"><path d="M 0.601562 0.632812 L 10.421875 0.632812 L 10.421875 8.777344 L 0.601562 8.777344 Z M 0.601562 0.632812 " clip-rule="nonzero"/></clipPath><clipPath id="5d6cde30d9"><rect x="0" width="11" y="0" height="9"/></clipPath><mask id="f25576a3e9"><g filter="url(#3ad4691bf0)"><rect x="-34.35" width="412.2" fill="#000000" y="-12.375" height="148.500004" fill-opacity="0.1"/></g></mask><clipPath id="3f843e45d3"><path d="M 0.375 0 L 6.363281 0 L 6.363281 8.621094 L 0.375 8.621094 Z M 0.375 0 " clip-rule="nonzero"/></clipPath><clipPath id="f33d319a0f"><rect x="0" width="7" y="0" height="9"/></clipPath><mask id="cf5e98bfc0"><g filter="url(#3ad4691bf0)"><rect x="-34.35" width="412.2" fill="#000000" y="-12.375" height="148.500004" fill-opacity="0.1"/></g></mask><clipPath id="21ab368e4c"><path d="M 0.597656 0.136719 L 28.140625 0.136719 L 28.140625 19 L 0.597656 19 Z M 0.597656 0.136719 " clip-rule="nonzero"/></clipPath><clipPath id="a1e95e820b"><rect x="0" width="29" y="0" height="20"/></clipPath><clipPath id="a273471078"><rect x="0" width="215" y="0" height="12"/></clipPath><clipPath id="29a8af54dc"><path d="M 0.300781 1 L 6 1 L 6 9 L 0.300781 9 Z M 0.300781 1 " clip-rule="nonzero"/></clipPath><clipPath id="8680cafb3b"><rect x="0" width="34" y="0" height="12"/></clipPath></defs><g transform="matrix(1, 0, 0, 1, 13, 23)"><g clip-path="url(#387a8ceb34)"><g clip-path="url(#fa3eb65e84)"><g fill="#123282" fill-opacity="1"><g transform="translate(1.019974, 29.021786)"><g><path d="M 21.171875 -28.078125 L 21.171875 -22.734375 L 9.15625 -22.734375 L 9.15625 -16.359375 L 19.5625 -16.359375 L 19.5625 -11.015625 L 9.15625 -11.015625 L 9.15625 0 L 3.625 0 L 3.625 -28.078125 Z M 21.171875 -28.078125 "/></g></g></g></g><g clip-path="url(#6324287407)"><g fill="#123282" fill-opacity="1"><g transform="translate(21.989576, 29.021786)"><g><path d="M 8.578125 -10.375 C 8.578125 -9.488281 8.84375 -8.632812 9.375 -7.8125 C 9.914062 -7 10.628906 -6.335938 11.515625 -5.828125 C 12.410156 -5.328125 13.363281 -5.078125 14.375 -5.078125 C 15.46875 -5.078125 16.472656 -5.328125 17.390625 -5.828125 C 18.304688 -6.335938 19.023438 -7 19.546875 -7.8125 C 20.066406 -8.632812 20.328125 -9.488281 20.328125 -10.375 L 20.328125 -28.078125 L 25.78125 -28.078125 L 25.78125 -10.265625 C 25.78125 -8.253906 25.269531 -6.441406 24.25 -4.828125 C 23.238281 -3.210938 21.859375 -1.953125 20.109375 -1.046875 C 18.367188 -0.140625 16.457031 0.3125 14.375 0.3125 C 12.289062 0.3125 10.382812 -0.140625 8.65625 -1.046875 C 6.925781 -1.953125 5.554688 -3.210938 4.546875 -4.828125 C 3.546875 -6.441406 3.046875 -8.253906 3.046875 -10.265625 L 3.046875 -28.078125 L 8.578125 -28.078125 Z M 8.578125 -10.375 "/></g></g></g></g><g clip-path="url(#2a31785e39)"><g fill="#123282" fill-opacity="1"><g transform="translate(48.907154, 29.021786)"><g><path d="M 20.640625 -28.078125 L 20.640625 -22.734375 L 13.8125 -22.734375 L 13.8125 0 L 8.28125 0 L 8.28125 -22.734375 L 1.71875 -22.734375 L 1.71875 -28.078125 Z M 20.640625 -28.078125 "/></g></g></g></g><g clip-path="url(#bc406d8bc1)"><g fill="#123282" fill-opacity="1"><g transform="translate(69.342965, 29.021786)"><g><path d="M 8.578125 -10.375 C 8.578125 -9.488281 8.84375 -8.632812 9.375 -7.8125 C 9.914062 -7 10.628906 -6.335938 11.515625 -5.828125 C 12.410156 -5.328125 13.363281 -5.078125 14.375 -5.078125 C 15.46875 -5.078125 16.472656 -5.328125 17.390625 -5.828125 C 18.304688 -6.335938 19.023438 -7 19.546875 -7.8125 C 20.066406 -8.632812 20.328125 -9.488281 20.328125 -10.375 L 20.328125 -28.078125 L 25.78125 -28.078125 L 25.78125 -10.265625 C 25.78125 -8.253906 25.269531 -6.441406 24.25 -4.828125 C 23.238281 -3.210938 21.859375 -1.953125 20.109375 -1.046875 C 18.367188 -0.140625 16.457031 0.3125 14.375 0.3125 C 12.289062 0.3125 10.382812 -0.140625 8.65625 -1.046875 C 6.925781 -1.953125 5.554688 -3.210938 4.546875 -4.828125 C 3.546875 -6.441406 3.046875 -8.253906 3.046875 -10.265625 L 3.046875 -28.078125 L 8.578125 -28.078125 Z M 8.578125 -10.375 "/></g></g></g></g><g clip-path="url(#250e8b0f81)"><g fill="#123282" fill-opacity="1"><g transform="translate(96.260544, 29.021786)"><g><path d="M 18.765625 0 L 12.859375 -8.921875 L 9.15625 -8.921875 L 9.15625 0 L 3.625 0 L 3.625 -28.078125 L 12.125 -28.078125 C 15.613281 -28.078125 18.316406 -27.226562 20.234375 -25.53125 C 22.148438 -23.84375 23.109375 -21.535156 23.109375 -18.609375 C 23.109375 -16.878906 22.742188 -15.257812 22.015625 -13.75 C 21.296875 -12.238281 20.1875 -11.050781 18.6875 -10.1875 L 25.203125 0 Z M 9.15625 -14.265625 L 13.078125 -14.265625 C 14.578125 -14.265625 15.671875 -14.703125 16.359375 -15.578125 C 17.046875 -16.453125 17.390625 -17.398438 17.390625 -18.421875 C 17.390625 -19.441406 17.097656 -20.414062 16.515625 -21.34375 C 15.929688 -22.269531 14.800781 -22.734375 13.125 -22.734375 L 9.15625 -22.734375 Z M 9.15625 -14.265625 "/></g></g></g></g><g clip-path="url(#bfd9423db3)"><g fill="#123282" fill-opacity="1"><g transform="translate(120.509154, 29.021786)"><g><path d="M 22.765625 -28.078125 L 22.765625 -22.734375 L 9.15625 -22.734375 L 9.15625 -16.75 L 21.203125 -16.75 L 21.203125 -11.40625 L 9.15625 -11.40625 L 9.15625 -5.34375 L 23.296875 -5.34375 L 23.296875 0 L 3.625 0 L 3.625 -28.078125 Z M 22.765625 -28.078125 "/></g></g></g></g><g fill="#123282" fill-opacity="1"><g transform="translate(1.019974, 67.111647)"><g><path d="M 21.171875 -28.078125 L 21.171875 -22.734375 L 9.15625 -22.734375 L 9.15625 -16.359375 L 19.5625 -16.359375 L 19.5625 -11.015625 L 9.15625 -11.015625 L 9.15625 0 L 3.625 0 L 3.625 -28.078125 Z M 21.171875 -28.078125 "/></g></g></g><g fill="#123282" fill-opacity="1"><g transform="translate(21.989576, 67.111647)"><g><path d="M 1.90625 -14 C 1.90625 -16.539062 2.546875 -18.914062 3.828125 -21.125 C 5.117188 -23.34375 6.863281 -25.101562 9.0625 -26.40625 C 11.257812 -27.71875 13.640625 -28.375 16.203125 -28.375 C 18.773438 -28.375 21.160156 -27.71875 23.359375 -26.40625 C 25.554688 -25.101562 27.3125 -23.34375 28.625 -21.125 C 29.9375 -18.914062 30.59375 -16.539062 30.59375 -14 C 30.59375 -11.40625 29.9375 -9.015625 28.625 -6.828125 C 27.3125 -4.640625 25.554688 -2.898438 23.359375 -1.609375 C 21.160156 -0.328125 18.773438 0.3125 16.203125 0.3125 C 13.609375 0.3125 11.21875 -0.328125 9.03125 -1.609375 C 6.851562 -2.898438 5.117188 -4.640625 3.828125 -6.828125 C 2.546875 -9.015625 1.90625 -11.40625 1.90625 -14 Z M 7.625 -14 C 7.625 -12.375 8.007812 -10.875 8.78125 -9.5 C 9.5625 -8.125 10.617188 -7.035156 11.953125 -6.234375 C 13.285156 -5.429688 14.769531 -5.03125 16.40625 -5.03125 C 17.976562 -5.03125 19.410156 -5.429688 20.703125 -6.234375 C 22.003906 -7.035156 23.023438 -8.113281 23.765625 -9.46875 C 24.503906 -10.832031 24.875 -12.34375 24.875 -14 C 24.875 -15.675781 24.488281 -17.203125 23.71875 -18.578125 C 22.957031 -19.953125 21.921875 -21.035156 20.609375 -21.828125 C 19.304688 -22.628906 17.851562 -23.03125 16.25 -23.03125 C 14.644531 -23.03125 13.1875 -22.628906 11.875 -21.828125 C 10.570312 -21.035156 9.535156 -19.953125 8.765625 -18.578125 C 8.003906 -17.203125 7.625 -15.675781 7.625 -14 Z M 7.625 -14 "/></g></g></g><g fill="#123282" fill-opacity="1"><g transform="translate(52.567454, 67.111647)"><g><path d="M 8.578125 -10.375 C 8.578125 -9.488281 8.84375 -8.632812 9.375 -7.8125 C 9.914062 -7 10.628906 -6.335938 11.515625 -5.828125 C 12.410156 -5.328125 13.363281 -5.078125 14.375 -5.078125 C 15.46875 -5.078125 16.472656 -5.328125 17.390625 -5.828125 C 18.304688 -6.335938 19.023438 -7 19.546875 -7.8125 C 20.066406 -8.632812 20.328125 -9.488281 20.328125 -10.375 L 20.328125 -28.078125 L 25.78125 -28.078125 L 25.78125 -10.265625 C 25.78125 -8.253906 25.269531 -6.441406 24.25 -4.828125 C 23.238281 -3.210938 21.859375 -1.953125 20.109375 -1.046875 C 18.367188 -0.140625 16.457031 0.3125 14.375 0.3125 C 12.289062 0.3125 10.382812 -0.140625 8.65625 -1.046875 C 6.925781 -1.953125 5.554688 -3.210938 4.546875 -4.828125 C 3.546875 -6.441406 3.046875 -8.253906 3.046875 -10.265625 L 3.046875 -28.078125 L 8.578125 -28.078125 Z M 8.578125 -10.375 "/></g></g></g><g fill="#123282" fill-opacity="1"><g transform="translate(79.485033, 67.111647)"><g><path d="M 28.90625 -28.078125 L 28.90625 1.140625 L 28.765625 1.140625 L 9.109375 -16.59375 L 9.234375 0 L 3.625 0 L 3.625 -29.171875 L 3.859375 -29.171875 L 23.453125 -11.171875 L 23.34375 -28.078125 Z M 28.90625 -28.078125 "/></g></g></g><g fill="#123282" fill-opacity="1"><g transform="translate(110.101045, 67.111647)"><g><path d="M 3.625 -28.078125 L 12.015625 -28.078125 C 15.597656 -28.078125 18.546875 -27.382812 20.859375 -26 C 23.171875 -24.613281 24.851562 -22.816406 25.90625 -20.609375 C 26.96875 -18.410156 27.5 -16.054688 27.5 -13.546875 C 27.5 -10.847656 26.863281 -8.46875 25.59375 -6.40625 C 24.320312 -4.34375 22.609375 -2.757812 20.453125 -1.65625 C 18.304688 -0.550781 15.953125 0 13.390625 0 L 3.625 0 Z M 12.4375 -5.34375 C 15.3125 -5.34375 17.585938 -6.078125 19.265625 -7.546875 C 20.941406 -9.023438 21.78125 -11.148438 21.78125 -13.921875 C 21.78125 -16.160156 21.316406 -17.941406 20.390625 -19.265625 C 19.460938 -20.585938 18.378906 -21.5 17.140625 -22 C 15.910156 -22.507812 14.75 -22.765625 13.65625 -22.765625 L 9.15625 -22.765625 L 9.15625 -5.34375 Z M 12.4375 -5.34375 "/></g></g></g><g fill="#123282" fill-opacity="1"><g transform="translate(137.590549, 67.111647)"><g><path d="M 17.5 -5.5 L 8.203125 -5.5 L 5.90625 0 L 0.453125 0 L 13.125 -29.171875 L 13.421875 -29.171875 L 26.09375 0 L 19.6875 0 Z M 15.671875 -10.140625 L 12.96875 -16.96875 L 10.140625 -10.140625 Z M 15.671875 -10.140625 "/></g></g></g><g fill="#123282" fill-opacity="1"><g transform="translate(162.220448, 67.111647)"><g><path d="M 20.640625 -28.078125 L 20.640625 -22.734375 L 13.8125 -22.734375 L 13.8125 0 L 8.28125 0 L 8.28125 -22.734375 L 1.71875 -22.734375 L 1.71875 -28.078125 Z M 20.640625 -28.078125 "/></g></g></g><g fill="#123282" fill-opacity="1"><g transform="translate(182.656259, 67.111647)"><g><path d="M 9.15625 -28.078125 L 9.15625 0 L 3.625 0 L 3.625 -28.078125 Z M 9.15625 -28.078125 "/></g></g></g><g fill="#123282" fill-opacity="1"><g transform="translate(193.521908, 67.111647)"><g><path d="M 1.90625 -14 C 1.90625 -16.539062 2.546875 -18.914062 3.828125 -21.125 C 5.117188 -23.34375 6.863281 -25.101562 9.0625 -26.40625 C 11.257812 -27.71875 13.640625 -28.375 16.203125 -28.375 C 18.773438 -28.375 21.160156 -27.71875 23.359375 -26.40625 C 25.554688 -25.101562 27.3125 -23.34375 28.625 -21.125 C 29.9375 -18.914062 30.59375 -16.539062 30.59375 -14 C 30.59375 -11.40625 29.9375 -9.015625 28.625 -6.828125 C 27.3125 -4.640625 25.554688 -2.898438 23.359375 -1.609375 C 21.160156 -0.328125 18.773438 0.3125 16.203125 0.3125 C 13.609375 0.3125 11.21875 -0.328125 9.03125 -1.609375 C 6.851562 -2.898438 5.117188 -4.640625 3.828125 -6.828125 C 2.546875 -9.015625 1.90625 -11.40625 1.90625 -14 Z M 7.625 -14 C 7.625 -12.375 8.007812 -10.875 8.78125 -9.5 C 9.5625 -8.125 10.617188 -7.035156 11.953125 -6.234375 C 13.285156 -5.429688 14.769531 -5.03125 16.40625 -5.03125 C 17.976562 -5.03125 19.410156 -5.429688 20.703125 -6.234375 C 22.003906 -7.035156 23.023438 -8.113281 23.765625 -9.46875 C 24.503906 -10.832031 24.875 -12.34375 24.875 -14 C 24.875 -15.675781 24.488281 -17.203125 23.71875 -18.578125 C 22.957031 -19.953125 21.921875 -21.035156 20.609375 -21.828125 C 19.304688 -22.628906 17.851562 -23.03125 16.25 -23.03125 C 14.644531 -23.03125 13.1875 -22.628906 11.875 -21.828125 C 10.570312 -21.035156 9.535156 -19.953125 8.765625 -18.578125 C 8.003906 -17.203125 7.625 -15.675781 7.625 -14 Z M 7.625 -14 "/></g></g></g><g fill="#123282" fill-opacity="1"><g transform="translate(224.099786, 67.111647)"><g><path d="M 28.90625 -28.078125 L 28.90625 1.140625 L 28.765625 1.140625 L 9.109375 -16.59375 L 9.234375 0 L 3.625 0 L 3.625 -29.171875 L 3.859375 -29.171875 L 23.453125 -11.171875 L 23.34375 -28.078125 Z M 28.90625 -28.078125 "/></g></g></g></g></g><path stroke-linecap="butt" transform="matrix(0.748488, 0, 0, 0.748488, 18.392734, 105.667113)" fill="none" stroke-linejoin="miter" d="M 0.00240084 1.999965 L 129.377824 1.999965 " stroke="#fddd00" stroke-width="4" stroke-opacity="1" stroke-miterlimit="4"/><g clip-path="url(#9789a3b9ee)"><path fill="#123282" d="M 213.6875 33.265625 C 213.785156 33.15625 213.820312 33.070312 213.820312 33.070312 C 213.875 33.085938 213.929688 33.105469 213.980469 33.121094 C 214.046875 33.144531 214.109375 33.160156 214.167969 33.175781 C 214.683594 33.320312 215.105469 33.367188 215.445312 33.351562 C 216.511719 33.292969 216.8125 32.605469 216.898438 32.214844 C 216.933594 32.058594 216.933594 31.949219 216.933594 31.949219 C 218.480469 31.234375 218.664062 30.777344 218.214844 30.039062 L 218.214844 30.035156 C 217.902344 29.527344 217.292969 28.886719 216.621094 27.9375 C 216.496094 27.761719 216.371094 27.574219 216.242188 27.371094 C 214.480469 24.625 209.210938 20.609375 208.867188 20.34375 C 208.855469 20.332031 208.847656 20.328125 208.847656 20.328125 C 208.847656 20.328125 209.863281 19.050781 208.734375 17.875 C 208.128906 17.242188 206.9375 17.34375 205.964844 17.574219 C 204.929688 17.820312 203.851562 17.855469 202.8125 17.636719 C 199.007812 16.839844 195.964844 17.691406 195.964844 17.691406 C 192.484375 18.65625 185.902344 22.917969 184.980469 22.957031 C 184.058594 23 165.894531 15.832031 165.894531 15.832031 L 166.503906 29.207031 C 166.503906 29.207031 166.527344 29.210938 166.574219 29.222656 C 167.769531 29.535156 184.640625 33.929688 185.808594 34.351562 C 188.980469 35.496094 190.746094 34.222656 195.40625 34.570312 C 200.066406 34.917969 202.839844 32.878906 204.898438 32.5 C 206.960938 32.121094 210.878906 33.558594 210.878906 33.558594 C 212.65625 34.105469 213.410156 33.578125 213.6875 33.265625 Z M 213.6875 33.265625 " fill-opacity="1" fill-rule="nonzero"/></g><g mask="url(#e861b3da65)"><g transform="matrix(1, 0, 0, 1, 204, 22)"><g clip-path="url(#40d48ba288)"><g clip-path="url(#4496498c48)"><path fill="#123282" d="M 7.472656 4.652344 C 5.242188 1.667969 0.773438 1.300781 0.773438 1.300781 C 0.773438 1.300781 3.210938 2.671875 4.195312 2.625 C 4.195312 2.625 5.941406 4.03125 6.847656 4.382812 C 6.847656 4.382812 9.117188 8.628906 12.171875 6.3125 C 12.425781 6.097656 12.476562 5.730469 12.296875 5.457031 C 12.296875 5.457031 12.03125 6.394531 11.496094 6.445312 C 10.957031 6.496094 9.355469 7.179688 7.472656 4.652344 Z M 7.472656 4.652344 " fill-opacity="1" fill-rule="nonzero"/></g></g></g></g><g mask="url(#389ec668f8)"><g transform="matrix(1, 0, 0, 1, 196, 20)"><g clip-path="url(#c20b960844)"><g clip-path="url(#216605d079)"><path fill="#123282" d="M 12.863281 0.339844 C 12.757812 0.800781 12.324219 1.0625 11.925781 1.316406 C 11.269531 1.738281 10.058594 2.441406 6.941406 2.226562 C 2.21875 1.898438 0.824219 3.015625 0.757812 3.074219 C 0.796875 3.011719 1.640625 1.757812 3.765625 1.851562 C 5.945312 1.953125 10.855469 2.144531 12.023438 0.882812 Z M 12.863281 0.339844 " fill-opacity="1" fill-rule="nonzero"/></g></g></g></g><g mask="url(#8885e655a4)"><g transform="matrix(1, 0, 0, 1, 204, 26)"><g clip-path="url(#c3b39aca57)"><g clip-path="url(#7db9f0f70d)"><path fill="#123282" d="M 12.925781 5.957031 C 12.960938 5.804688 12.203125 5.914062 12.203125 5.914062 C 10 5.234375 8.570312 3.566406 8.570312 3.566406 L 5.238281 1.9375 C 2.875 2.332031 1.050781 1.027344 0.945312 0.953125 C 2.335938 2.433594 4.972656 2.316406 4.972656 2.316406 C 4.972656 2.316406 6.90625 2.746094 7.914062 3.644531 C 8.921875 4.546875 11.070312 5.75 11.96875 6.019531 C 12.199219 6.085938 12.503906 5.925781 12.925781 5.957031 Z M 12.925781 5.957031 " fill-opacity="1" fill-rule="nonzero"/></g></g></g></g><g mask="url(#0b2e631850)"><g transform="matrix(1, 0, 0, 1, 206, 28)"><g clip-path="url(#bfe7325e65)"><g clip-path="url(#9a479b2fe5)"><path fill="#123282" d="M 9.445312 5.351562 C 7.894531 4.964844 7.402344 4.59375 7.402344 4.59375 C 6.394531 3.945312 6.179688 3.757812 6.179688 3.757812 C 5.292969 3.796875 3.433594 2.105469 3.433594 2.105469 C 1.886719 1.699219 0.226562 0.925781 0.121094 0.875 C 0.726562 1.457031 3.347656 2.390625 3.347656 2.390625 C 4.167969 3.351562 5.816406 4.035156 6.164062 4.230469 C 6.511719 4.421875 7.824219 5.070312 7.824219 5.070312 C 8.5 5.296875 9.03125 5.371094 9.445312 5.351562 Z M 9.445312 5.351562 " fill-opacity="1" fill-rule="nonzero"/></g></g></g></g><g mask="url(#a588e8890f)"><g transform="matrix(1, 0, 0, 1, 213, 32)"><g clip-path="url(#23a6f5244c)"><g clip-path="url(#3c71861527)"><path fill="#123282" d="M 0.980469 1.121094 C 1.046875 1.144531 1.109375 1.160156 1.167969 1.175781 C 1.15625 1.109375 1.09375 1.085938 0.980469 1.121094 Z M 0.980469 1.121094 " fill-opacity="1" fill-rule="nonzero"/></g></g></g></g><g mask="url(#81e6e62496)"><g transform="matrix(1, 0, 0, 1, 166, 28)"><g clip-path="url(#07dfc5cd58)"><g clip-path="url(#ec0cde7a1d)"><path fill="#123282" d="M 44.878906 5.558594 C 46.65625 6.105469 47.414062 5.578125 47.6875 5.265625 C 47.683594 5.265625 47.683594 5.265625 47.683594 5.265625 C 46.273438 6.117188 44.570312 4.964844 44.570312 4.964844 C 41.15625 3.582031 38.023438 4.085938 38.023438 4.085938 C 35.988281 5.417969 32.773438 5.804688 31.25 5.878906 C 29.730469 5.957031 28.722656 4.972656 24.941406 5.402344 C 21.160156 5.832031 20.632812 5.242188 18.953125 4.800781 C 17.277344 4.355469 0.65625 0.195312 0.65625 0.195312 L 0.570312 1.222656 C 1.765625 1.535156 18.636719 5.933594 19.804688 6.355469 C 22.980469 7.5 24.742188 6.226562 29.402344 6.574219 C 34.066406 6.917969 36.835938 4.878906 38.898438 4.5 C 40.953125 4.121094 44.878906 5.558594 44.878906 5.558594 Z M 44.878906 5.558594 " fill-opacity="1" fill-rule="nonzero"/></g></g></g></g><g mask="url(#68aaf5df83)"><g transform="matrix(1, 0, 0, 1, 213, 33)"><g clip-path="url(#2111f1e350)"><g clip-path="url(#a678fd9b4a)"><path fill="#123282" d="M 1.011719 0.796875 C 1.074219 0.769531 1.136719 0.742188 1.191406 0.722656 C 1.1875 0.789062 1.128906 0.820312 1.011719 0.796875 Z M 1.011719 0.796875 " fill-opacity="1" fill-rule="nonzero"/></g></g></g></g><g mask="url(#1e2ca6158b)"><g transform="matrix(1, 0, 0, 1, 187, 22)"><g clip-path="url(#1035260392)"><g clip-path="url(#324c30652d)"><path fill="#123282" d="M 9.757812 1.070312 C 9.757812 1.070312 9.816406 5.933594 6.105469 7.089844 C 2.398438 8.25 1.589844 9.480469 0.703125 9.125 C 0.703125 9.125 4.789062 7.164062 6.078125 6.519531 C 7.371094 5.878906 8.875 4.386719 9.757812 1.070312 Z M 9.757812 1.070312 " fill-opacity="1" fill-rule="nonzero"/></g></g></g></g><g mask="url(#85b631013a)"><g transform="matrix(1, 0, 0, 1, 197, 24)"><g clip-path="url(#73028a1691)"><g clip-path="url(#d6bedf961c)"><path fill="#123282" d="M 0.914062 9.292969 C 0.914062 9.292969 0.839844 5.910156 3.035156 3.996094 C 5.230469 2.078125 5.410156 0.988281 6.128906 0.964844 C 6.128906 0.964844 3.914062 3.546875 3.226562 4.378906 C 2.535156 5.210938 1.292969 6.820312 0.914062 9.292969 Z M 0.914062 9.292969 " fill-opacity="1" fill-rule="nonzero"/></g></g></g></g><g clip-path="url(#baa82fbebe)"><path fill="#123282" d="M 189.355469 39.441406 C 189.25 39.546875 189.214844 39.628906 189.214844 39.628906 C 189.160156 39.613281 189.109375 39.589844 189.054688 39.574219 C 188.992188 39.550781 188.929688 39.527344 188.871094 39.507812 C 188.363281 39.339844 187.945312 39.273438 187.605469 39.277344 L 187.601562 39.277344 C 186.535156 39.28125 186.207031 39.960938 186.101562 40.347656 C 186.058594 40.5 186.054688 40.609375 186.054688 40.609375 C 184.476562 41.253906 184.269531 41.703125 184.6875 42.460938 C 184.972656 42.984375 185.554688 43.652344 186.183594 44.632812 C 186.296875 44.816406 186.417969 45.011719 186.535156 45.214844 C 188.167969 48.039062 193.25 52.292969 193.582031 52.574219 C 193.59375 52.582031 193.601562 52.585938 193.601562 52.585938 C 193.601562 52.585938 192.527344 53.816406 193.601562 55.046875 C 194.179688 55.703125 195.371094 55.65625 196.355469 55.46875 C 197.402344 55.269531 198.476562 55.289062 199.507812 55.550781 C 203.273438 56.523438 206.351562 55.8125 206.351562 55.8125 C 209.871094 55.007812 216.640625 51.050781 217.5625 51.050781 C 218.484375 51.050781 236.300781 59.039062 236.300781 59.039062 L 236.300781 45.652344 C 236.300781 45.652344 236.28125 45.648438 236.234375 45.636719 C 235.054688 45.269531 218.402344 40.105469 217.257812 39.628906 C 214.136719 38.339844 212.316406 39.53125 207.679688 38.972656 C 203.039062 38.414062 200.175781 40.320312 198.101562 40.609375 C 196.027344 40.894531 192.175781 39.277344 192.175781 39.277344 C 190.425781 38.648438 189.644531 39.140625 189.355469 39.441406 Z M 189.355469 39.441406 " fill-opacity="1" fill-rule="nonzero"/></g><g mask="url(#132fa7ab69)"><g transform="matrix(1, 0, 0, 1, 186, 43)"><g clip-path="url(#e00cef621e)"><g clip-path="url(#e2ef9046e3)"><path fill="#123282" d="M 5.269531 3.148438 C 7.355469 6.230469 11.804688 6.800781 11.804688 6.800781 C 11.804688 6.800781 9.433594 5.320312 8.449219 5.320312 C 8.449219 5.320312 6.769531 3.839844 5.878906 3.445312 C 5.878906 3.445312 3.808594 -0.898438 0.648438 1.269531 C 0.386719 1.472656 0.316406 1.839844 0.484375 2.121094 C 0.484375 2.121094 0.789062 1.199219 1.332031 1.171875 C 1.871094 1.144531 3.5 0.539062 5.269531 3.148438 Z M 5.269531 3.148438 " fill-opacity="1" fill-rule="nonzero"/></g></g></g></g><g mask="url(#18a4860d0b)"><g transform="matrix(1, 0, 0, 1, 193, 50)"><g clip-path="url(#8c2e82e908)"><g clip-path="url(#4c9aaa2f66)"><path fill="#123282" d="M 0.585938 2.570312 C 0.714844 2.117188 1.160156 1.875 1.566406 1.640625 C 2.242188 1.246094 3.480469 0.601562 6.585938 0.957031 C 11.285156 1.5 12.734375 0.445312 12.804688 0.390625 C 12.761719 0.453125 11.859375 1.667969 9.742188 1.476562 C 7.570312 1.277344 2.671875 0.859375 1.449219 2.066406 Z M 0.585938 2.570312 " fill-opacity="1" fill-rule="nonzero"/></g></g></g></g><g mask="url(#3e1efec2ce)"><g transform="matrix(1, 0, 0, 1, 185, 40)"><g clip-path="url(#d346754fe5)"><g clip-path="url(#829abd29a9)"><path fill="#123282" d="M 1.058594 0.597656 C 1.015625 0.75 1.777344 0.667969 1.777344 0.667969 C 3.949219 1.449219 5.300781 3.183594 5.300781 3.183594 L 8.558594 4.960938 C 10.933594 4.675781 12.703125 6.0625 12.800781 6.140625 C 11.480469 4.601562 8.84375 4.597656 8.84375 4.597656 C 8.84375 4.597656 6.929688 4.082031 5.960938 3.132812 C 4.992188 2.1875 2.902344 0.890625 2.019531 0.582031 C 1.792969 0.503906 1.480469 0.652344 1.058594 0.597656 Z M 1.058594 0.597656 " fill-opacity="1" fill-rule="nonzero"/></g></g></g></g><g mask="url(#2a79a7bf6c)"><g transform="matrix(1, 0, 0, 1, 187, 39)"><g clip-path="url(#36872e6c3e)"><g clip-path="url(#e206b801c4)"><path fill="#123282" d="M 0.605469 0.273438 C 2.136719 0.730469 2.609375 1.121094 2.609375 1.121094 C 3.589844 1.8125 3.796875 2.011719 3.796875 2.011719 C 4.683594 2.011719 6.460938 3.785156 6.460938 3.785156 C 7.992188 4.265625 9.613281 5.113281 9.714844 5.167969 C 9.136719 4.558594 6.5625 3.503906 6.5625 3.503906 C 5.785156 2.507812 4.171875 1.75 3.835938 1.542969 C 3.496094 1.332031 2.214844 0.628906 2.214844 0.628906 C 1.546875 0.367188 1.019531 0.273438 0.605469 0.273438 Z M 0.605469 0.273438 " fill-opacity="1" fill-rule="nonzero"/></g></g></g></g><g mask="url(#07e8fb9700)"><g transform="matrix(1, 0, 0, 1, 188, 39)"><g clip-path="url(#98d0da06ae)"><g clip-path="url(#3318f8b2e7)"><path fill="#123282" d="M 1.054688 0.570312 C 0.992188 0.546875 0.929688 0.527344 0.871094 0.507812 C 0.878906 0.574219 0.941406 0.601562 1.054688 0.570312 Z M 1.054688 0.570312 " fill-opacity="1" fill-rule="nonzero"/></g></g></g></g><g clip-path="url(#231dd0d9ff)"><g mask="url(#be18ec57bd)"><g transform="matrix(1, 0, 0, 1, 189, 38)"><g clip-path="url(#4827496769)"><g clip-path="url(#4f84b7794a)"><path fill="#123282" d="M 3.175781 1.273438 C 1.425781 0.644531 0.644531 1.140625 0.355469 1.441406 C 0.355469 1.441406 0.355469 1.4375 0.359375 1.4375 C 1.804688 0.652344 3.457031 1.882812 3.457031 1.882812 C 6.804688 3.417969 9.957031 3.058594 9.957031 3.058594 C 12.046875 1.820312 15.277344 1.582031 16.800781 1.578125 C 18.324219 1.570312 19.285156 2.601562 23.082031 2.34375 C 26.878906 2.085938 27.378906 2.699219 29.035156 3.21875 C 30.691406 3.734375 47.105469 8.652344 47.105469 8.652344 L 47.238281 7.628906 C 46.058594 7.261719 29.40625 2.101562 28.257812 1.625 C 25.136719 0.335938 23.320312 1.527344 18.679688 0.96875 C 14.039062 0.410156 11.179688 2.316406 9.105469 2.601562 C 7.03125 2.890625 3.175781 1.273438 3.175781 1.273438 Z M 3.175781 1.273438 " fill-opacity="1" fill-rule="nonzero"/></g></g></g></g></g><g mask="url(#366ee463e0)"><g transform="matrix(1, 0, 0, 1, 188, 38)"><g clip-path="url(#64c88af16f)"><g clip-path="url(#7adb7ec947)"><path fill="#123282" d="M 1.054688 0.894531 C 0.992188 0.917969 0.929688 0.941406 0.871094 0.957031 C 0.878906 0.894531 0.941406 0.867188 1.054688 0.894531 Z M 1.054688 0.894531 " fill-opacity="1" fill-rule="nonzero"/></g></g></g></g><g mask="url(#af6e08c9ba)"><g transform="matrix(1, 0, 0, 1, 205, 42)"><g clip-path="url(#5d6cde30d9)"><g clip-path="url(#071d0197b7)"><path fill="#123282" d="M 0.800781 8.394531 C 0.800781 8.394531 0.964844 3.535156 4.722656 2.546875 C 8.484375 1.558594 9.34375 0.367188 10.214844 0.761719 C 10.214844 0.761719 6.042969 2.53125 4.722656 3.113281 C 3.40625 3.703125 1.832031 5.125 0.800781 8.394531 Z M 0.800781 8.394531 " fill-opacity="1" fill-rule="nonzero"/></g></g></g></g><g mask="url(#f25576a3e9)"><g transform="matrix(1, 0, 0, 1, 199, 40)"><g clip-path="url(#f33d319a0f)"><g clip-path="url(#3f843e45d3)"><path fill="#123282" d="M 6.113281 0.132812 C 6.113281 0.132812 6.03125 3.515625 3.753906 5.328125 C 1.472656 7.144531 1.238281 8.222656 0.523438 8.214844 C 0.523438 8.214844 2.851562 5.738281 3.578125 4.941406 C 4.304688 4.144531 5.621094 2.589844 6.113281 0.132812 Z M 6.113281 0.132812 " fill-opacity="1" fill-rule="nonzero"/></g></g></g></g><path fill="#fddd00" d="M 214.882812 39.808594 C 214.859375 39.851562 214.835938 39.894531 214.8125 39.9375 C 214.753906 40.046875 214.699219 40.152344 214.632812 40.261719 C 213.761719 41.78125 212.402344 43.355469 210.347656 44.722656 C 206.28125 47.4375 202.121094 49.773438 202.121094 49.773438 L 195.328125 45.566406 C 195.058594 45.398438 194.792969 45.226562 194.527344 45.039062 C 194.199219 44.808594 193.875 44.566406 193.5625 44.3125 C 192.402344 43.371094 191.375 42.273438 190.53125 41.035156 C 189.839844 40.023438 189.214844 38.847656 188.875 37.589844 C 188.570312 36.433594 188.5 35.203125 188.835938 33.953125 C 188.839844 33.941406 188.839844 33.929688 188.847656 33.917969 C 189.179688 32.710938 189.648438 31.722656 190.191406 30.910156 C 192.140625 28 195.058594 27.398438 196.253906 27.421875 C 197.78125 27.449219 201.300781 28.960938 202.121094 31.90625 C 202.121094 31.90625 204.476562 26.996094 209.183594 27.453125 C 209.660156 27.5 210.105469 27.589844 210.523438 27.71875 C 210.582031 27.738281 210.640625 27.757812 210.699219 27.773438 C 211.339844 27.992188 211.910156 28.292969 212.421875 28.660156 C 212.648438 28.820312 212.863281 28.996094 213.066406 29.175781 C 213.214844 29.308594 213.355469 29.445312 213.488281 29.589844 C 214.027344 30.15625 214.472656 30.789062 214.828125 31.425781 C 215.539062 32.703125 215.898438 34.003906 215.996094 34.855469 C 216.117188 35.992188 215.898438 37.832031 214.882812 39.808594 Z M 214.882812 39.808594 " fill-opacity="1" fill-rule="nonzero"/><path fill="#6eb531" d="M 196.878906 41.59375 C 196.960938 41.910156 196.710938 41.953125 196.710938 41.953125 C 196.710938 41.953125 196.753906 42.523438 196.710938 42.753906 C 196.667969 42.988281 196.183594 43.007812 196.183594 43.007812 C 196.101562 43.28125 195.886719 43.21875 195.886719 43.21875 C 195.953125 43.933594 195.570312 43.789062 195.570312 43.789062 C 195.570312 43.867188 195.554688 43.933594 195.53125 43.988281 C 195.417969 44.230469 195.109375 44.230469 195.109375 44.230469 C 195.171875 44.886719 194.730469 44.675781 194.730469 44.675781 C 194.71875 44.976562 194.613281 45.039062 194.53125 45.039062 C 194.199219 44.808594 193.878906 44.566406 193.566406 44.3125 C 193.574219 43.648438 193.597656 43.015625 193.605469 42.765625 C 193.609375 42.691406 193.609375 42.652344 193.609375 42.652344 C 193.609375 42.652344 193.074219 42.398438 193.101562 42.082031 C 193.132812 41.765625 191.964844 40.816406 192.628906 40.589844 C 193.292969 40.371094 192.84375 39.960938 192.84375 39.960938 C 192.359375 40.179688 191.964844 39.546875 191.964844 39.546875 C 191.777344 39.582031 191.398438 39.324219 191.398438 39.324219 C 190.859375 39.292969 190.289062 39.042969 190.382812 38.722656 C 190.480469 38.40625 189.878906 37.300781 189.722656 37.457031 C 189.5625 37.617188 190.289062 38.597656 189.941406 38.578125 C 189.59375 38.558594 189.28125 37.171875 189.28125 37.171875 C 188.867188 37.046875 188.425781 35.90625 188.835938 35.8125 C 189.25 35.71875 189.214844 34.957031 188.996094 34.988281 C 188.773438 35.019531 188.488281 34.609375 188.933594 34.578125 C 189.375 34.546875 188.902344 33.976562 188.902344 33.976562 C 188.882812 33.96875 188.863281 33.957031 188.84375 33.949219 C 188.847656 33.9375 188.847656 33.925781 188.855469 33.914062 C 189.1875 32.707031 189.65625 31.71875 190.199219 30.90625 C 190.320312 31.003906 190.519531 31.109375 190.8125 31.085938 C 191.335938 31.046875 191.316406 31.972656 191.65625 32.035156 C 191.992188 32.097656 191.929688 31.78125 191.71875 31.71875 C 191.507812 31.65625 191.507812 31.296875 191.738281 31.296875 C 191.972656 31.296875 191.695312 30.851562 191.695312 30.851562 C 191.695312 30.851562 191.695312 31.125 191.316406 30.957031 C 190.9375 30.789062 191.339844 30.535156 191.695312 30.195312 C 192.046875 29.871094 192.355469 31.019531 192.371094 31.082031 C 192.367188 31.039062 192.328125 30.585938 192.6875 30.765625 C 193.066406 30.953125 192.6875 30.765625 192.710938 31.417969 C 192.730469 32.074219 192.605469 31.566406 192.332031 31.714844 C 192.058594 31.863281 192.566406 32.03125 192.730469 32.03125 C 192.898438 32.03125 193.175781 31.632812 192.960938 31.292969 C 192.753906 30.953125 193.152344 30.925781 193.152344 30.925781 C 193.171875 30.597656 193.765625 30.660156 193.765625 30.925781 C 193.765625 31.191406 193.53125 31.125 193.53125 31.125 C 193.53125 31.125 193.300781 31.1875 193.511719 31.757812 C 193.722656 32.328125 193.847656 31.800781 193.847656 31.800781 C 193.238281 31.421875 193.933594 31.144531 194.019531 30.976562 C 194.101562 30.808594 194.503906 31.105469 194.777344 31.105469 C 195.050781 31.105469 194.988281 31.714844 194.988281 31.714844 C 195.664062 31.96875 195.324219 32.453125 195.324219 32.453125 C 195.875 33.253906 195.074219 32.683594 195.074219 32.917969 C 195.074219 33.148438 195.179688 33.363281 195.179688 33.363281 C 194.484375 33.722656 194.691406 33.066406 194.355469 33.066406 C 194.019531 33.066406 193.890625 32.8125 194.125 32.8125 C 194.355469 32.8125 194.589844 32.644531 194.671875 32.476562 C 194.753906 32.304688 194.460938 32.179688 194.460938 32.179688 C 194.460938 31.738281 194.125 32.074219 194.125 32.074219 C 194.144531 32.875 193.765625 32.304688 193.683594 32.601562 C 193.597656 32.898438 194.082031 32.917969 193.621094 33.109375 C 193.15625 33.296875 193.28125 32.898438 193.28125 32.898438 C 192.882812 33.148438 192.394531 33.613281 192.628906 33.933594 C 192.859375 34.25 193.386719 33.933594 193.28125 34.457031 C 193.175781 34.988281 193.535156 35.238281 193.496094 34.902344 C 193.453125 34.5625 193.8125 34.355469 193.8125 34.355469 C 193.664062 34.015625 193.894531 33.910156 193.894531 33.910156 C 193.894531 33.910156 193.640625 33.382812 194.125 33.300781 C 194.609375 33.214844 194.632812 33.972656 194.632812 33.972656 L 194.820312 33.972656 C 194.820312 33.972656 194.90625 33.847656 195.117188 33.847656 C 195.328125 33.847656 195.179688 34.417969 195.179688 34.417969 C 195.578125 34.457031 195.496094 34.859375 195.496094 34.859375 C 195.664062 34.757812 195.8125 35.09375 195.644531 35.113281 C 195.476562 35.136719 195.582031 35.324219 195.582031 35.324219 C 195.582031 35.324219 195.835938 35.34375 195.730469 35.746094 C 195.625 36.144531 195.371094 35.578125 195.371094 35.578125 C 195.371094 35.578125 195.074219 35.746094 195.160156 35.472656 C 195.242188 35.199219 195.097656 35.230469 195.097656 35.230469 C 194.800781 35.367188 194.925781 35.300781 194.652344 35.238281 C 194.378906 35.175781 194.355469 35.492188 194.527344 35.449219 C 194.695312 35.40625 194.695312 35.742188 194.695312 35.742188 C 194.90625 35.464844 195.074219 35.742188 195.074219 35.742188 C 194.695312 36.4375 194.191406 35.679688 194.125 36.039062 C 194.0625 36.398438 193.851562 36.398438 193.851562 36.398438 C 193.28125 36.546875 193.496094 37.179688 193.21875 37.242188 C 192.945312 37.304688 192.734375 37.515625 192.902344 37.789062 C 193.074219 38.066406 192.714844 38.382812 193.007812 38.402344 C 193.304688 38.421875 193.429688 38.632812 193.429688 38.632812 C 193.429688 38.632812 193.9375 38.652344 193.894531 38.886719 C 193.851562 39.117188 193.261719 39.117188 193.261719 39.117188 C 193.132812 39.390625 192.710938 39.035156 192.839844 39.011719 C 192.964844 38.992188 192.902344 38.632812 192.902344 38.632812 C 192.902344 38.632812 192.710938 38.738281 192.542969 38.570312 C 192.375 38.402344 192.566406 38.253906 192.566406 38.253906 C 192.566406 38.253906 192.566406 37.9375 192.5 37.765625 C 192.4375 37.597656 192.101562 37.617188 192.101562 37.617188 C 191.996094 37.980469 191.550781 37.617188 191.550781 37.617188 C 191.464844 37.828125 191.253906 37.894531 191.253906 37.894531 C 191.253906 37.894531 191.023438 38.78125 191.421875 38.839844 C 191.824219 38.90625 191.550781 38.460938 191.929688 38.484375 C 192.308594 38.503906 192.078125 39.054688 192.078125 39.054688 C 192.625 39.054688 192.308594 39.453125 192.539062 39.644531 C 192.773438 39.832031 193.128906 39.640625 193.128906 39.640625 C 193.488281 39.085938 194.039062 39.664062 194.039062 39.664062 C 194.691406 39.558594 194.648438 39.832031 194.648438 39.832031 C 194.902344 39.855469 195.027344 40.085938 195.027344 40.085938 C 195.617188 39.789062 195.691406 40.78125 195.691406 40.78125 C 196.019531 40.65625 196.144531 40.929688 196.144531 40.929688 C 196.714844 40.78125 196.902344 41.121094 196.902344 41.121094 C 197.25 41.363281 196.878906 41.59375 196.878906 41.59375 Z M 196.878906 41.59375 " fill-opacity="1" fill-rule="nonzero"/><path fill="#6eb531" d="M 209.652344 41.597656 C 209.652344 41.597656 209.644531 41.628906 209.621094 41.679688 C 209.570312 41.78125 209.433594 41.960938 209.136719 42.050781 L 209.136719 42.523438 C 209.136719 42.523438 208.796875 42.925781 209.136719 43.152344 C 209.472656 43.375 209.496094 43.039062 209.496094 43.039062 L 209.496094 42.65625 C 209.496094 42.65625 209.789062 42.722656 209.652344 42.273438 C 209.652344 42.273438 210.125 42.207031 209.652344 41.597656 Z M 209.652344 41.597656 " fill-opacity="1" fill-rule="nonzero"/><path fill="#6eb531" d="M 215.992188 34.851562 C 215.898438 34 215.539062 32.699219 214.828125 31.421875 C 214.46875 30.78125 214.027344 30.152344 213.488281 29.585938 C 213.355469 29.648438 213.234375 29.6875 213.160156 29.667969 C 213.042969 29.632812 213.0625 29.390625 213.066406 29.171875 C 212.863281 28.988281 212.648438 28.8125 212.421875 28.65625 C 212.339844 28.617188 212.234375 28.597656 212.082031 28.621094 C 211.644531 28.6875 211.914062 28.078125 211.375 28.113281 C 210.84375 28.148438 210.671875 28.246094 210.695312 27.769531 C 210.640625 27.75 210.578125 27.730469 210.519531 27.710938 C 210.414062 27.890625 210.316406 28.21875 210.425781 28.417969 C 210.628906 28.789062 211.238281 28.625 211.238281 28.625 C 211.238281 28.625 211.40625 29.078125 211.644531 29.152344 C 211.644531 29.152344 210.964844 29.496094 210.964844 29.96875 C 210.964844 29.96875 210.867188 30.339844 210.664062 30.136719 C 210.464844 29.9375 210.554688 30.347656 210.683594 30.496094 C 210.6875 30.5 210.691406 30.503906 210.695312 30.507812 C 210.695312 30.507812 210.5 31.148438 210.378906 30.878906 C 210.355469 30.832031 210.328125 30.78125 210.296875 30.726562 C 210.167969 30.5 209.984375 30.273438 209.984375 30.273438 C 209.984375 30.273438 209.886719 30.625 209.867188 30.976562 C 209.855469 31.199219 209.882812 31.425781 209.984375 31.554688 C 209.984375 31.554688 209.683594 31.382812 209.433594 31.210938 C 209.257812 31.089844 209.109375 30.96875 209.109375 30.914062 C 209.109375 30.78125 209.042969 30.273438 209.480469 29.902344 C 209.917969 29.527344 209.007812 29.527344 208.839844 30 C 208.671875 30.472656 208.570312 31.046875 208.839844 31.21875 C 208.941406 31.277344 209.039062 31.332031 209.109375 31.378906 C 209.226562 31.457031 209.257812 31.511719 209.042969 31.554688 C 208.703125 31.621094 208.5 31.894531 208.5 31.894531 C 208.5 31.894531 208.296875 32.265625 207.992188 32.128906 C 207.992188 32.128906 207.980469 32.054688 207.914062 31.949219 C 207.789062 31.757812 207.496094 31.457031 206.777344 31.285156 C 206.777344 31.285156 205.96875 31.351562 205.699219 32.46875 L 204.988281 33.007812 L 204.988281 33.652344 C 204.988281 33.652344 205.425781 33.890625 205.527344 33.652344 C 205.628906 33.417969 205.902344 34.226562 205.394531 34.226562 C 204.886719 34.226562 204.582031 34.023438 204.582031 33.851562 C 204.582031 33.683594 203.992188 33.480469 204.050781 34.089844 C 204.109375 34.695312 204.515625 34.089844 204.109375 34.695312 C 204.089844 34.722656 204.078125 34.75 204.0625 34.773438 C 203.773438 35.28125 204.449219 35.035156 204.449219 35.035156 C 204.449219 35.035156 204.714844 35.578125 203.988281 35.507812 C 203.265625 35.441406 203.460938 36.320312 203.988281 36.660156 C 203.988281 36.660156 204.539062 36.5625 204.582031 36.457031 C 204.628906 36.351562 204.71875 35.996094 204.71875 35.996094 L 205.011719 35.898438 L 205.011719 35.742188 L 205.460938 35.742188 C 205.460938 35.742188 205.644531 35.320312 205.644531 35.570312 C 205.644531 35.683594 205.710938 35.773438 205.800781 35.855469 C 205.902344 35.949219 206.03125 36.035156 206.101562 36.132812 C 206.230469 36.3125 206.453125 36.3125 206.453125 36.109375 C 206.453125 35.90625 205.960938 35.492188 205.960938 35.492188 C 205.960938 35.492188 206.117188 35.34375 206.253906 35.492188 C 206.386719 35.636719 206.726562 36.167969 206.726562 36.304688 C 206.726562 36.445312 206.90625 36.5625 206.972656 36.457031 C 207.039062 36.351562 206.882812 35.871094 207.175781 35.898438 C 207.175781 35.898438 207.242188 36.5625 207.667969 36.457031 C 208.097656 36.351562 208.210938 36.578125 208.210938 36.578125 L 208.210938 37.117188 C 208.210938 37.117188 207.265625 37.210938 206.792969 36.757812 C 206.792969 36.757812 206.703125 36.910156 206.679688 37.125 C 206.660156 37.34375 206.207031 36.894531 206.207031 36.894531 L 205.777344 36.824219 L 205.777344 36.457031 C 205.777344 36.457031 205.703125 36.4375 205.589844 36.425781 C 205.332031 36.390625 204.890625 36.359375 204.765625 36.539062 C 204.585938 36.800781 203.992188 36.65625 203.992188 36.65625 C 203.992188 36.65625 203.640625 36.757812 203.675781 37.195312 C 203.675781 37.195312 202.996094 37.5 203.066406 38.511719 L 203.0625 39.257812 L 203.371094 39.492188 L 203.878906 40.035156 C 203.878906 40.035156 204.417969 40.203125 204.753906 39.796875 C 205.09375 39.390625 205.023438 40.238281 205.53125 40.070312 C 206.039062 39.898438 205.53125 40.339844 205.429688 40.542969 C 205.332031 40.742188 205.871094 40.777344 205.871094 41.417969 C 205.871094 42.058594 205.566406 42.058594 205.9375 43.003906 C 206.3125 43.953125 206.3125 43.378906 206.3125 43.953125 C 206.3125 44.164062 206.464844 44.234375 206.679688 44.210938 C 207.039062 44.167969 207.578125 43.851562 207.832031 43.511719 C 207.851562 43.488281 207.867188 43.464844 207.882812 43.445312 C 208.175781 43.03125 208.046875 43.003906 208.011719 43.003906 C 208.089844 43 208.648438 42.941406 208.269531 42.5 C 208.269531 42.5 208.574219 42.128906 208.84375 42.160156 C 209.113281 42.195312 208.640625 40.777344 208.945312 40.640625 C 209.25 40.507812 210.332031 39.222656 209.960938 39.222656 C 209.589844 39.222656 209.148438 39.222656 209.148438 39.222656 C 209.148438 39.222656 208.425781 38.417969 208.140625 37.8125 C 208.109375 37.753906 208.085938 37.691406 208.066406 37.636719 C 207.976562 37.367188 208.152344 37.492188 208.386719 37.734375 C 208.683594 38.035156 209.074219 38.535156 209.148438 38.683594 C 209.28125 38.953125 209.046875 39.191406 209.550781 38.953125 C 210.058594 38.71875 211.105469 38.246094 210.597656 37.972656 C 210.089844 37.703125 210.363281 37.90625 209.890625 37.703125 C 209.675781 37.613281 209.558594 37.441406 209.515625 37.308594 C 209.460938 37.140625 209.511719 37.019531 209.621094 37.132812 C 209.652344 37.164062 209.679688 37.191406 209.710938 37.222656 C 209.886719 37.394531 210.070312 37.550781 210.332031 37.605469 C 210.632812 37.671875 210.535156 37.875 211.476562 37.808594 L 211.714844 38.167969 L 212.085938 38.167969 C 212.085938 38.167969 212.222656 39.210938 212.601562 39.574219 C 212.640625 39.613281 212.683594 39.644531 212.726562 39.667969 C 213.199219 39.902344 213.332031 39.867188 213.097656 39.429688 C 213.019531 39.289062 213 39.160156 213.023438 39.027344 C 213.066406 38.761719 213.285156 38.507812 213.5625 38.210938 C 213.574219 38.199219 213.589844 38.183594 213.601562 38.171875 L 214.007812 38.171875 C 214.007812 38.171875 214.210938 38.996094 214.546875 38.722656 C 214.886719 38.453125 214.75 39.636719 214.75 39.636719 L 214.882812 39.8125 C 215.898438 37.832031 216.117188 35.992188 215.992188 34.851562 Z M 206.816406 33.5625 C 206.523438 33.652344 206.835938 33.96875 206.457031 34.101562 C 206.074219 34.238281 205.917969 34.238281 205.917969 34.238281 L 205.917969 33.945312 L 206.101562 33.945312 L 206.101562 33.628906 L 206.445312 33.425781 C 205.980469 33 206.34375 32.886719 206.34375 32.886719 C 206.34375 32.886719 206.34375 32.886719 206.300781 32.683594 C 206.296875 32.664062 206.296875 32.648438 206.296875 32.636719 C 206.308594 32.453125 206.59375 32.277344 206.59375 32.277344 C 206.691406 32.335938 206.75 32.386719 206.785156 32.4375 C 206.910156 32.628906 206.652344 32.773438 206.652344 32.773438 L 206.652344 33.257812 L 207.113281 33.257812 L 207.382812 33.382812 C 207.375 33.382812 207.109375 33.472656 206.816406 33.5625 Z M 208.617188 35.898438 C 208.347656 36.050781 207.984375 35.65625 207.761719 35.742188 C 207.535156 35.828125 207.375 35.90625 207.375 35.613281 C 207.375 35.320312 207.625 35.226562 207.625 35.226562 C 207.625 35.226562 207.917969 35.386719 208.03125 35.34375 C 208.144531 35.296875 207.847656 35.074219 208.207031 35.027344 C 208.566406 34.984375 208.324219 35.425781 208.324219 35.425781 C 208.324219 35.425781 208.886719 35.746094 208.617188 35.898438 Z M 209.863281 36.332031 C 209.691406 36.667969 209.425781 36.261719 209.421875 35.894531 C 209.421875 35.527344 208.984375 35.40625 208.984375 35.40625 L 209.519531 35.023438 C 209.855469 35.203125 209.652344 35.363281 209.421875 35.429688 C 209.195312 35.496094 210.035156 35.992188 209.863281 36.332031 Z M 214.515625 40 C 214.515625 40.046875 214.5625 40.140625 214.636719 40.261719 C 214.699219 40.152344 214.757812 40.042969 214.816406 39.9375 C 214.667969 39.894531 214.515625 39.875 214.515625 40 Z M 214.515625 40 " fill-opacity="1" fill-rule="nonzero"/><path fill="#6eb531" d="M 201.328125 35.800781 C 201.328125 35.800781 200.90625 36.03125 201.328125 36.304688 C 201.75 36.578125 202.085938 36.242188 202.085938 36.054688 C 202.085938 35.863281 201.566406 35.925781 201.566406 35.925781 Z M 201.328125 35.800781 " fill-opacity="1" fill-rule="nonzero"/><path fill="#6eb531" d="M 201.613281 32.339844 C 201.613281 32.339844 201.910156 32.371094 201.613281 31.894531 C 201.613281 31.894531 201.53125 31.421875 201.136719 31.769531 L 200.523438 31.640625 L 200.523438 31.988281 L 200.082031 31.988281 C 200.082031 31.988281 199.605469 31.863281 199.480469 32.179688 L 199.132812 32.339844 L 199.132812 32.78125 C 199.132812 32.78125 198.308594 32.78125 198.371094 33.128906 C 198.433594 33.480469 198.148438 33.859375 198.972656 33.636719 C 198.972656 33.636719 199.289062 34.175781 199.035156 34.648438 C 198.785156 35.125 199.101562 34.933594 199.101562 34.933594 C 199.101562 34.933594 198.6875 35.125 198.972656 35.3125 C 198.972656 35.3125 198.878906 35.53125 199.003906 36.101562 C 199.132812 36.671875 198.910156 36.628906 199.320312 36.839844 C 199.734375 37.050781 199.386719 36.582031 199.671875 36.40625 C 199.953125 36.230469 199.851562 35.921875 199.851562 35.921875 C 199.851562 35.921875 200.492188 36.003906 200.714844 35.625 C 200.714844 35.625 201.65625 35.59375 201.566406 34.738281 C 201.566406 34.738281 202.160156 34.296875 201.566406 33.792969 L 201.828125 33.761719 L 201.828125 33.160156 L 202.496094 32.589844 L 202.265625 32.304688 C 202.265625 32.308594 202.101562 32.53125 201.613281 32.339844 Z M 201.613281 32.339844 " fill-opacity="1" fill-rule="nonzero"/><path fill="#6eb531" d="M 205.53125 29.15625 C 205.53125 29.15625 205.058594 29.261719 205.328125 29.667969 C 205.597656 30.074219 205.996094 30.34375 206.101562 29.871094 C 206.101562 29.871094 206.773438 30.007812 206.101562 29.363281 C 206.101562 29.363281 206.875 29.0625 206.101562 28.992188 C 205.328125 28.925781 205.53125 29.15625 205.53125 29.15625 Z M 205.53125 29.15625 " fill-opacity="1" fill-rule="nonzero"/><path fill="#6eb531" d="M 197.773438 31.644531 C 197.773438 31.644531 198.914062 31.082031 199.386719 31.523438 C 199.859375 31.96875 199.386719 31.992188 199.386719 31.992188 C 199.386719 31.992188 199.070312 32.464844 198.535156 32.59375 C 198.535156 32.59375 198.46875 33.054688 197.964844 32.996094 C 197.964844 32.996094 198.058594 33.417969 197.363281 33.367188 C 196.667969 33.320312 197.660156 33.375 197.617188 33.667969 C 197.574219 33.964844 196.191406 33.636719 196.191406 33.367188 C 196.191406 33.101562 196.222656 32.886719 196.605469 32.835938 C 196.984375 32.785156 196.636719 32.671875 196.636719 32.570312 C 196.636719 32.46875 196.605469 32.054688 196.605469 32.054688 L 197.015625 32.085938 C 197.015625 32.085938 196.953125 32.671875 197.113281 32.570312 C 197.265625 32.464844 197.28125 31.832031 197.773438 31.644531 Z M 197.773438 31.644531 " fill-opacity="1" fill-rule="nonzero"/><g mask="url(#cf5e98bfc0)"><g transform="matrix(1, 0, 0, 1, 188, 31)"><g clip-path="url(#a1e95e820b)"><g clip-path="url(#21ab368e4c)"><path fill="#123282" d="M 26.882812 8.808594 C 26.859375 8.851562 26.835938 8.894531 26.8125 8.9375 C 26.753906 9.046875 26.699219 9.152344 26.632812 9.261719 C 25.761719 10.78125 24.402344 12.355469 22.347656 13.722656 C 18.28125 16.4375 14.121094 18.773438 14.121094 18.773438 L 7.328125 14.566406 C 7.058594 14.398438 6.792969 14.226562 6.527344 14.039062 C 6.199219 13.808594 5.875 13.566406 5.5625 13.3125 C 4.402344 12.371094 3.375 11.273438 2.53125 10.035156 C 1.839844 9.023438 1.214844 7.847656 0.875 6.589844 C 1.097656 6.996094 1.339844 7.382812 1.59375 7.75 C 2.671875 9.328125 4.039062 10.675781 5.605469 11.765625 C 5.863281 11.949219 6.125 12.121094 6.394531 12.285156 L 7.53125 12.988281 L 13.1875 16.492188 C 13.1875 16.492188 15.667969 15.09375 18.675781 13.210938 C 19.070312 12.964844 19.472656 12.707031 19.875 12.445312 C 20.257812 12.203125 20.640625 11.953125 21.027344 11.699219 C 21.15625 11.613281 21.285156 11.527344 21.414062 11.441406 C 21.496094 11.386719 21.574219 11.332031 21.652344 11.277344 C 21.65625 11.277344 21.65625 11.277344 21.660156 11.273438 C 21.71875 11.230469 21.777344 11.191406 21.839844 11.148438 C 22.976562 10.335938 23.882812 9.460938 24.601562 8.574219 C 24.75 8.390625 24.890625 8.207031 25.019531 8.027344 C 25.214844 7.757812 25.398438 7.480469 25.5625 7.210938 C 26.90625 4.988281 27.195312 2.84375 27.054688 1.570312 C 27.023438 1.246094 26.945312 0.855469 26.828125 0.425781 C 27.539062 1.703125 27.898438 3.003906 27.996094 3.855469 C 28.117188 4.992188 27.898438 6.832031 26.882812 8.808594 Z M 26.882812 8.808594 " fill-opacity="1" fill-rule="nonzero"/></g></g></g></g><g transform="matrix(1, 0, 0, 1, 120, 103)"><g clip-path="url(#a273471078)"><g fill="#123282" fill-opacity="1"><g transform="translate(0.892454, 9.092383)"><g><path d="M 0.65625 -4.609375 L 0.25 -5.3125 L 0.859375 -5.65625 L 0.25 -6.015625 L 0.640625 -6.6875 L 1.25 -6.328125 L 1.25 -7.0625 L 2.078125 -7.0625 L 2.078125 -6.328125 L 2.703125 -6.6875 L 3.09375 -6 L 2.453125 -5.640625 L 3.078125 -5.28125 L 2.65625 -4.578125 L 2.046875 -4.9375 L 2.046875 -4.265625 L 1.25 -4.265625 L 1.25 -4.953125 Z M 0.65625 -4.609375 "/></g></g></g><g fill="#123282" fill-opacity="1"><g transform="translate(8.493423, 9.092383)"><g><path d="M 2.359375 -7.21875 L 2.359375 -1.375 L 5.75 -1.375 L 5.75 0 L 0.9375 0 L 0.9375 -7.21875 Z M 2.359375 -7.21875 "/></g></g></g><g fill="#123282" fill-opacity="1"><g transform="translate(19.095548, 9.092383)"><g><path d="M 5.859375 -7.21875 L 5.859375 -5.84375 L 2.359375 -5.84375 L 2.359375 -4.3125 L 5.453125 -4.3125 L 5.453125 -2.9375 L 2.359375 -2.9375 L 2.359375 -1.375 L 6 -1.375 L 6 0 L 0.9375 0 L 0.9375 -7.21875 Z M 5.859375 -7.21875 "/></g></g></g><g fill="#123282" fill-opacity="1"><g transform="translate(29.942867, 9.092383)"><g><path d="M 4.5 -1.40625 L 2.109375 -1.40625 L 1.515625 0 L 0.125 0 L 3.375 -7.5 L 3.453125 -7.5 L 6.71875 0 L 5.0625 0 Z M 4.03125 -2.609375 L 3.34375 -4.359375 L 2.609375 -2.609375 Z M 4.03125 -2.609375 "/></g></g></g><g fill="#123282" fill-opacity="1"><g transform="translate(41.084429, 9.092383)"><g><path d="M 4.828125 0 L 3.3125 -2.296875 L 2.359375 -2.296875 L 2.359375 0 L 0.9375 0 L 0.9375 -7.21875 L 3.125 -7.21875 C 4.019531 -7.21875 4.710938 -7 5.203125 -6.5625 C 5.703125 -6.132812 5.953125 -5.539062 5.953125 -4.78125 C 5.953125 -4.34375 5.859375 -3.925781 5.671875 -3.53125 C 5.484375 -3.144531 5.195312 -2.84375 4.8125 -2.625 L 6.484375 0 Z M 2.359375 -3.671875 L 3.359375 -3.671875 C 3.742188 -3.671875 4.023438 -3.78125 4.203125 -4 C 4.378906 -4.226562 4.46875 -4.472656 4.46875 -4.734375 C 4.46875 -4.992188 4.390625 -5.242188 4.234375 -5.484375 C 4.085938 -5.722656 3.800781 -5.84375 3.375 -5.84375 L 2.359375 -5.84375 Z M 2.359375 -3.671875 "/></g></g></g><g fill="#123282" fill-opacity="1"><g transform="translate(52.127905, 9.092383)"><g><path d="M 7.4375 -7.21875 L 7.4375 0.296875 L 7.40625 0.296875 L 2.34375 -4.265625 L 2.375 0 L 0.9375 0 L 0.9375 -7.5 L 0.984375 -7.5 L 6.03125 -2.875 L 6 -7.21875 Z M 7.4375 -7.21875 "/></g></g></g><g fill="#123282" fill-opacity="1"><g transform="translate(64.809273, 9.092383)"><g/></g></g><g fill="#123282" fill-opacity="1"><g transform="translate(72.312156, 9.092383)"><g><path d="M 0.65625 -4.609375 L 0.25 -5.3125 L 0.859375 -5.65625 L 0.25 -6.015625 L 0.640625 -6.6875 L 1.25 -6.328125 L 1.25 -7.0625 L 2.078125 -7.0625 L 2.078125 -6.328125 L 2.703125 -6.6875 L 3.09375 -6 L 2.453125 -5.640625 L 3.078125 -5.28125 L 2.65625 -4.578125 L 2.046875 -4.9375 L 2.046875 -4.265625 L 1.25 -4.265625 L 1.25 -4.953125 Z M 0.65625 -4.609375 "/></g></g></g><g fill="#123282" fill-opacity="1"><g transform="translate(79.913125, 9.092383)"><g/></g></g><g fill="#123282" fill-opacity="1"><g transform="translate(87.416009, 9.092383)"><g><path d="M 4.78125 -5.46875 C 4.15625 -5.820312 3.613281 -6 3.15625 -6 C 2.832031 -6 2.582031 -5.9375 2.40625 -5.8125 C 2.238281 -5.6875 2.15625 -5.5 2.15625 -5.25 C 2.15625 -5.019531 2.28125 -4.816406 2.53125 -4.640625 C 2.789062 -4.472656 3.128906 -4.3125 3.546875 -4.15625 C 3.878906 -4.03125 4.164062 -3.882812 4.40625 -3.71875 C 4.65625 -3.5625 4.859375 -3.34375 5.015625 -3.0625 C 5.179688 -2.78125 5.265625 -2.421875 5.265625 -1.984375 C 5.265625 -1.617188 5.164062 -1.273438 4.96875 -0.953125 C 4.78125 -0.640625 4.5 -0.390625 4.125 -0.203125 C 3.75 -0.015625 3.300781 0.078125 2.78125 0.078125 C 2.351562 0.078125 1.925781 0.015625 1.5 -0.109375 C 1.070312 -0.234375 0.675781 -0.429688 0.3125 -0.703125 L 0.9375 -1.8125 C 1.1875 -1.625 1.472656 -1.46875 1.796875 -1.34375 C 2.117188 -1.226562 2.40625 -1.171875 2.65625 -1.171875 C 2.957031 -1.171875 3.21875 -1.234375 3.4375 -1.359375 C 3.664062 -1.492188 3.78125 -1.703125 3.78125 -1.984375 C 3.78125 -2.359375 3.429688 -2.6875 2.734375 -2.96875 C 2.316406 -3.125 1.96875 -3.273438 1.6875 -3.421875 C 1.414062 -3.578125 1.179688 -3.796875 0.984375 -4.078125 C 0.785156 -4.359375 0.6875 -4.710938 0.6875 -5.140625 C 0.6875 -5.765625 0.890625 -6.265625 1.296875 -6.640625 C 1.703125 -7.023438 2.25 -7.234375 2.9375 -7.265625 C 3.46875 -7.265625 3.910156 -7.203125 4.265625 -7.078125 C 4.628906 -6.953125 4.984375 -6.78125 5.328125 -6.5625 Z M 4.78125 -5.46875 "/></g></g></g><g fill="#123282" fill-opacity="1"><g transform="translate(97.44929, 9.092383)"><g><path d="M 5.859375 -7.21875 L 5.859375 -5.84375 L 2.359375 -5.84375 L 2.359375 -4.3125 L 5.453125 -4.3125 L 5.453125 -2.9375 L 2.359375 -2.9375 L 2.359375 -1.375 L 6 -1.375 L 6 0 L 0.9375 0 L 0.9375 -7.21875 Z M 5.859375 -7.21875 "/></g></g></g><g fill="#123282" fill-opacity="1"><g transform="translate(108.296609, 9.092383)"><g><path d="M 4.828125 0 L 3.3125 -2.296875 L 2.359375 -2.296875 L 2.359375 0 L 0.9375 0 L 0.9375 -7.21875 L 3.125 -7.21875 C 4.019531 -7.21875 4.710938 -7 5.203125 -6.5625 C 5.703125 -6.132812 5.953125 -5.539062 5.953125 -4.78125 C 5.953125 -4.34375 5.859375 -3.925781 5.671875 -3.53125 C 5.484375 -3.144531 5.195312 -2.84375 4.8125 -2.625 L 6.484375 0 Z M 2.359375 -3.671875 L 3.359375 -3.671875 C 3.742188 -3.671875 4.023438 -3.78125 4.203125 -4 C 4.378906 -4.226562 4.46875 -4.472656 4.46875 -4.734375 C 4.46875 -4.992188 4.390625 -5.242188 4.234375 -5.484375 C 4.085938 -5.722656 3.800781 -5.84375 3.375 -5.84375 L 2.359375 -5.84375 Z M 2.359375 -3.671875 "/></g></g></g><g fill="#123282" fill-opacity="1"><g transform="translate(119.340085, 9.092383)"><g><path d="M 6.90625 -7.21875 L 3.609375 0.328125 L 0.3125 -7.21875 L 2.015625 -7.21875 L 3.671875 -3.15625 L 5.21875 -7.21875 Z M 6.90625 -7.21875 "/></g></g></g><g fill="#123282" fill-opacity="1"><g transform="translate(130.87395, 9.092383)"><g><path d="M 5.859375 -7.21875 L 5.859375 -5.84375 L 2.359375 -5.84375 L 2.359375 -4.3125 L 5.453125 -4.3125 L 5.453125 -2.9375 L 2.359375 -2.9375 L 2.359375 -1.375 L 6 -1.375 L 6 0 L 0.9375 0 L 0.9375 -7.21875 Z M 5.859375 -7.21875 "/></g></g></g><g fill="#123282" fill-opacity="1"><g transform="translate(141.721269, 9.092383)"><g/></g></g><g fill="#123282" fill-opacity="1"><g transform="translate(149.224153, 9.092383)"><g><path d="M 0.65625 -4.609375 L 0.25 -5.3125 L 0.859375 -5.65625 L 0.25 -6.015625 L 0.640625 -6.6875 L 1.25 -6.328125 L 1.25 -7.0625 L 2.078125 -7.0625 L 2.078125 -6.328125 L 2.703125 -6.6875 L 3.09375 -6 L 2.453125 -5.640625 L 3.078125 -5.28125 L 2.65625 -4.578125 L 2.046875 -4.9375 L 2.046875 -4.265625 L 1.25 -4.265625 L 1.25 -4.953125 Z M 0.65625 -4.609375 "/></g></g></g><g fill="#123282" fill-opacity="1"><g transform="translate(156.825121, 9.092383)"><g/></g></g><g fill="#123282" fill-opacity="1"><g transform="translate(164.328005, 9.092383)"><g><path d="M 6.796875 -0.71875 C 6.679688 -0.601562 6.476562 -0.484375 6.1875 -0.359375 C 5.90625 -0.234375 5.59375 -0.128906 5.25 -0.046875 C 4.90625 0.0351562 4.59375 0.078125 4.3125 0.078125 C 3.550781 0.078125 2.878906 -0.0664062 2.296875 -0.359375 C 1.722656 -0.660156 1.273438 -1.070312 0.953125 -1.59375 C 0.640625 -2.125 0.484375 -2.726562 0.484375 -3.40625 C 0.484375 -4.25 0.648438 -4.960938 0.984375 -5.546875 C 1.316406 -6.128906 1.765625 -6.566406 2.328125 -6.859375 C 2.890625 -7.148438 3.515625 -7.296875 4.203125 -7.296875 C 4.640625 -7.296875 5.050781 -7.242188 5.4375 -7.140625 C 5.820312 -7.046875 6.160156 -6.921875 6.453125 -6.765625 L 6 -5.453125 C 5.800781 -5.554688 5.535156 -5.648438 5.203125 -5.734375 C 4.878906 -5.828125 4.609375 -5.875 4.390625 -5.875 C 3.597656 -5.875 2.992188 -5.675781 2.578125 -5.28125 C 2.171875 -4.882812 1.96875 -4.300781 1.96875 -3.53125 C 1.96875 -3.082031 2.066406 -2.691406 2.265625 -2.359375 C 2.472656 -2.035156 2.753906 -1.785156 3.109375 -1.609375 C 3.472656 -1.429688 3.890625 -1.34375 4.359375 -1.34375 C 4.804688 -1.34375 5.132812 -1.40625 5.34375 -1.53125 L 5.34375 -2.40625 L 4.109375 -2.40625 L 4.109375 -3.78125 L 6.796875 -3.78125 Z M 6.796875 -0.71875 "/></g></g></g><g fill="#123282" fill-opacity="1"><g transform="translate(176.116867, 9.092383)"><g><path d="M 4.828125 0 L 3.3125 -2.296875 L 2.359375 -2.296875 L 2.359375 0 L 0.9375 0 L 0.9375 -7.21875 L 3.125 -7.21875 C 4.019531 -7.21875 4.710938 -7 5.203125 -6.5625 C 5.703125 -6.132812 5.953125 -5.539062 5.953125 -4.78125 C 5.953125 -4.34375 5.859375 -3.925781 5.671875 -3.53125 C 5.484375 -3.144531 5.195312 -2.84375 4.8125 -2.625 L 6.484375 0 Z M 2.359375 -3.671875 L 3.359375 -3.671875 C 3.742188 -3.671875 4.023438 -3.78125 4.203125 -4 C 4.378906 -4.226562 4.46875 -4.472656 4.46875 -4.734375 C 4.46875 -4.992188 4.390625 -5.242188 4.234375 -5.484375 C 4.085938 -5.722656 3.800781 -5.84375 3.375 -5.84375 L 2.359375 -5.84375 Z M 2.359375 -3.671875 "/></g></g></g><g fill="#123282" fill-opacity="1"><g transform="translate(187.160343, 9.092383)"><g><path d="M 0.484375 -3.59375 C 0.484375 -4.25 0.648438 -4.863281 0.984375 -5.4375 C 1.316406 -6.007812 1.765625 -6.460938 2.328125 -6.796875 C 2.890625 -7.128906 3.503906 -7.296875 4.171875 -7.296875 C 4.828125 -7.296875 5.4375 -7.128906 6 -6.796875 C 6.570312 -6.460938 7.023438 -6.007812 7.359375 -5.4375 C 7.703125 -4.863281 7.875 -4.25 7.875 -3.59375 C 7.875 -2.925781 7.703125 -2.3125 7.359375 -1.75 C 7.023438 -1.1875 6.570312 -0.738281 6 -0.40625 C 5.4375 -0.0820312 4.828125 0.078125 4.171875 0.078125 C 3.503906 0.078125 2.890625 -0.0820312 2.328125 -0.40625 C 1.765625 -0.738281 1.316406 -1.1875 0.984375 -1.75 C 0.648438 -2.3125 0.484375 -2.925781 0.484375 -3.59375 Z M 1.96875 -3.59375 C 1.96875 -3.175781 2.066406 -2.789062 2.265625 -2.4375 C 2.460938 -2.082031 2.734375 -1.800781 3.078125 -1.59375 C 3.421875 -1.394531 3.800781 -1.296875 4.21875 -1.296875 C 4.625 -1.296875 4.992188 -1.394531 5.328125 -1.59375 C 5.660156 -1.800781 5.921875 -2.082031 6.109375 -2.4375 C 6.296875 -2.789062 6.390625 -3.175781 6.390625 -3.59375 C 6.390625 -4.03125 6.289062 -4.425781 6.09375 -4.78125 C 5.90625 -5.132812 5.640625 -5.410156 5.296875 -5.609375 C 4.960938 -5.816406 4.59375 -5.921875 4.1875 -5.921875 C 3.769531 -5.921875 3.390625 -5.816406 3.046875 -5.609375 C 2.710938 -5.410156 2.445312 -5.132812 2.25 -4.78125 C 2.0625 -4.425781 1.96875 -4.03125 1.96875 -3.59375 Z M 1.96875 -3.59375 "/></g></g></g><g fill="#123282" fill-opacity="1"><g transform="translate(199.831908, 9.092383)"><g><path d="M 6.9375 0.3125 L 5.21875 -3.96875 L 3.21875 0.328125 L 0.3125 -7.171875 L 1.984375 -7.171875 L 3.40625 -3 L 4.5 -5.75 L 3.9375 -7.171875 L 5.34375 -7.171875 L 6.96875 -3.15625 L 8.1875 -7.171875 L 9.71875 -7.171875 Z M 6.9375 0.3125 "/></g></g></g></g></g><g transform="matrix(1, 0, 0, 1, 18, 9)"><g clip-path="url(#8680cafb3b)"><g clip-path="url(#29a8af54dc)"><g fill="#123282" fill-opacity="1"><g transform="translate(0.392734, 8.386932)"><g><path d="M 5.296875 -7.203125 L 5.296875 -5.84375 L 3.546875 -5.84375 L 3.546875 0 L 2.125 0 L 2.125 -5.84375 L 0.4375 -5.84375 L 0.4375 -7.203125 Z M 5.296875 -7.203125 "/></g></g></g></g><g fill="#123282" fill-opacity="1"><g transform="translate(10.449389, 8.386932)"><g><path d="M 7 0 L 5.578125 0 L 5.578125 -2.921875 L 2.34375 -2.921875 L 2.34375 0 L 0.9375 0 L 0.9375 -7.203125 L 2.34375 -7.203125 L 2.34375 -4.296875 L 5.578125 -4.296875 L 5.578125 -7.203125 L 7 -7.203125 Z M 7 0 "/></g></g></g><g fill="#123282" fill-opacity="1"><g transform="translate(22.690854, 8.386932)"><g><path d="M 5.84375 -7.203125 L 5.84375 -5.84375 L 2.34375 -5.84375 L 2.34375 -4.296875 L 5.453125 -4.296875 L 5.453125 -2.921875 L 2.34375 -2.921875 L 2.34375 -1.375 L 5.984375 -1.375 L 5.984375 0 L 0.9375 0 L 0.9375 -7.203125 Z M 5.84375 -7.203125 "/></g></g></g></g></g></svg>