<svg xmlns="http://www.w3.org/2000/svg" xmlns:xlink="http://www.w3.org/1999/xlink" width="382" zoomAndPan="magnify" viewBox="0 0 286.5 123.750003" height="165" preserveAspectRatio="xMidYMid meet" version="1.0"><defs><filter x="0%" y="0%" width="100%" height="100%" id="159b790c30"><feColorMatrix values="0 0 0 0 1 0 0 0 0 1 0 0 0 0 1 0 0 0 1 0" color-interpolation-filters="sRGB"/></filter><g/><clipPath id="4608948d7e"><path d="M 189.875 10.222656 L 247 10.222656 L 247 31 L 189.875 31 Z M 189.875 10.222656 " clip-rule="nonzero"/></clipPath><mask id="3513a49544"><g filter="url(#159b790c30)"><rect x="-28.65" width="343.8" fill="#000000" y="-12.375" height="148.500004" fill-opacity="0.1"/></g></mask><clipPath id="7fde0b4f5c"><path d="M 0.410156 1 L 13.585938 1 L 13.585938 7.671875 L 0.410156 7.671875 Z M 0.410156 1 " clip-rule="nonzero"/></clipPath><clipPath id="fd486130f2"><rect x="0" width="14" y="0" height="8"/></clipPath><mask id="68cc6e8927"><g filter="url(#159b790c30)"><rect x="-28.65" width="343.8" fill="#000000" y="-12.375" height="148.500004" fill-opacity="0.1"/></g></mask><clipPath id="ba55aaafb0"><path d="M 1 1 L 14.441406 1 L 14.441406 4.203125 L 1 4.203125 Z M 1 1 " clip-rule="nonzero"/></clipPath><clipPath id="bacea3e49f"><rect x="0" width="15" y="0" height="5"/></clipPath><mask id="6ec40e4f46"><g filter="url(#159b790c30)"><rect x="-28.65" width="343.8" fill="#000000" y="-12.375" height="148.500004" fill-opacity="0.1"/></g></mask><clipPath id="8a4409a1e8"><path d="M 0.652344 0.0351562 L 14 0.0351562 L 14 6 L 0.652344 6 Z M 0.652344 0.0351562 " clip-rule="nonzero"/></clipPath><clipPath id="5483d8f6f7"><rect x="0" width="15" y="0" height="7"/></clipPath><mask id="7eb2362ddd"><g filter="url(#159b790c30)"><rect x="-28.65" width="343.8" fill="#000000" y="-12.375" height="148.500004" fill-opacity="0.1"/></g></mask><clipPath id="98b6f558c6"><path d="M 0.0898438 0.191406 L 10.628906 0.191406 L 10.628906 5.222656 L 0.0898438 5.222656 Z M 0.0898438 0.191406 " clip-rule="nonzero"/></clipPath><clipPath id="f6f0e5c440"><rect x="0" width="11" y="0" height="6"/></clipPath><mask id="f65490b0c0"><g filter="url(#159b790c30)"><rect x="-28.65" width="343.8" fill="#000000" y="-12.375" height="148.500004" fill-opacity="0.1"/></g></mask><clipPath id="3770187ced"><path d="M 0.472656 0.503906 L 0.949219 0.503906 L 0.949219 1 L 0.472656 1 Z M 0.472656 0.503906 " clip-rule="nonzero"/></clipPath><clipPath id="9826261238"><rect x="0" width="1" y="0" height="2"/></clipPath><mask id="826c0105b8"><g filter="url(#159b790c30)"><rect x="-28.65" width="343.8" fill="#000000" y="-12.375" height="148.500004" fill-opacity="0.1"/></g></mask><clipPath id="d67b254232"><path d="M 0.453125 0.234375 L 51.472656 0.234375 L 51.472656 8 L 0.453125 8 Z M 0.453125 0.234375 " clip-rule="nonzero"/></clipPath><clipPath id="b514091e68"><rect x="0" width="52" y="0" height="9"/></clipPath><mask id="ee212c4d9e"><g filter="url(#159b790c30)"><rect x="-28.65" width="343.8" fill="#000000" y="-12.375" height="148.500004" fill-opacity="0.1"/></g></mask><clipPath id="87731c9d3c"><path d="M 0.472656 0.222656 L 0.949219 0.222656 L 0.949219 0.699219 L 0.472656 0.699219 Z M 0.472656 0.222656 " clip-rule="nonzero"/></clipPath><clipPath id="7c14fc89a1"><rect x="0" width="1" y="0" height="1"/></clipPath><mask id="4fccda83c8"><g filter="url(#159b790c30)"><rect x="-28.65" width="343.8" fill="#000000" y="-12.375" height="148.500004" fill-opacity="0.1"/></g></mask><clipPath id="ddd5c6de64"><path d="M 1 1 L 11.269531 1 L 11.269531 9.824219 L 1 9.824219 Z M 1 1 " clip-rule="nonzero"/></clipPath><clipPath id="e7630241ea"><rect x="0" width="12" y="0" height="10"/></clipPath><mask id="fc83cac597"><g filter="url(#159b790c30)"><rect x="-28.65" width="343.8" fill="#000000" y="-12.375" height="148.500004" fill-opacity="0.1"/></g></mask><clipPath id="b2ffabb310"><path d="M 1 1 L 7 1 L 7 10.222656 L 1 10.222656 Z M 1 1 " clip-rule="nonzero"/></clipPath><clipPath id="4aab5f36dd"><rect x="0" width="8" y="0" height="11"/></clipPath><clipPath id="6086198593"><path d="M 209 35 L 265.472656 35 L 265.472656 56.628906 L 209 56.628906 Z M 209 35 " clip-rule="nonzero"/></clipPath><mask id="56287cd4e9"><g filter="url(#159b790c30)"><rect x="-28.65" width="343.8" fill="#000000" y="-12.375" height="148.500004" fill-opacity="0.1"/></g></mask><clipPath id="6afd0bee36"><path d="M 0.773438 0 L 13.464844 0 L 13.464844 6.945312 L 0.773438 6.945312 Z M 0.773438 0 " clip-rule="nonzero"/></clipPath><clipPath id="c807b6d779"><rect x="0" width="14" y="0" height="7"/></clipPath><mask id="74c3f5a608"><g filter="url(#159b790c30)"><rect x="-28.65" width="343.8" fill="#000000" y="-12.375" height="148.500004" fill-opacity="0.1"/></g></mask><clipPath id="e647c8124e"><path d="M 0.4375 0.183594 L 14 0.183594 L 14 3 L 0.4375 3 Z M 0.4375 0.183594 " clip-rule="nonzero"/></clipPath><clipPath id="0bcda4966d"><rect x="0" width="15" y="0" height="4"/></clipPath><mask id="cdafba21b6"><g filter="url(#159b790c30)"><rect x="-28.65" width="343.8" fill="#000000" y="-12.375" height="148.500004" fill-opacity="0.1"/></g></mask><clipPath id="805f0f6f9c"><path d="M 0.292969 0.644531 L 13.464844 0.644531 L 13.464844 7 L 0.292969 7 Z M 0.292969 0.644531 " clip-rule="nonzero"/></clipPath><clipPath id="0eb7e2c110"><rect x="0" width="14" y="0" height="8"/></clipPath><mask id="a3fa95ff86"><g filter="url(#159b790c30)"><rect x="-28.65" width="343.8" fill="#000000" y="-12.375" height="148.500004" fill-opacity="0.1"/></g></mask><clipPath id="6f2292ae9f"><path d="M 1 0.207031 L 11.269531 0.207031 L 11.269531 5.957031 L 1 5.957031 Z M 1 0.207031 " clip-rule="nonzero"/></clipPath><clipPath id="5d272ff5e2"><rect x="0" width="12" y="0" height="6"/></clipPath><mask id="56b6a8cd00"><g filter="url(#159b790c30)"><rect x="-28.65" width="343.8" fill="#000000" y="-12.375" height="148.500004" fill-opacity="0.1"/></g></mask><clipPath id="92c8a00d9a"><path d="M 0.40625 0.449219 L 1 0.449219 L 1 1 L 0.40625 1 Z M 0.40625 0.449219 " clip-rule="nonzero"/></clipPath><clipPath id="ea4b581671"><rect x="0" width="2" y="0" height="2"/></clipPath><clipPath id="be3a695b8a"><path d="M 214 34 L 265.472656 34 L 265.472656 44 L 214 44 Z M 214 34 " clip-rule="nonzero"/></clipPath><mask id="82d953fb04"><g filter="url(#159b790c30)"><rect x="-28.65" width="343.8" fill="#000000" y="-12.375" height="148.500004" fill-opacity="0.1"/></g></mask><clipPath id="11e55ed2a3"><path d="M 1 1 L 51.472656 1 L 51.472656 9.59375 L 1 9.59375 Z M 1 1 " clip-rule="nonzero"/></clipPath><clipPath id="c11aca25bb"><rect x="0" width="52" y="0" height="10"/></clipPath><mask id="2be51e673b"><g filter="url(#159b790c30)"><rect x="-28.65" width="343.8" fill="#000000" y="-12.375" height="148.500004" fill-opacity="0.1"/></g></mask><clipPath id="fc12853af7"><path d="M 0.40625 1 L 1 1 L 1 1.449219 L 0.40625 1.449219 Z M 0.40625 1 " clip-rule="nonzero"/></clipPath><clipPath id="036ab1bbac"><rect x="0" width="2" y="0" height="2"/></clipPath><mask id="4e970a6abd"><g filter="url(#159b790c30)"><rect x="-28.65" width="343.8" fill="#000000" y="-12.375" height="148.500004" fill-opacity="0.1"/></g></mask><clipPath id="e3fcf12226"><path d="M 0.609375 0.0429688 L 11 0.0429688 L 11 8.664062 L 0.609375 8.664062 Z M 0.609375 0.0429688 " clip-rule="nonzero"/></clipPath><clipPath id="b784d0850d"><rect x="0" width="12" y="0" height="9"/></clipPath><mask id="a5e40d9968"><g filter="url(#159b790c30)"><rect x="-28.65" width="343.8" fill="#000000" y="-12.375" height="148.500004" fill-opacity="0.1"/></g></mask><clipPath id="516e752db9"><path d="M 1 0.167969 L 7.128906 0.167969 L 7.128906 9.269531 L 1 9.269531 Z M 1 0.167969 " clip-rule="nonzero"/></clipPath><clipPath id="e6feab97ba"><rect x="0" width="8" y="0" height="10"/></clipPath><mask id="3de1da7405"><g filter="url(#159b790c30)"><rect x="-28.65" width="343.8" fill="#000000" y="-12.375" height="148.500004" fill-opacity="0.1"/></g></mask><clipPath id="fd1969775c"><path d="M 0.40625 0.585938 L 30 0.585938 L 30 20.945312 L 0.40625 20.945312 Z M 0.40625 0.585938 " clip-rule="nonzero"/></clipPath><clipPath id="e8dca2c233"><rect x="0" width="31" y="0" height="21"/></clipPath><clipPath id="ce68962f22"><path d="M 0.242188 1 L 6 1 L 6 9 L 0.242188 9 Z M 0.242188 1 " clip-rule="nonzero"/></clipPath><clipPath id="c71b52fdf7"><rect x="0" width="34" y="0" height="12"/></clipPath></defs><g fill="#ffffff" fill-opacity="1"><g transform="translate(13.962523, 51.45562)"><g><path d="M 21.171875 -28.078125 L 21.171875 -22.734375 L 9.15625 -22.734375 L 9.15625 -16.359375 L 19.5625 -16.359375 L 19.5625 -11.015625 L 9.15625 -11.015625 L 9.15625 0 L 3.625 0 L 3.625 -28.078125 Z M 21.171875 -28.078125 "/></g></g></g><g fill="#ffffff" fill-opacity="1"><g transform="translate(39.019508, 51.45562)"><g><path d="M 8.578125 -10.375 C 8.578125 -9.488281 8.84375 -8.632812 9.375 -7.8125 C 9.914062 -7 10.628906 -6.335938 11.515625 -5.828125 C 12.410156 -5.328125 13.363281 -5.078125 14.375 -5.078125 C 15.46875 -5.078125 16.472656 -5.328125 17.390625 -5.828125 C 18.304688 -6.335938 19.023438 -7 19.546875 -7.8125 C 20.066406 -8.632812 20.328125 -9.488281 20.328125 -10.375 L 20.328125 -28.078125 L 25.78125 -28.078125 L 25.78125 -10.265625 C 25.78125 -8.253906 25.269531 -6.441406 24.25 -4.828125 C 23.238281 -3.210938 21.859375 -1.953125 20.109375 -1.046875 C 18.367188 -0.140625 16.457031 0.3125 14.375 0.3125 C 12.289062 0.3125 10.382812 -0.140625 8.65625 -1.046875 C 6.925781 -1.953125 5.554688 -3.210938 4.546875 -4.828125 C 3.546875 -6.441406 3.046875 -8.253906 3.046875 -10.265625 L 3.046875 -28.078125 L 8.578125 -28.078125 Z M 8.578125 -10.375 "/></g></g></g><g fill="#ffffff" fill-opacity="1"><g transform="translate(70.025998, 51.45562)"><g><path d="M 20.640625 -28.078125 L 20.640625 -22.734375 L 13.8125 -22.734375 L 13.8125 0 L 8.28125 0 L 8.28125 -22.734375 L 1.71875 -22.734375 L 1.71875 -28.078125 Z M 20.640625 -28.078125 "/></g></g></g><g fill="#ffffff" fill-opacity="1"><g transform="translate(94.549062, 51.45562)"><g><path d="M 8.578125 -10.375 C 8.578125 -9.488281 8.84375 -8.632812 9.375 -7.8125 C 9.914062 -7 10.628906 -6.335938 11.515625 -5.828125 C 12.410156 -5.328125 13.363281 -5.078125 14.375 -5.078125 C 15.46875 -5.078125 16.472656 -5.328125 17.390625 -5.828125 C 18.304688 -6.335938 19.023438 -7 19.546875 -7.8125 C 20.066406 -8.632812 20.328125 -9.488281 20.328125 -10.375 L 20.328125 -28.078125 L 25.78125 -28.078125 L 25.78125 -10.265625 C 25.78125 -8.253906 25.269531 -6.441406 24.25 -4.828125 C 23.238281 -3.210938 21.859375 -1.953125 20.109375 -1.046875 C 18.367188 -0.140625 16.457031 0.3125 14.375 0.3125 C 12.289062 0.3125 10.382812 -0.140625 8.65625 -1.046875 C 6.925781 -1.953125 5.554688 -3.210938 4.546875 -4.828125 C 3.546875 -6.441406 3.046875 -8.253906 3.046875 -10.265625 L 3.046875 -28.078125 L 8.578125 -28.078125 Z M 8.578125 -10.375 "/></g></g></g><g fill="#ffffff" fill-opacity="1"><g transform="translate(125.555552, 51.45562)"><g><path d="M 18.765625 0 L 12.859375 -8.921875 L 9.15625 -8.921875 L 9.15625 0 L 3.625 0 L 3.625 -28.078125 L 12.125 -28.078125 C 15.613281 -28.078125 18.316406 -27.226562 20.234375 -25.53125 C 22.148438 -23.84375 23.109375 -21.535156 23.109375 -18.609375 C 23.109375 -16.878906 22.742188 -15.257812 22.015625 -13.75 C 21.296875 -12.238281 20.1875 -11.050781 18.6875 -10.1875 L 25.203125 0 Z M 9.15625 -14.265625 L 13.078125 -14.265625 C 14.578125 -14.265625 15.671875 -14.703125 16.359375 -15.578125 C 17.046875 -16.453125 17.390625 -17.398438 17.390625 -18.421875 C 17.390625 -19.441406 17.097656 -20.414062 16.515625 -21.34375 C 15.929688 -22.269531 14.800781 -22.734375 13.125 -22.734375 L 9.15625 -22.734375 Z M 9.15625 -14.265625 "/></g></g></g><g fill="#ffffff" fill-opacity="1"><g transform="translate(153.892391, 51.45562)"><g><path d="M 22.765625 -28.078125 L 22.765625 -22.734375 L 9.15625 -22.734375 L 9.15625 -16.75 L 21.203125 -16.75 L 21.203125 -11.40625 L 9.15625 -11.40625 L 9.15625 -5.34375 L 23.296875 -5.34375 L 23.296875 0 L 3.625 0 L 3.625 -28.078125 Z M 22.765625 -28.078125 "/></g></g></g><g fill="#ffffff" fill-opacity="1"><g transform="translate(13.962523, 88.880015)"><g><path d="M 21.171875 -28.078125 L 21.171875 -22.734375 L 9.15625 -22.734375 L 9.15625 -16.359375 L 19.5625 -16.359375 L 19.5625 -11.015625 L 9.15625 -11.015625 L 9.15625 0 L 3.625 0 L 3.625 -28.078125 Z M 21.171875 -28.078125 "/></g></g></g><g fill="#ffffff" fill-opacity="1"><g transform="translate(34.937921, 88.880015)"><g><path d="M 1.90625 -14 C 1.90625 -16.539062 2.546875 -18.914062 3.828125 -21.125 C 5.117188 -23.34375 6.863281 -25.101562 9.0625 -26.40625 C 11.257812 -27.71875 13.640625 -28.375 16.203125 -28.375 C 18.773438 -28.375 21.160156 -27.71875 23.359375 -26.40625 C 25.554688 -25.101562 27.3125 -23.34375 28.625 -21.125 C 29.9375 -18.914062 30.59375 -16.539062 30.59375 -14 C 30.59375 -11.40625 29.9375 -9.015625 28.625 -6.828125 C 27.3125 -4.640625 25.554688 -2.898438 23.359375 -1.609375 C 21.160156 -0.328125 18.773438 0.3125 16.203125 0.3125 C 13.609375 0.3125 11.21875 -0.328125 9.03125 -1.609375 C 6.851562 -2.898438 5.117188 -4.640625 3.828125 -6.828125 C 2.546875 -9.015625 1.90625 -11.40625 1.90625 -14 Z M 7.625 -14 C 7.625 -12.375 8.007812 -10.875 8.78125 -9.5 C 9.5625 -8.125 10.617188 -7.035156 11.953125 -6.234375 C 13.285156 -5.429688 14.769531 -5.03125 16.40625 -5.03125 C 17.976562 -5.03125 19.410156 -5.429688 20.703125 -6.234375 C 22.003906 -7.035156 23.023438 -8.113281 23.765625 -9.46875 C 24.503906 -10.832031 24.875 -12.34375 24.875 -14 C 24.875 -15.675781 24.488281 -17.203125 23.71875 -18.578125 C 22.957031 -19.953125 21.921875 -21.035156 20.609375 -21.828125 C 19.304688 -22.628906 17.851562 -23.03125 16.25 -23.03125 C 14.644531 -23.03125 13.1875 -22.628906 11.875 -21.828125 C 10.570312 -21.035156 9.535156 -19.953125 8.765625 -18.578125 C 8.003906 -17.203125 7.625 -15.675781 7.625 -14 Z M 7.625 -14 "/></g></g></g><g fill="#ffffff" fill-opacity="1"><g transform="translate(65.52405, 88.880015)"><g><path d="M 8.578125 -10.375 C 8.578125 -9.488281 8.84375 -8.632812 9.375 -7.8125 C 9.914062 -7 10.628906 -6.335938 11.515625 -5.828125 C 12.410156 -5.328125 13.363281 -5.078125 14.375 -5.078125 C 15.46875 -5.078125 16.472656 -5.328125 17.390625 -5.828125 C 18.304688 -6.335938 19.023438 -7 19.546875 -7.8125 C 20.066406 -8.632812 20.328125 -9.488281 20.328125 -10.375 L 20.328125 -28.078125 L 25.78125 -28.078125 L 25.78125 -10.265625 C 25.78125 -8.253906 25.269531 -6.441406 24.25 -4.828125 C 23.238281 -3.210938 21.859375 -1.953125 20.109375 -1.046875 C 18.367188 -0.140625 16.457031 0.3125 14.375 0.3125 C 12.289062 0.3125 10.382812 -0.140625 8.65625 -1.046875 C 6.925781 -1.953125 5.554688 -3.210938 4.546875 -4.828125 C 3.546875 -6.441406 3.046875 -8.253906 3.046875 -10.265625 L 3.046875 -28.078125 L 8.578125 -28.078125 Z M 8.578125 -10.375 "/></g></g></g><g fill="#ffffff" fill-opacity="1"><g transform="translate(92.448953, 88.880015)"><g><path d="M 28.90625 -28.078125 L 28.90625 1.140625 L 28.765625 1.140625 L 9.109375 -16.59375 L 9.234375 0 L 3.625 0 L 3.625 -29.171875 L 3.859375 -29.171875 L 23.453125 -11.171875 L 23.34375 -28.078125 Z M 28.90625 -28.078125 "/></g></g></g><g fill="#ffffff" fill-opacity="1"><g transform="translate(123.073227, 88.880015)"><g><path d="M 3.625 -28.078125 L 12.015625 -28.078125 C 15.597656 -28.078125 18.546875 -27.382812 20.859375 -26 C 23.171875 -24.613281 24.851562 -22.816406 25.90625 -20.609375 C 26.96875 -18.410156 27.5 -16.054688 27.5 -13.546875 C 27.5 -10.847656 26.863281 -8.46875 25.59375 -6.40625 C 24.320312 -4.34375 22.609375 -2.757812 20.453125 -1.65625 C 18.304688 -0.550781 15.953125 0 13.390625 0 L 3.625 0 Z M 12.4375 -5.34375 C 15.3125 -5.34375 17.585938 -6.078125 19.265625 -7.546875 C 20.941406 -9.023438 21.78125 -11.148438 21.78125 -13.921875 C 21.78125 -16.160156 21.316406 -17.941406 20.390625 -19.265625 C 19.460938 -20.585938 18.378906 -21.5 17.140625 -22 C 15.910156 -22.507812 14.75 -22.765625 13.65625 -22.765625 L 9.15625 -22.765625 L 9.15625 -5.34375 Z M 12.4375 -5.34375 "/></g></g></g><g fill="#ffffff" fill-opacity="1"><g transform="translate(150.570198, 88.880015)"><g><path d="M 17.5 -5.5 L 8.203125 -5.5 L 5.90625 0 L 0.453125 0 L 13.125 -29.171875 L 13.421875 -29.171875 L 26.09375 0 L 19.6875 0 Z M 15.671875 -10.140625 L 12.96875 -16.96875 L 10.140625 -10.140625 Z M 15.671875 -10.140625 "/></g></g></g><g fill="#ffffff" fill-opacity="1"><g transform="translate(175.206832, 88.880015)"><g><path d="M 20.640625 -28.078125 L 20.640625 -22.734375 L 13.8125 -22.734375 L 13.8125 0 L 8.28125 0 L 8.28125 -22.734375 L 1.71875 -22.734375 L 1.71875 -28.078125 Z M 20.640625 -28.078125 "/></g></g></g><g fill="#ffffff" fill-opacity="1"><g transform="translate(195.648309, 88.880015)"><g><path d="M 9.15625 -28.078125 L 9.15625 0 L 3.625 0 L 3.625 -28.078125 Z M 9.15625 -28.078125 "/></g></g></g><g fill="#ffffff" fill-opacity="1"><g transform="translate(206.517201, 88.880015)"><g><path d="M 1.90625 -14 C 1.90625 -16.539062 2.546875 -18.914062 3.828125 -21.125 C 5.117188 -23.34375 6.863281 -25.101562 9.0625 -26.40625 C 11.257812 -27.71875 13.640625 -28.375 16.203125 -28.375 C 18.773438 -28.375 21.160156 -27.71875 23.359375 -26.40625 C 25.554688 -25.101562 27.3125 -23.34375 28.625 -21.125 C 29.9375 -18.914062 30.59375 -16.539062 30.59375 -14 C 30.59375 -11.40625 29.9375 -9.015625 28.625 -6.828125 C 27.3125 -4.640625 25.554688 -2.898438 23.359375 -1.609375 C 21.160156 -0.328125 18.773438 0.3125 16.203125 0.3125 C 13.609375 0.3125 11.21875 -0.328125 9.03125 -1.609375 C 6.851562 -2.898438 5.117188 -4.640625 3.828125 -6.828125 C 2.546875 -9.015625 1.90625 -11.40625 1.90625 -14 Z M 7.625 -14 C 7.625 -12.375 8.007812 -10.875 8.78125 -9.5 C 9.5625 -8.125 10.617188 -7.035156 11.953125 -6.234375 C 13.285156 -5.429688 14.769531 -5.03125 16.40625 -5.03125 C 17.976562 -5.03125 19.410156 -5.429688 20.703125 -6.234375 C 22.003906 -7.035156 23.023438 -8.113281 23.765625 -9.46875 C 24.503906 -10.832031 24.875 -12.34375 24.875 -14 C 24.875 -15.675781 24.488281 -17.203125 23.71875 -18.578125 C 22.957031 -19.953125 21.921875 -21.035156 20.609375 -21.828125 C 19.304688 -22.628906 17.851562 -23.03125 16.25 -23.03125 C 14.644531 -23.03125 13.1875 -22.628906 11.875 -21.828125 C 10.570312 -21.035156 9.535156 -19.953125 8.765625 -18.578125 C 8.003906 -17.203125 7.625 -15.675781 7.625 -14 Z M 7.625 -14 "/></g></g></g><g fill="#ffffff" fill-opacity="1"><g transform="translate(237.103329, 88.880015)"><g><path d="M 28.90625 -28.078125 L 28.90625 1.140625 L 28.765625 1.140625 L 9.109375 -16.59375 L 9.234375 0 L 3.625 0 L 3.625 -29.171875 L 3.859375 -29.171875 L 23.453125 -11.171875 L 23.34375 -28.078125 Z M 28.90625 -28.078125 "/></g></g></g><path stroke-linecap="butt" transform="matrix(0.748488, 0, 0, 0.748488, 18.335284, 102.424939)" fill="none" stroke-linejoin="miter" d="M 0.000872609 1.999947 L 75.929999 1.999947 " stroke="#fddd00" stroke-width="4" stroke-opacity="1" stroke-miterlimit="4"/><g clip-path="url(#4608948d7e)"><path fill="#ffffff" d="M 241.316406 28.972656 C 241.421875 28.855469 241.460938 28.765625 241.460938 28.765625 C 241.519531 28.785156 241.578125 28.804688 241.632812 28.820312 C 241.703125 28.84375 241.773438 28.863281 241.835938 28.878906 C 242.390625 29.035156 242.84375 29.085938 243.210938 29.066406 C 244.355469 29.003906 244.679688 28.265625 244.773438 27.84375 C 244.8125 27.675781 244.8125 27.5625 244.8125 27.5625 C 246.476562 26.789062 246.675781 26.296875 246.191406 25.503906 L 246.191406 25.5 C 245.855469 24.953125 245.199219 24.265625 244.476562 23.242188 C 244.34375 23.050781 244.203125 22.847656 244.066406 22.632812 C 242.171875 19.675781 236.5 15.351562 236.128906 15.066406 C 236.117188 15.058594 236.109375 15.050781 236.109375 15.050781 C 236.109375 15.050781 237.203125 13.675781 235.988281 12.410156 C 235.335938 11.730469 234.054688 11.835938 233.007812 12.089844 C 231.890625 12.351562 230.734375 12.390625 229.613281 12.152344 C 225.519531 11.296875 222.242188 12.210938 222.242188 12.210938 C 218.5 13.25 211.414062 17.835938 210.421875 17.882812 C 209.425781 17.925781 189.875 10.214844 189.875 10.214844 L 190.535156 24.605469 C 190.535156 24.605469 190.558594 24.609375 190.605469 24.625 C 191.894531 24.960938 210.054688 29.691406 211.308594 30.144531 C 214.726562 31.378906 216.625 30.003906 221.640625 30.378906 C 226.660156 30.753906 229.644531 28.558594 231.859375 28.152344 C 234.074219 27.742188 238.296875 29.292969 238.296875 29.292969 C 240.207031 29.878906 241.019531 29.308594 241.316406 28.972656 Z M 241.316406 28.972656 " fill-opacity="1" fill-rule="nonzero"/></g><g mask="url(#3513a49544)"><g transform="matrix(1, 0, 0, 1, 231, 17)"><g clip-path="url(#fd486130f2)"><g clip-path="url(#7fde0b4f5c)"><path fill="#ffffff" d="M 7.933594 4.859375 C 5.535156 1.644531 0.722656 1.25 0.722656 1.25 C 0.722656 1.25 3.34375 2.726562 4.40625 2.675781 C 4.40625 2.675781 6.285156 4.1875 7.261719 4.566406 C 7.261719 4.566406 9.703125 9.136719 12.992188 6.644531 C 13.261719 6.414062 13.320312 6.019531 13.125 5.722656 C 13.125 5.722656 12.84375 6.734375 12.261719 6.785156 C 11.683594 6.84375 9.960938 7.578125 7.933594 4.859375 Z M 7.933594 4.859375 " fill-opacity="1" fill-rule="nonzero"/></g></g></g></g><g mask="url(#68cc6e8927)"><g transform="matrix(1, 0, 0, 1, 222, 14)"><g clip-path="url(#bacea3e49f)"><g clip-path="url(#ba55aaafb0)"><path fill="#ffffff" d="M 14.125 1.066406 C 14.011719 1.558594 13.542969 1.839844 13.113281 2.113281 C 12.410156 2.566406 11.109375 3.328125 7.753906 3.09375 C 2.667969 2.738281 1.167969 3.945312 1.097656 4.007812 C 1.140625 3.9375 2.046875 2.589844 4.332031 2.691406 C 6.679688 2.796875 11.964844 3.007812 13.222656 1.648438 Z M 14.125 1.066406 " fill-opacity="1" fill-rule="nonzero"/></g></g></g></g><g mask="url(#6ec40e4f46)"><g transform="matrix(1, 0, 0, 1, 231, 22)"><g clip-path="url(#5483d8f6f7)"><g clip-path="url(#8a4409a1e8)"><path fill="#ffffff" d="M 13.804688 5.570312 C 13.84375 5.402344 13.027344 5.523438 13.027344 5.523438 C 10.65625 4.792969 9.117188 2.996094 9.117188 2.996094 L 5.527344 1.242188 C 2.984375 1.667969 1.019531 0.261719 0.910156 0.183594 C 2.402344 1.773438 5.242188 1.648438 5.242188 1.648438 C 5.242188 1.648438 7.324219 2.113281 8.410156 3.078125 C 9.496094 4.050781 11.804688 5.34375 12.773438 5.632812 C 13.019531 5.703125 13.347656 5.53125 13.804688 5.570312 Z M 13.804688 5.570312 " fill-opacity="1" fill-rule="nonzero"/></g></g></g></g><g mask="url(#7eb2362ddd)"><g transform="matrix(1, 0, 0, 1, 233, 24)"><g clip-path="url(#f6f0e5c440)"><g clip-path="url(#98b6f558c6)"><path fill="#ffffff" d="M 10.210938 5.066406 C 8.539062 4.652344 8.011719 4.25 8.011719 4.25 C 6.925781 3.554688 6.695312 3.351562 6.695312 3.351562 C 5.738281 3.398438 3.742188 1.574219 3.742188 1.574219 C 2.074219 1.136719 0.289062 0.300781 0.175781 0.25 C 0.828125 0.878906 3.648438 1.882812 3.648438 1.882812 C 4.53125 2.917969 6.304688 3.652344 6.679688 3.859375 C 7.054688 4.070312 8.464844 4.765625 8.464844 4.765625 C 9.191406 5.011719 9.761719 5.089844 10.210938 5.066406 Z M 10.210938 5.066406 " fill-opacity="1" fill-rule="nonzero"/></g></g></g></g><g mask="url(#f65490b0c0)"><g transform="matrix(1, 0, 0, 1, 241, 28)"><g clip-path="url(#9826261238)"><g clip-path="url(#3770187ced)"><path fill="#ffffff" d="M 0.632812 0.820312 C 0.703125 0.84375 0.773438 0.863281 0.835938 0.878906 C 0.820312 0.808594 0.757812 0.78125 0.632812 0.820312 Z M 0.632812 0.820312 " fill-opacity="1" fill-rule="nonzero"/></g></g></g></g><g mask="url(#826c0105b8)"><g transform="matrix(1, 0, 0, 1, 190, 23)"><g clip-path="url(#b514091e68)"><g clip-path="url(#d67b254232)"><path fill="#ffffff" d="M 48.292969 6.292969 C 50.207031 6.878906 51.023438 6.308594 51.316406 5.972656 C 51.316406 5.972656 51.316406 5.976562 51.3125 5.976562 C 49.792969 6.894531 47.960938 5.652344 47.960938 5.652344 C 44.285156 4.164062 40.914062 4.707031 40.914062 4.707031 C 38.722656 6.136719 35.265625 6.554688 33.628906 6.636719 C 31.988281 6.71875 30.90625 5.660156 26.835938 6.125 C 22.765625 6.585938 22.199219 5.953125 20.390625 5.472656 C 18.589844 4.996094 0.695312 0.519531 0.695312 0.519531 L 0.605469 1.625 C 1.890625 1.960938 20.050781 6.691406 21.308594 7.148438 C 24.726562 8.378906 26.625 7.007812 31.640625 7.382812 C 36.65625 7.753906 39.640625 5.5625 41.855469 5.152344 C 44.070312 4.742188 48.292969 6.292969 48.292969 6.292969 Z M 48.292969 6.292969 " fill-opacity="1" fill-rule="nonzero"/></g></g></g></g><g mask="url(#ee212c4d9e)"><g transform="matrix(1, 0, 0, 1, 241, 29)"><g clip-path="url(#7c14fc89a1)"><g clip-path="url(#87731c9d3c)"><path fill="#ffffff" d="M 0.667969 0.546875 C 0.734375 0.519531 0.800781 0.488281 0.863281 0.46875 C 0.855469 0.539062 0.792969 0.570312 0.667969 0.546875 Z M 0.667969 0.546875 " fill-opacity="1" fill-rule="nonzero"/></g></g></g></g><g mask="url(#4fccda83c8)"><g transform="matrix(1, 0, 0, 1, 212, 17)"><g clip-path="url(#e7630241ea)"><g clip-path="url(#ddd5c6de64)"><path fill="#ffffff" d="M 11.097656 1.003906 C 11.097656 1.003906 11.15625 6.234375 7.164062 7.480469 C 3.175781 8.730469 2.304688 10.054688 1.351562 9.671875 C 1.351562 9.671875 5.75 7.5625 7.136719 6.867188 C 8.523438 6.175781 10.148438 4.570312 11.097656 1.003906 Z M 11.097656 1.003906 " fill-opacity="1" fill-rule="nonzero"/></g></g></g></g><g mask="url(#fc83cac597)"><g transform="matrix(1, 0, 0, 1, 223, 19)"><g clip-path="url(#4aab5f36dd)"><g clip-path="url(#b2ffabb310)"><path fill="#ffffff" d="M 1.339844 10.003906 C 1.339844 10.003906 1.261719 6.363281 3.625 4.300781 C 5.984375 2.238281 6.179688 1.066406 6.953125 1.042969 C 6.953125 1.042969 4.570312 3.820312 3.828125 4.714844 C 3.085938 5.609375 1.75 7.34375 1.339844 10.003906 Z M 1.339844 10.003906 " fill-opacity="1" fill-rule="nonzero"/></g></g></g></g><g clip-path="url(#6086198593)"><path fill="#ffffff" d="M 215.128906 35.625 C 215.015625 35.738281 214.976562 35.828125 214.976562 35.828125 C 214.917969 35.804688 214.863281 35.78125 214.808594 35.765625 C 214.738281 35.738281 214.671875 35.714844 214.605469 35.695312 C 214.058594 35.511719 213.613281 35.441406 213.246094 35.445312 L 213.242188 35.445312 C 212.09375 35.453125 211.738281 36.179688 211.625 36.597656 C 211.578125 36.761719 211.574219 36.878906 211.574219 36.878906 C 209.875 37.574219 209.65625 38.054688 210.105469 38.871094 L 210.105469 38.875 C 210.414062 39.4375 211.039062 40.15625 211.714844 41.207031 C 211.839844 41.40625 211.96875 41.617188 212.09375 41.835938 C 213.851562 44.875 219.320312 49.457031 219.679688 49.757812 C 219.691406 49.765625 219.699219 49.773438 219.699219 49.773438 C 219.699219 49.773438 218.542969 51.097656 219.699219 52.417969 C 220.320312 53.125 221.605469 53.078125 222.664062 52.875 C 223.789062 52.660156 224.949219 52.679688 226.054688 52.964844 C 230.105469 54.007812 233.421875 53.242188 233.421875 53.242188 C 237.207031 52.375 244.496094 48.121094 245.488281 48.121094 C 246.480469 48.121094 265.660156 56.71875 265.660156 56.71875 L 265.660156 42.308594 C 265.660156 42.308594 265.636719 42.300781 265.585938 42.289062 C 264.316406 41.894531 246.394531 36.339844 245.160156 35.828125 C 241.800781 34.4375 239.84375 35.722656 234.851562 35.117188 C 229.855469 34.519531 226.773438 36.570312 224.542969 36.878906 C 222.3125 37.1875 218.164062 35.445312 218.164062 35.445312 C 216.28125 34.769531 215.441406 35.296875 215.128906 35.625 Z M 215.128906 35.625 " fill-opacity="1" fill-rule="nonzero"/></g><g mask="url(#56287cd4e9)"><g transform="matrix(1, 0, 0, 1, 211, 40)"><g clip-path="url(#c807b6d779)"><g clip-path="url(#6afd0bee36)"><path fill="#ffffff" d="M 6.1875 2.839844 C 8.433594 6.15625 13.226562 6.773438 13.226562 6.773438 C 13.226562 6.773438 10.671875 5.179688 9.609375 5.179688 C 9.609375 5.179688 7.804688 3.585938 6.847656 3.160156 C 6.847656 3.160156 4.613281 -1.515625 1.214844 0.820312 C 0.933594 1.039062 0.859375 1.433594 1.039062 1.738281 C 1.039062 1.738281 1.367188 0.742188 1.949219 0.714844 C 2.53125 0.6875 4.285156 0.03125 6.1875 2.839844 Z M 6.1875 2.839844 " fill-opacity="1" fill-rule="nonzero"/></g></g></g></g><g mask="url(#74c3f5a608)"><g transform="matrix(1, 0, 0, 1, 219, 47)"><g clip-path="url(#0bcda4966d)"><g clip-path="url(#e647c8124e)"><path fill="#ffffff" d="M 0.679688 2.753906 C 0.820312 2.265625 1.300781 2.003906 1.738281 1.75 C 2.464844 1.332031 3.796875 0.632812 7.136719 1.019531 C 12.199219 1.601562 13.757812 0.46875 13.832031 0.410156 C 13.785156 0.476562 12.816406 1.78125 10.539062 1.578125 C 8.199219 1.363281 2.929688 0.914062 1.609375 2.214844 Z M 0.679688 2.753906 " fill-opacity="1" fill-rule="nonzero"/></g></g></g></g><g mask="url(#cdafba21b6)"><g transform="matrix(1, 0, 0, 1, 211, 36)"><g clip-path="url(#0eb7e2c110)"><g clip-path="url(#805f0f6f9c)"><path fill="#ffffff" d="M 0.582031 0.867188 C 0.535156 1.03125 1.355469 0.945312 1.355469 0.945312 C 3.691406 1.785156 5.144531 3.648438 5.144531 3.648438 L 8.652344 5.5625 C 11.210938 5.253906 13.113281 6.75 13.21875 6.832031 C 11.796875 5.175781 8.957031 5.171875 8.957031 5.171875 C 8.957031 5.171875 6.898438 4.617188 5.855469 3.597656 C 4.816406 2.578125 2.566406 1.179688 1.613281 0.851562 C 1.371094 0.769531 1.035156 0.925781 0.582031 0.867188 Z M 0.582031 0.867188 " fill-opacity="1" fill-rule="nonzero"/></g></g></g></g><g mask="url(#a3fa95ff86)"><g transform="matrix(1, 0, 0, 1, 212, 35)"><g clip-path="url(#5d272ff5e2)"><g clip-path="url(#6f2292ae9f)"><path fill="#ffffff" d="M 1.246094 0.441406 C 2.894531 0.933594 3.402344 1.355469 3.402344 1.355469 C 4.460938 2.097656 4.679688 2.3125 4.679688 2.3125 C 5.632812 2.3125 7.546875 4.222656 7.546875 4.222656 C 9.195312 4.738281 10.9375 5.652344 11.050781 5.710938 C 10.425781 5.054688 7.660156 3.921875 7.660156 3.921875 C 6.820312 2.847656 5.082031 2.03125 4.722656 1.804688 C 4.355469 1.582031 2.980469 0.824219 2.980469 0.824219 C 2.257812 0.542969 1.691406 0.441406 1.246094 0.441406 Z M 1.246094 0.441406 " fill-opacity="1" fill-rule="nonzero"/></g></g></g></g><g mask="url(#56b6a8cd00)"><g transform="matrix(1, 0, 0, 1, 214, 35)"><g clip-path="url(#ea4b581671)"><g clip-path="url(#92c8a00d9a)"><path fill="#ffffff" d="M 0.808594 0.761719 C 0.738281 0.738281 0.671875 0.714844 0.605469 0.691406 C 0.617188 0.765625 0.679688 0.796875 0.808594 0.761719 Z M 0.808594 0.761719 " fill-opacity="1" fill-rule="nonzero"/></g></g></g></g><g clip-path="url(#be3a695b8a)"><g mask="url(#82d953fb04)"><g transform="matrix(1, 0, 0, 1, 214, 34)"><g clip-path="url(#c11aca25bb)"><g clip-path="url(#11e55ed2a3)"><path fill="#ffffff" d="M 4.164062 1.441406 C 2.28125 0.765625 1.441406 1.296875 1.128906 1.621094 C 1.128906 1.621094 1.128906 1.617188 1.132812 1.617188 C 2.691406 0.773438 4.464844 2.097656 4.464844 2.097656 C 8.070312 3.75 11.460938 3.363281 11.460938 3.363281 C 13.714844 2.03125 17.191406 1.773438 18.828125 1.769531 C 20.46875 1.761719 21.503906 2.871094 25.589844 2.59375 C 29.675781 2.316406 30.214844 2.976562 31.996094 3.535156 C 33.777344 4.09375 51.445312 9.382812 51.445312 9.382812 L 51.589844 8.285156 C 50.320312 7.890625 32.394531 2.335938 31.160156 1.820312 C 27.804688 0.433594 25.847656 1.714844 20.851562 1.113281 C 15.859375 0.511719 12.777344 2.566406 10.546875 2.875 C 8.3125 3.179688 4.164062 1.441406 4.164062 1.441406 Z M 4.164062 1.441406 " fill-opacity="1" fill-rule="nonzero"/></g></g></g></g></g><g mask="url(#2be51e673b)"><g transform="matrix(1, 0, 0, 1, 214, 34)"><g clip-path="url(#036ab1bbac)"><g clip-path="url(#fc12853af7)"><path fill="#ffffff" d="M 0.808594 1.035156 C 0.738281 1.058594 0.671875 1.082031 0.605469 1.101562 C 0.617188 1.035156 0.679688 1.003906 0.808594 1.035156 Z M 0.808594 1.035156 " fill-opacity="1" fill-rule="nonzero"/></g></g></g></g><g mask="url(#4e970a6abd)"><g transform="matrix(1, 0, 0, 1, 232, 39)"><g clip-path="url(#b784d0850d)"><g clip-path="url(#e3fcf12226)"><path fill="#ffffff" d="M 0.828125 8.414062 C 0.828125 8.414062 1.007812 3.183594 5.050781 2.117188 C 9.097656 1.054688 10.027344 -0.226562 10.960938 0.195312 C 10.960938 0.195312 6.46875 2.101562 5.050781 2.730469 C 3.632812 3.359375 1.941406 4.890625 0.828125 8.414062 Z M 0.828125 8.414062 " fill-opacity="1" fill-rule="nonzero"/></g></g></g></g><g mask="url(#a5e40d9968)"><g transform="matrix(1, 0, 0, 1, 225, 36)"><g clip-path="url(#e6feab97ba)"><g clip-path="url(#516e752db9)"><path fill="#ffffff" d="M 7.089844 0.367188 C 7.089844 0.367188 7.003906 4.007812 4.546875 5.960938 C 2.09375 7.914062 1.84375 9.074219 1.070312 9.066406 C 1.070312 9.066406 3.578125 6.402344 4.359375 5.542969 C 5.144531 4.683594 6.558594 3.011719 7.089844 0.367188 Z M 7.089844 0.367188 " fill-opacity="1" fill-rule="nonzero"/></g></g></g></g><path fill="#fddd00" d="M 242.605469 36.015625 C 242.582031 36.0625 242.554688 36.109375 242.527344 36.15625 C 242.46875 36.273438 242.40625 36.386719 242.335938 36.503906 C 241.398438 38.144531 239.933594 39.835938 237.722656 41.308594 C 233.34375 44.226562 228.871094 46.746094 228.871094 46.746094 L 221.558594 42.21875 C 221.265625 42.035156 220.980469 41.847656 220.695312 41.648438 C 220.339844 41.398438 219.996094 41.136719 219.660156 40.863281 C 218.410156 39.851562 217.304688 38.667969 216.390625 37.335938 C 215.648438 36.246094 214.976562 34.984375 214.613281 33.628906 C 214.285156 32.382812 214.207031 31.058594 214.570312 29.714844 C 214.574219 29.703125 214.574219 29.691406 214.582031 29.675781 C 214.941406 28.378906 215.441406 27.316406 216.027344 26.441406 C 218.125 23.308594 221.265625 22.660156 222.550781 22.6875 C 224.199219 22.71875 227.984375 24.339844 228.871094 27.515625 C 228.871094 27.515625 231.402344 22.226562 236.472656 22.71875 C 236.984375 22.769531 237.460938 22.867188 237.910156 23.003906 C 237.976562 23.023438 238.035156 23.046875 238.101562 23.066406 C 238.792969 23.300781 239.40625 23.625 239.957031 24.019531 C 240.199219 24.191406 240.429688 24.378906 240.648438 24.574219 C 240.808594 24.71875 240.960938 24.863281 241.105469 25.019531 C 241.683594 25.628906 242.164062 26.308594 242.546875 26.996094 C 243.3125 28.371094 243.699219 29.769531 243.800781 30.6875 C 243.933594 31.910156 243.695312 33.890625 242.605469 36.015625 Z M 242.605469 36.015625 " fill-opacity="1" fill-rule="nonzero"/><path fill="#6eb531" d="M 223.226562 37.941406 C 223.316406 38.28125 223.042969 38.328125 223.042969 38.328125 C 223.042969 38.328125 223.089844 38.941406 223.042969 39.191406 C 223 39.4375 222.476562 39.460938 222.476562 39.460938 C 222.386719 39.757812 222.160156 39.6875 222.160156 39.6875 C 222.230469 40.460938 221.816406 40.300781 221.816406 40.300781 C 221.816406 40.386719 221.800781 40.457031 221.773438 40.515625 C 221.652344 40.777344 221.320312 40.777344 221.320312 40.777344 C 221.386719 41.484375 220.914062 41.253906 220.914062 41.253906 C 220.898438 41.582031 220.785156 41.648438 220.699219 41.648438 C 220.34375 41.398438 219.996094 41.136719 219.660156 40.863281 C 219.667969 40.152344 219.695312 39.46875 219.703125 39.199219 C 219.707031 39.121094 219.710938 39.078125 219.710938 39.078125 C 219.710938 39.078125 219.128906 38.804688 219.164062 38.464844 C 219.195312 38.121094 217.9375 37.101562 218.652344 36.859375 C 219.367188 36.621094 218.882812 36.179688 218.882812 36.179688 C 218.363281 36.417969 217.9375 35.738281 217.9375 35.738281 C 217.734375 35.773438 217.328125 35.5 217.328125 35.5 C 216.746094 35.464844 216.132812 35.191406 216.234375 34.847656 C 216.339844 34.507812 215.691406 33.316406 215.523438 33.488281 C 215.351562 33.660156 216.136719 34.714844 215.761719 34.695312 C 215.386719 34.675781 215.046875 33.183594 215.046875 33.183594 C 214.605469 33.046875 214.128906 31.816406 214.570312 31.714844 C 215.015625 31.613281 214.980469 30.796875 214.742188 30.832031 C 214.5 30.863281 214.195312 30.421875 214.671875 30.386719 C 215.152344 30.355469 214.640625 29.742188 214.640625 29.742188 C 214.621094 29.730469 214.597656 29.722656 214.578125 29.710938 C 214.582031 29.699219 214.582031 29.683594 214.589844 29.671875 C 214.949219 28.375 215.449219 27.308594 216.035156 26.4375 C 216.167969 26.542969 216.382812 26.65625 216.695312 26.628906 C 217.261719 26.585938 217.238281 27.582031 217.601562 27.652344 C 217.96875 27.71875 217.898438 27.378906 217.671875 27.308594 C 217.445312 27.242188 217.445312 26.855469 217.695312 26.855469 C 217.945312 26.855469 217.648438 26.378906 217.648438 26.378906 C 217.648438 26.378906 217.648438 26.671875 217.242188 26.492188 C 216.832031 26.308594 217.265625 26.035156 217.648438 25.671875 C 218.023438 25.320312 218.359375 26.558594 218.375 26.625 C 218.371094 26.578125 218.328125 26.089844 218.714844 26.285156 C 219.125 26.488281 218.714844 26.285156 218.738281 26.988281 C 218.761719 27.691406 218.625 27.148438 218.332031 27.308594 C 218.035156 27.46875 218.582031 27.648438 218.761719 27.648438 C 218.941406 27.648438 219.238281 27.21875 219.011719 26.851562 C 218.785156 26.488281 219.214844 26.457031 219.214844 26.457031 C 219.238281 26.105469 219.875 26.171875 219.875 26.457031 C 219.875 26.742188 219.625 26.671875 219.625 26.671875 C 219.625 26.671875 219.375 26.738281 219.601562 27.351562 C 219.828125 27.964844 219.964844 27.398438 219.964844 27.398438 C 219.308594 26.992188 220.058594 26.695312 220.148438 26.515625 C 220.238281 26.332031 220.671875 26.648438 220.964844 26.648438 C 221.257812 26.648438 221.191406 27.308594 221.191406 27.308594 C 221.917969 27.578125 221.554688 28.101562 221.554688 28.101562 C 222.144531 28.964844 221.28125 28.351562 221.28125 28.601562 C 221.28125 28.851562 221.398438 29.078125 221.398438 29.078125 C 220.648438 29.46875 220.875 28.761719 220.511719 28.761719 C 220.148438 28.761719 220.011719 28.488281 220.261719 28.488281 C 220.511719 28.488281 220.761719 28.308594 220.851562 28.125 C 220.941406 27.941406 220.625 27.808594 220.625 27.808594 C 220.625 27.328125 220.261719 27.691406 220.261719 27.691406 C 220.285156 28.554688 219.875 27.941406 219.785156 28.261719 C 219.695312 28.578125 220.21875 28.601562 219.71875 28.808594 C 219.21875 29.011719 219.355469 28.578125 219.355469 28.578125 C 218.925781 28.851562 218.402344 29.351562 218.652344 29.691406 C 218.902344 30.035156 219.46875 29.691406 219.355469 30.257812 C 219.242188 30.828125 219.628906 31.101562 219.582031 30.738281 C 219.539062 30.371094 219.925781 30.148438 219.925781 30.148438 C 219.765625 29.78125 220.015625 29.667969 220.015625 29.667969 C 220.015625 29.667969 219.742188 29.101562 220.265625 29.011719 C 220.785156 28.921875 220.808594 29.738281 220.808594 29.738281 L 221.011719 29.738281 C 221.011719 29.738281 221.101562 29.601562 221.332031 29.601562 C 221.558594 29.601562 221.398438 30.214844 221.398438 30.214844 C 221.828125 30.257812 221.738281 30.691406 221.738281 30.691406 C 221.921875 30.582031 222.078125 30.941406 221.898438 30.964844 C 221.714844 30.988281 221.832031 31.191406 221.832031 31.191406 C 221.832031 31.191406 222.101562 31.214844 221.992188 31.644531 C 221.878906 32.074219 221.601562 31.460938 221.601562 31.460938 C 221.601562 31.460938 221.285156 31.644531 221.378906 31.351562 C 221.46875 31.054688 221.308594 31.089844 221.308594 31.089844 C 220.988281 31.238281 221.125 31.167969 220.832031 31.097656 C 220.535156 31.03125 220.511719 31.371094 220.695312 31.324219 C 220.875 31.277344 220.875 31.640625 220.875 31.640625 C 221.101562 31.34375 221.285156 31.640625 221.285156 31.640625 C 220.875 32.390625 220.332031 31.574219 220.265625 31.960938 C 220.195312 32.347656 219.96875 32.347656 219.96875 32.347656 C 219.355469 32.507812 219.582031 33.1875 219.289062 33.257812 C 218.992188 33.324219 218.765625 33.550781 218.949219 33.847656 C 219.128906 34.140625 218.746094 34.480469 219.058594 34.503906 C 219.378906 34.527344 219.515625 34.753906 219.515625 34.753906 C 219.515625 34.753906 220.0625 34.773438 220.015625 35.027344 C 219.96875 35.273438 219.332031 35.273438 219.332031 35.273438 C 219.195312 35.570312 218.742188 35.183594 218.878906 35.164062 C 219.015625 35.140625 218.945312 34.753906 218.945312 34.753906 C 218.945312 34.753906 218.742188 34.867188 218.558594 34.683594 C 218.378906 34.503906 218.582031 34.34375 218.582031 34.34375 C 218.582031 34.34375 218.582031 34.003906 218.515625 33.820312 C 218.449219 33.636719 218.082031 33.660156 218.082031 33.660156 C 217.96875 34.046875 217.492188 33.660156 217.492188 33.660156 C 217.402344 33.886719 217.171875 33.957031 217.171875 33.957031 C 217.171875 33.957031 216.921875 34.910156 217.355469 34.976562 C 217.785156 35.046875 217.492188 34.570312 217.898438 34.59375 C 218.304688 34.617188 218.058594 35.207031 218.058594 35.207031 C 218.648438 35.207031 218.308594 35.636719 218.558594 35.839844 C 218.804688 36.042969 219.191406 35.835938 219.191406 35.835938 C 219.578125 35.242188 220.167969 35.863281 220.167969 35.863281 C 220.871094 35.75 220.824219 36.042969 220.824219 36.042969 C 221.097656 36.066406 221.234375 36.316406 221.234375 36.316406 C 221.871094 36 221.949219 37.066406 221.949219 37.066406 C 222.300781 36.929688 222.4375 37.226562 222.4375 37.226562 C 223.050781 37.066406 223.25 37.429688 223.25 37.429688 C 223.628906 37.691406 223.226562 37.941406 223.226562 37.941406 Z M 223.226562 37.941406 " fill-opacity="1" fill-rule="nonzero"/><path fill="#6eb531" d="M 236.976562 37.945312 C 236.976562 37.945312 236.96875 37.980469 236.941406 38.03125 C 236.886719 38.140625 236.742188 38.335938 236.417969 38.429688 L 236.417969 38.9375 C 236.417969 38.9375 236.054688 39.375 236.417969 39.617188 C 236.78125 39.855469 236.804688 39.496094 236.804688 39.496094 L 236.804688 39.082031 C 236.804688 39.082031 237.125 39.152344 236.976562 38.667969 C 236.976562 38.671875 237.484375 38.601562 236.976562 37.945312 Z M 236.976562 37.945312 " fill-opacity="1" fill-rule="nonzero"/><path fill="#6eb531" d="M 243.800781 30.683594 C 243.695312 29.765625 243.308594 28.367188 242.542969 26.992188 C 242.160156 26.304688 241.683594 25.625 241.101562 25.011719 C 240.960938 25.082031 240.828125 25.125 240.75 25.101562 C 240.625 25.066406 240.644531 24.804688 240.648438 24.570312 C 240.429688 24.371094 240.199219 24.183594 239.957031 24.011719 C 239.867188 23.972656 239.753906 23.953125 239.589844 23.976562 C 239.121094 24.046875 239.410156 23.394531 238.828125 23.429688 C 238.257812 23.464844 238.070312 23.574219 238.097656 23.058594 C 238.035156 23.039062 237.972656 23.015625 237.910156 22.996094 C 237.792969 23.191406 237.691406 23.542969 237.808594 23.757812 C 238.027344 24.15625 238.679688 23.980469 238.679688 23.980469 C 238.679688 23.980469 238.863281 24.46875 239.117188 24.550781 C 239.117188 24.550781 238.386719 24.917969 238.386719 25.425781 C 238.386719 25.425781 238.28125 25.828125 238.0625 25.609375 C 237.851562 25.394531 237.949219 25.835938 238.085938 25.992188 C 238.089844 26 238.09375 26.003906 238.097656 26.007812 C 238.097656 26.007812 237.886719 26.699219 237.753906 26.410156 C 237.730469 26.359375 237.699219 26.300781 237.671875 26.246094 C 237.527344 26 237.335938 25.753906 237.335938 25.753906 C 237.335938 25.753906 237.226562 26.132812 237.207031 26.511719 C 237.195312 26.753906 237.222656 26.992188 237.335938 27.136719 C 237.335938 27.136719 237.007812 26.949219 236.742188 26.761719 C 236.550781 26.632812 236.390625 26.503906 236.390625 26.445312 C 236.390625 26.300781 236.316406 25.753906 236.789062 25.355469 C 237.261719 24.953125 236.28125 24.953125 236.101562 25.460938 C 235.917969 25.96875 235.808594 26.589844 236.101562 26.769531 C 236.207031 26.835938 236.316406 26.894531 236.390625 26.945312 C 236.515625 27.027344 236.550781 27.089844 236.316406 27.136719 C 235.953125 27.207031 235.734375 27.5 235.734375 27.5 C 235.734375 27.5 235.519531 27.898438 235.1875 27.753906 C 235.1875 27.753906 235.175781 27.671875 235.101562 27.558594 C 234.972656 27.351562 234.652344 27.03125 233.882812 26.84375 C 233.882812 26.84375 233.007812 26.917969 232.71875 28.117188 L 231.953125 28.699219 L 231.953125 29.390625 C 231.953125 29.390625 232.425781 29.644531 232.535156 29.390625 C 232.644531 29.136719 232.9375 30.007812 232.394531 30.007812 C 231.847656 30.007812 231.519531 29.789062 231.519531 29.609375 C 231.519531 29.425781 230.882812 29.207031 230.945312 29.863281 C 231.011719 30.515625 231.445312 29.863281 231.011719 30.515625 C 230.988281 30.542969 230.972656 30.574219 230.960938 30.597656 C 230.644531 31.144531 231.375 30.878906 231.375 30.878906 C 231.375 30.878906 231.660156 31.460938 230.878906 31.390625 C 230.101562 31.316406 230.3125 32.261719 230.878906 32.628906 C 230.878906 32.628906 231.46875 32.523438 231.519531 32.410156 C 231.566406 32.300781 231.664062 31.914062 231.664062 31.914062 L 231.980469 31.808594 L 231.980469 31.640625 L 232.464844 31.640625 C 232.464844 31.640625 232.660156 31.1875 232.660156 31.457031 C 232.660156 31.578125 232.734375 31.675781 232.828125 31.761719 C 232.941406 31.867188 233.078125 31.957031 233.152344 32.0625 C 233.292969 32.253906 233.53125 32.253906 233.53125 32.035156 C 233.53125 31.816406 233 31.371094 233 31.371094 C 233 31.371094 233.171875 31.214844 233.316406 31.371094 C 233.460938 31.527344 233.824219 32.097656 233.824219 32.246094 C 233.824219 32.398438 234.019531 32.523438 234.089844 32.410156 C 234.164062 32.300781 233.992188 31.777344 234.308594 31.808594 C 234.308594 31.808594 234.382812 32.523438 234.839844 32.410156 C 235.300781 32.300781 235.421875 32.542969 235.421875 32.542969 L 235.421875 33.121094 C 235.421875 33.121094 234.40625 33.21875 233.894531 32.734375 C 233.894531 32.734375 233.800781 32.898438 233.777344 33.128906 C 233.753906 33.363281 233.269531 32.882812 233.269531 32.882812 L 232.804688 32.808594 L 232.804688 32.410156 C 232.804688 32.410156 232.722656 32.390625 232.601562 32.375 C 232.328125 32.335938 231.851562 32.304688 231.714844 32.5 C 231.519531 32.78125 230.882812 32.625 230.882812 32.625 C 230.882812 32.625 230.503906 32.734375 230.539062 33.203125 C 230.539062 33.203125 229.8125 33.53125 229.886719 34.625 L 229.882812 35.425781 L 230.210938 35.679688 L 230.757812 36.261719 C 230.757812 36.261719 231.339844 36.441406 231.703125 36.007812 C 232.066406 35.570312 231.992188 36.480469 232.539062 36.296875 C 233.085938 36.117188 232.539062 36.589844 232.429688 36.804688 C 232.324219 37.023438 232.902344 37.0625 232.902344 37.75 C 232.902344 38.441406 232.578125 38.441406 232.976562 39.460938 C 233.378906 40.476562 233.378906 39.859375 233.378906 40.476562 C 233.378906 40.707031 233.542969 40.78125 233.773438 40.753906 C 234.160156 40.707031 234.742188 40.371094 235.015625 40.003906 C 235.035156 39.980469 235.054688 39.953125 235.070312 39.929688 C 235.386719 39.488281 235.246094 39.460938 235.207031 39.460938 C 235.292969 39.453125 235.894531 39.390625 235.488281 38.914062 C 235.488281 38.914062 235.816406 38.515625 236.105469 38.550781 C 236.394531 38.585938 235.886719 37.0625 236.214844 36.914062 C 236.542969 36.769531 237.707031 35.386719 237.304688 35.386719 C 236.90625 35.386719 236.429688 35.386719 236.429688 35.386719 C 236.429688 35.386719 235.652344 34.519531 235.347656 33.871094 C 235.316406 33.804688 235.289062 33.742188 235.269531 33.683594 C 235.171875 33.390625 235.363281 33.523438 235.613281 33.785156 C 235.929688 34.109375 236.351562 34.648438 236.429688 34.808594 C 236.578125 35.097656 236.324219 35.355469 236.867188 35.097656 C 237.414062 34.84375 238.539062 34.335938 237.992188 34.042969 C 237.445312 33.753906 237.738281 33.972656 237.230469 33.753906 C 237 33.652344 236.871094 33.472656 236.828125 33.324219 C 236.765625 33.148438 236.824219 33.015625 236.941406 33.136719 C 236.976562 33.171875 237.003906 33.203125 237.039062 33.234375 C 237.226562 33.421875 237.425781 33.585938 237.707031 33.648438 C 238.03125 33.71875 237.925781 33.9375 238.941406 33.867188 L 239.195312 34.253906 L 239.59375 34.253906 C 239.59375 34.253906 239.742188 35.375 240.152344 35.769531 C 240.191406 35.808594 240.234375 35.84375 240.28125 35.863281 C 240.792969 36.117188 240.9375 36.082031 240.683594 35.609375 C 240.601562 35.460938 240.578125 35.320312 240.601562 35.175781 C 240.648438 34.894531 240.882812 34.617188 241.183594 34.300781 C 241.199219 34.285156 241.214844 34.269531 241.226562 34.257812 L 241.660156 34.257812 C 241.660156 34.257812 241.878906 35.140625 242.246094 34.847656 C 242.609375 34.558594 242.460938 35.832031 242.460938 35.832031 L 242.605469 36.023438 C 243.695312 33.890625 243.933594 31.910156 243.800781 30.683594 Z M 233.921875 29.296875 C 233.605469 29.390625 233.945312 29.730469 233.535156 29.878906 C 233.125 30.023438 232.953125 30.023438 232.953125 30.023438 L 232.953125 29.707031 L 233.15625 29.707031 L 233.15625 29.367188 L 233.523438 29.148438 C 233.023438 28.691406 233.414062 28.566406 233.414062 28.566406 C 233.414062 28.566406 233.414062 28.566406 233.367188 28.347656 C 233.363281 28.332031 233.363281 28.3125 233.367188 28.296875 C 233.375 28.097656 233.683594 27.914062 233.683594 27.914062 C 233.785156 27.972656 233.851562 28.03125 233.890625 28.085938 C 234.023438 28.292969 233.746094 28.445312 233.746094 28.445312 L 233.746094 28.964844 L 234.242188 28.964844 L 234.53125 29.101562 C 234.523438 29.101562 234.238281 29.199219 233.921875 29.296875 Z M 235.859375 31.808594 C 235.570312 31.972656 235.183594 31.550781 234.9375 31.640625 C 234.695312 31.734375 234.523438 31.816406 234.523438 31.5 C 234.523438 31.1875 234.792969 31.089844 234.792969 31.089844 C 234.792969 31.089844 235.105469 31.257812 235.230469 31.210938 C 235.355469 31.164062 235.03125 30.921875 235.421875 30.871094 C 235.808594 30.824219 235.542969 31.300781 235.542969 31.300781 C 235.542969 31.300781 236.152344 31.644531 235.859375 31.808594 Z M 237.199219 32.277344 C 237.015625 32.636719 236.730469 32.203125 236.730469 31.804688 C 236.726562 31.410156 236.257812 31.28125 236.257812 31.28125 L 236.832031 30.867188 C 237.195312 31.058594 236.976562 31.230469 236.730469 31.304688 C 236.484375 31.378906 237.386719 31.910156 237.199219 32.277344 Z M 242.207031 36.222656 C 242.207031 36.277344 242.261719 36.375 242.339844 36.503906 C 242.40625 36.386719 242.46875 36.269531 242.53125 36.15625 C 242.371094 36.109375 242.207031 36.089844 242.207031 36.222656 Z M 242.207031 36.222656 " fill-opacity="1" fill-rule="nonzero"/><path fill="#6eb531" d="M 228.015625 31.703125 C 228.015625 31.703125 227.558594 31.953125 228.015625 32.246094 C 228.46875 32.542969 228.832031 32.179688 228.832031 31.976562 C 228.832031 31.773438 228.269531 31.839844 228.269531 31.839844 Z M 228.015625 31.703125 " fill-opacity="1" fill-rule="nonzero"/><path fill="#6eb531" d="M 228.320312 27.980469 C 228.320312 27.980469 228.640625 28.011719 228.320312 27.5 C 228.320312 27.5 228.234375 26.992188 227.8125 27.367188 L 227.148438 27.226562 L 227.148438 27.601562 L 226.671875 27.601562 C 226.671875 27.601562 226.160156 27.464844 226.027344 27.808594 L 225.652344 27.980469 L 225.652344 28.457031 C 225.652344 28.457031 224.765625 28.457031 224.832031 28.832031 C 224.898438 29.207031 224.59375 29.613281 225.480469 29.375 C 225.480469 29.375 225.820312 29.953125 225.546875 30.464844 C 225.277344 30.976562 225.617188 30.769531 225.617188 30.769531 C 225.617188 30.769531 225.175781 30.976562 225.480469 31.179688 C 225.480469 31.179688 225.378906 31.414062 225.515625 32.027344 C 225.652344 32.640625 225.414062 32.597656 225.855469 32.824219 C 226.300781 33.050781 225.925781 32.546875 226.230469 32.355469 C 226.535156 32.164062 226.425781 31.835938 226.425781 31.835938 C 226.425781 31.835938 227.117188 31.925781 227.355469 31.515625 C 227.355469 31.515625 228.367188 31.484375 228.269531 30.5625 C 228.269531 30.5625 228.910156 30.085938 228.269531 29.542969 L 228.554688 29.507812 L 228.554688 28.863281 L 229.269531 28.25 L 229.023438 27.941406 C 229.023438 27.945312 228.847656 28.183594 228.320312 27.980469 Z M 228.320312 27.980469 " fill-opacity="1" fill-rule="nonzero"/><path fill="#6eb531" d="M 232.539062 24.550781 C 232.539062 24.550781 232.03125 24.667969 232.320312 25.101562 C 232.609375 25.539062 233.039062 25.828125 233.152344 25.320312 C 233.152344 25.320312 233.875 25.46875 233.152344 24.777344 C 233.152344 24.777344 233.984375 24.453125 233.152344 24.378906 C 232.320312 24.304688 232.539062 24.550781 232.539062 24.550781 Z M 232.539062 24.550781 " fill-opacity="1" fill-rule="nonzero"/><path fill="#6eb531" d="M 224.1875 27.230469 C 224.1875 27.230469 225.414062 26.625 225.925781 27.101562 C 226.4375 27.578125 225.925781 27.605469 225.925781 27.605469 C 225.925781 27.605469 225.585938 28.113281 225.007812 28.25 C 225.007812 28.25 224.9375 28.75 224.394531 28.6875 C 224.394531 28.6875 224.496094 29.136719 223.746094 29.085938 C 223 29.035156 224.066406 29.09375 224.019531 29.410156 C 223.972656 29.730469 222.488281 29.378906 222.488281 29.085938 C 222.488281 28.796875 222.519531 28.566406 222.933594 28.511719 C 223.34375 28.457031 222.964844 28.339844 222.964844 28.226562 C 222.964844 28.117188 222.933594 27.671875 222.933594 27.671875 L 223.375 27.707031 C 223.375 27.707031 223.304688 28.339844 223.476562 28.226562 C 223.644531 28.113281 223.65625 27.433594 224.1875 27.230469 Z M 224.1875 27.230469 " fill-opacity="1" fill-rule="nonzero"/><g mask="url(#3de1da7405)"><g transform="matrix(1, 0, 0, 1, 214, 26)"><g clip-path="url(#e8dca2c233)"><g clip-path="url(#fd1969775c)"><path fill="#ffffff" d="M 28.605469 10.015625 C 28.582031 10.0625 28.554688 10.109375 28.527344 10.15625 C 28.46875 10.273438 28.40625 10.386719 28.335938 10.503906 C 27.398438 12.144531 25.933594 13.835938 23.722656 15.308594 C 19.34375 18.226562 14.871094 20.746094 14.871094 20.746094 L 7.558594 16.21875 C 7.265625 16.035156 6.980469 15.847656 6.695312 15.648438 C 6.339844 15.398438 5.996094 15.136719 5.660156 14.863281 C 4.410156 13.851562 3.304688 12.667969 2.390625 11.335938 C 1.648438 10.246094 0.976562 8.984375 0.613281 7.628906 C 0.851562 8.066406 1.113281 8.484375 1.382812 8.878906 C 2.542969 10.574219 4.019531 12.027344 5.703125 13.203125 C 5.980469 13.398438 6.265625 13.582031 6.550781 13.757812 L 7.773438 14.519531 L 13.863281 18.289062 C 13.863281 18.289062 16.53125 16.785156 19.769531 14.757812 C 20.195312 14.492188 20.628906 14.214844 21.0625 13.933594 C 21.472656 13.667969 21.886719 13.402344 22.304688 13.128906 C 22.441406 13.035156 22.578125 12.945312 22.71875 12.851562 C 22.804688 12.792969 22.890625 12.734375 22.976562 12.675781 C 22.976562 12.675781 22.980469 12.675781 22.984375 12.671875 C 23.046875 12.625 23.109375 12.582031 23.175781 12.535156 C 24.398438 11.664062 25.375 10.722656 26.148438 9.769531 C 26.308594 9.570312 26.457031 9.371094 26.601562 9.175781 C 26.808594 8.886719 27.003906 8.589844 27.183594 8.300781 C 28.628906 5.90625 28.941406 3.597656 28.789062 2.226562 C 28.753906 1.878906 28.671875 1.457031 28.546875 0.996094 C 29.3125 2.371094 29.699219 3.769531 29.800781 4.6875 C 29.933594 5.910156 29.695312 7.890625 28.605469 10.015625 Z M 28.605469 10.015625 " fill-opacity="1" fill-rule="nonzero"/></g></g></g></g><g fill="#ffffff" fill-opacity="1"><g transform="translate(89.329509, 104.296159)"><g><path d="M 0.65625 -4.609375 L 0.25 -5.3125 L 0.859375 -5.65625 L 0.25 -6.015625 L 0.640625 -6.6875 L 1.25 -6.328125 L 1.25 -7.0625 L 2.078125 -7.0625 L 2.078125 -6.328125 L 2.703125 -6.6875 L 3.09375 -6 L 2.453125 -5.640625 L 3.078125 -5.28125 L 2.65625 -4.578125 L 2.046875 -4.9375 L 2.046875 -4.265625 L 1.25 -4.265625 L 1.25 -4.953125 Z M 0.65625 -4.609375 "/></g></g></g><g fill="#ffffff" fill-opacity="1"><g transform="translate(95.299972, 104.296159)"><g><path d="M 2.359375 -7.21875 L 2.359375 -1.375 L 5.75 -1.375 L 5.75 0 L 0.9375 0 L 0.9375 -7.21875 Z M 2.359375 -7.21875 "/></g></g></g><g fill="#ffffff" fill-opacity="1"><g transform="translate(104.269378, 104.296159)"><g><path d="M 5.859375 -7.21875 L 5.859375 -5.84375 L 2.359375 -5.84375 L 2.359375 -4.3125 L 5.453125 -4.3125 L 5.453125 -2.9375 L 2.359375 -2.9375 L 2.359375 -1.375 L 6 -1.375 L 6 0 L 0.9375 0 L 0.9375 -7.21875 Z M 5.859375 -7.21875 "/></g></g></g><g fill="#ffffff" fill-opacity="1"><g transform="translate(113.483798, 104.296159)"><g><path d="M 4.5 -1.40625 L 2.109375 -1.40625 L 1.515625 0 L 0.125 0 L 3.375 -7.5 L 3.453125 -7.5 L 6.71875 0 L 5.0625 0 Z M 4.03125 -2.609375 L 3.34375 -4.359375 L 2.609375 -2.609375 Z M 4.03125 -2.609375 "/></g></g></g><g fill="#ffffff" fill-opacity="1"><g transform="translate(122.992231, 104.296159)"><g><path d="M 4.828125 0 L 3.3125 -2.296875 L 2.359375 -2.296875 L 2.359375 0 L 0.9375 0 L 0.9375 -7.21875 L 3.125 -7.21875 C 4.019531 -7.21875 4.710938 -7 5.203125 -6.5625 C 5.703125 -6.132812 5.953125 -5.539062 5.953125 -4.78125 C 5.953125 -4.34375 5.859375 -3.925781 5.671875 -3.53125 C 5.484375 -3.144531 5.195312 -2.84375 4.8125 -2.625 L 6.484375 0 Z M 2.359375 -3.671875 L 3.359375 -3.671875 C 3.742188 -3.671875 4.023438 -3.78125 4.203125 -4 C 4.378906 -4.226562 4.46875 -4.472656 4.46875 -4.734375 C 4.46875 -4.992188 4.390625 -5.242188 4.234375 -5.484375 C 4.085938 -5.722656 3.800781 -5.84375 3.375 -5.84375 L 2.359375 -5.84375 Z M 2.359375 -3.671875 "/></g></g></g><g fill="#ffffff" fill-opacity="1"><g transform="translate(132.402659, 104.296159)"><g><path d="M 7.4375 -7.21875 L 7.4375 0.296875 L 7.40625 0.296875 L 2.34375 -4.265625 L 2.375 0 L 0.9375 0 L 0.9375 -7.5 L 0.984375 -7.5 L 6.03125 -2.875 L 6 -7.21875 Z M 7.4375 -7.21875 "/></g></g></g><g fill="#ffffff" fill-opacity="1"><g transform="translate(143.449765, 104.296159)"><g/></g></g><g fill="#ffffff" fill-opacity="1"><g transform="translate(149.322225, 104.296159)"><g><path d="M 0.65625 -4.609375 L 0.25 -5.3125 L 0.859375 -5.65625 L 0.25 -6.015625 L 0.640625 -6.6875 L 1.25 -6.328125 L 1.25 -7.0625 L 2.078125 -7.0625 L 2.078125 -6.328125 L 2.703125 -6.6875 L 3.09375 -6 L 2.453125 -5.640625 L 3.078125 -5.28125 L 2.65625 -4.578125 L 2.046875 -4.9375 L 2.046875 -4.265625 L 1.25 -4.265625 L 1.25 -4.953125 Z M 0.65625 -4.609375 "/></g></g></g><g fill="#ffffff" fill-opacity="1"><g transform="translate(155.292688, 104.296159)"><g/></g></g><g fill="#ffffff" fill-opacity="1"><g transform="translate(161.165147, 104.296159)"><g><path d="M 4.78125 -5.46875 C 4.15625 -5.820312 3.613281 -6 3.15625 -6 C 2.832031 -6 2.582031 -5.9375 2.40625 -5.8125 C 2.238281 -5.6875 2.15625 -5.5 2.15625 -5.25 C 2.15625 -5.019531 2.28125 -4.816406 2.53125 -4.640625 C 2.789062 -4.472656 3.128906 -4.3125 3.546875 -4.15625 C 3.878906 -4.03125 4.164062 -3.882812 4.40625 -3.71875 C 4.65625 -3.5625 4.859375 -3.34375 5.015625 -3.0625 C 5.179688 -2.78125 5.265625 -2.421875 5.265625 -1.984375 C 5.265625 -1.617188 5.164062 -1.273438 4.96875 -0.953125 C 4.78125 -0.640625 4.5 -0.390625 4.125 -0.203125 C 3.75 -0.015625 3.300781 0.078125 2.78125 0.078125 C 2.351562 0.078125 1.925781 0.015625 1.5 -0.109375 C 1.070312 -0.234375 0.675781 -0.429688 0.3125 -0.703125 L 0.9375 -1.8125 C 1.1875 -1.625 1.472656 -1.46875 1.796875 -1.34375 C 2.117188 -1.226562 2.40625 -1.171875 2.65625 -1.171875 C 2.957031 -1.171875 3.21875 -1.234375 3.4375 -1.359375 C 3.664062 -1.492188 3.78125 -1.703125 3.78125 -1.984375 C 3.78125 -2.359375 3.429688 -2.6875 2.734375 -2.96875 C 2.316406 -3.125 1.96875 -3.273438 1.6875 -3.421875 C 1.414062 -3.578125 1.179688 -3.796875 0.984375 -4.078125 C 0.785156 -4.359375 0.6875 -4.710938 0.6875 -5.140625 C 0.6875 -5.765625 0.890625 -6.265625 1.296875 -6.640625 C 1.703125 -7.023438 2.25 -7.234375 2.9375 -7.265625 C 3.46875 -7.265625 3.910156 -7.203125 4.265625 -7.078125 C 4.628906 -6.953125 4.984375 -6.78125 5.328125 -6.5625 Z M 4.78125 -5.46875 "/></g></g></g><g fill="#ffffff" fill-opacity="1"><g transform="translate(169.566129, 104.296159)"><g><path d="M 5.859375 -7.21875 L 5.859375 -5.84375 L 2.359375 -5.84375 L 2.359375 -4.3125 L 5.453125 -4.3125 L 5.453125 -2.9375 L 2.359375 -2.9375 L 2.359375 -1.375 L 6 -1.375 L 6 0 L 0.9375 0 L 0.9375 -7.21875 Z M 5.859375 -7.21875 "/></g></g></g><g fill="#ffffff" fill-opacity="1"><g transform="translate(178.78055, 104.296159)"><g><path d="M 4.828125 0 L 3.3125 -2.296875 L 2.359375 -2.296875 L 2.359375 0 L 0.9375 0 L 0.9375 -7.21875 L 3.125 -7.21875 C 4.019531 -7.21875 4.710938 -7 5.203125 -6.5625 C 5.703125 -6.132812 5.953125 -5.539062 5.953125 -4.78125 C 5.953125 -4.34375 5.859375 -3.925781 5.671875 -3.53125 C 5.484375 -3.144531 5.195312 -2.84375 4.8125 -2.625 L 6.484375 0 Z M 2.359375 -3.671875 L 3.359375 -3.671875 C 3.742188 -3.671875 4.023438 -3.78125 4.203125 -4 C 4.378906 -4.226562 4.46875 -4.472656 4.46875 -4.734375 C 4.46875 -4.992188 4.390625 -5.242188 4.234375 -5.484375 C 4.085938 -5.722656 3.800781 -5.84375 3.375 -5.84375 L 2.359375 -5.84375 Z M 2.359375 -3.671875 "/></g></g></g><g fill="#ffffff" fill-opacity="1"><g transform="translate(188.190978, 104.296159)"><g><path d="M 6.90625 -7.21875 L 3.609375 0.328125 L 0.3125 -7.21875 L 2.015625 -7.21875 L 3.671875 -3.15625 L 5.21875 -7.21875 Z M 6.90625 -7.21875 "/></g></g></g><g fill="#ffffff" fill-opacity="1"><g transform="translate(198.091437, 104.296159)"><g><path d="M 5.859375 -7.21875 L 5.859375 -5.84375 L 2.359375 -5.84375 L 2.359375 -4.3125 L 5.453125 -4.3125 L 5.453125 -2.9375 L 2.359375 -2.9375 L 2.359375 -1.375 L 6 -1.375 L 6 0 L 0.9375 0 L 0.9375 -7.21875 Z M 5.859375 -7.21875 "/></g></g></g><g fill="#ffffff" fill-opacity="1"><g transform="translate(207.305858, 104.296159)"><g/></g></g><g fill="#ffffff" fill-opacity="1"><g transform="translate(213.178317, 104.296159)"><g><path d="M 0.65625 -4.609375 L 0.25 -5.3125 L 0.859375 -5.65625 L 0.25 -6.015625 L 0.640625 -6.6875 L 1.25 -6.328125 L 1.25 -7.0625 L 2.078125 -7.0625 L 2.078125 -6.328125 L 2.703125 -6.6875 L 3.09375 -6 L 2.453125 -5.640625 L 3.078125 -5.28125 L 2.65625 -4.578125 L 2.046875 -4.9375 L 2.046875 -4.265625 L 1.25 -4.265625 L 1.25 -4.953125 Z M 0.65625 -4.609375 "/></g></g></g><g fill="#ffffff" fill-opacity="1"><g transform="translate(219.148781, 104.296159)"><g/></g></g><g fill="#ffffff" fill-opacity="1"><g transform="translate(225.02124, 104.296159)"><g><path d="M 6.796875 -0.71875 C 6.679688 -0.601562 6.476562 -0.484375 6.1875 -0.359375 C 5.90625 -0.234375 5.59375 -0.128906 5.25 -0.046875 C 4.90625 0.0351562 4.59375 0.078125 4.3125 0.078125 C 3.550781 0.078125 2.878906 -0.0664062 2.296875 -0.359375 C 1.722656 -0.660156 1.273438 -1.070312 0.953125 -1.59375 C 0.640625 -2.125 0.484375 -2.726562 0.484375 -3.40625 C 0.484375 -4.25 0.648438 -4.960938 0.984375 -5.546875 C 1.316406 -6.128906 1.765625 -6.566406 2.328125 -6.859375 C 2.890625 -7.148438 3.515625 -7.296875 4.203125 -7.296875 C 4.640625 -7.296875 5.050781 -7.242188 5.4375 -7.140625 C 5.820312 -7.046875 6.160156 -6.921875 6.453125 -6.765625 L 6 -5.453125 C 5.800781 -5.554688 5.535156 -5.648438 5.203125 -5.734375 C 4.878906 -5.828125 4.609375 -5.875 4.390625 -5.875 C 3.597656 -5.875 2.992188 -5.675781 2.578125 -5.28125 C 2.171875 -4.882812 1.96875 -4.300781 1.96875 -3.53125 C 1.96875 -3.082031 2.066406 -2.691406 2.265625 -2.359375 C 2.472656 -2.035156 2.753906 -1.785156 3.109375 -1.609375 C 3.472656 -1.429688 3.890625 -1.34375 4.359375 -1.34375 C 4.804688 -1.34375 5.132812 -1.40625 5.34375 -1.53125 L 5.34375 -2.40625 L 4.109375 -2.40625 L 4.109375 -3.78125 L 6.796875 -3.78125 Z M 6.796875 -0.71875 "/></g></g></g><g fill="#ffffff" fill-opacity="1"><g transform="translate(235.176502, 104.296159)"><g><path d="M 4.828125 0 L 3.3125 -2.296875 L 2.359375 -2.296875 L 2.359375 0 L 0.9375 0 L 0.9375 -7.21875 L 3.125 -7.21875 C 4.019531 -7.21875 4.710938 -7 5.203125 -6.5625 C 5.703125 -6.132812 5.953125 -5.539062 5.953125 -4.78125 C 5.953125 -4.34375 5.859375 -3.925781 5.671875 -3.53125 C 5.484375 -3.144531 5.195312 -2.84375 4.8125 -2.625 L 6.484375 0 Z M 2.359375 -3.671875 L 3.359375 -3.671875 C 3.742188 -3.671875 4.023438 -3.78125 4.203125 -4 C 4.378906 -4.226562 4.46875 -4.472656 4.46875 -4.734375 C 4.46875 -4.992188 4.390625 -5.242188 4.234375 -5.484375 C 4.085938 -5.722656 3.800781 -5.84375 3.375 -5.84375 L 2.359375 -5.84375 Z M 2.359375 -3.671875 "/></g></g></g><g fill="#ffffff" fill-opacity="1"><g transform="translate(244.58693, 104.296159)"><g><path d="M 0.484375 -3.59375 C 0.484375 -4.25 0.648438 -4.863281 0.984375 -5.4375 C 1.316406 -6.007812 1.765625 -6.460938 2.328125 -6.796875 C 2.890625 -7.128906 3.503906 -7.296875 4.171875 -7.296875 C 4.828125 -7.296875 5.4375 -7.128906 6 -6.796875 C 6.570312 -6.460938 7.023438 -6.007812 7.359375 -5.4375 C 7.703125 -4.863281 7.875 -4.25 7.875 -3.59375 C 7.875 -2.925781 7.703125 -2.3125 7.359375 -1.75 C 7.023438 -1.1875 6.570312 -0.738281 6 -0.40625 C 5.4375 -0.0820312 4.828125 0.078125 4.171875 0.078125 C 3.503906 0.078125 2.890625 -0.0820312 2.328125 -0.40625 C 1.765625 -0.738281 1.316406 -1.1875 0.984375 -1.75 C 0.648438 -2.3125 0.484375 -2.925781 0.484375 -3.59375 Z M 1.96875 -3.59375 C 1.96875 -3.175781 2.066406 -2.789062 2.265625 -2.4375 C 2.460938 -2.082031 2.734375 -1.800781 3.078125 -1.59375 C 3.421875 -1.394531 3.800781 -1.296875 4.21875 -1.296875 C 4.625 -1.296875 4.992188 -1.394531 5.328125 -1.59375 C 5.660156 -1.800781 5.921875 -2.082031 6.109375 -2.4375 C 6.296875 -2.789062 6.390625 -3.175781 6.390625 -3.59375 C 6.390625 -4.03125 6.289062 -4.425781 6.09375 -4.78125 C 5.90625 -5.132812 5.640625 -5.410156 5.296875 -5.609375 C 4.960938 -5.816406 4.59375 -5.921875 4.1875 -5.921875 C 3.769531 -5.921875 3.390625 -5.816406 3.046875 -5.609375 C 2.710938 -5.410156 2.445312 -5.132812 2.25 -4.78125 C 2.0625 -4.425781 1.96875 -4.03125 1.96875 -3.59375 Z M 1.96875 -3.59375 "/></g></g></g><g fill="#ffffff" fill-opacity="1"><g transform="translate(255.624237, 104.296159)"><g><path d="M 6.9375 0.3125 L 5.21875 -3.96875 L 3.21875 0.328125 L 0.3125 -7.171875 L 1.984375 -7.171875 L 3.40625 -3 L 4.5 -5.75 L 3.9375 -7.171875 L 5.34375 -7.171875 L 6.96875 -3.15625 L 8.1875 -7.171875 L 9.71875 -7.171875 Z M 6.9375 0.3125 "/></g></g></g><g transform="matrix(1, 0, 0, 1, 18, 9)"><g clip-path="url(#c71b52fdf7)"><g clip-path="url(#ce68962f22)"><g fill="#ffffff" fill-opacity="1"><g transform="translate(0.335284, 8.386932)"><g><path d="M 5.296875 -7.203125 L 5.296875 -5.84375 L 3.546875 -5.84375 L 3.546875 0 L 2.125 0 L 2.125 -5.84375 L 0.4375 -5.84375 L 0.4375 -7.203125 Z M 5.296875 -7.203125 "/></g></g></g></g><g fill="#ffffff" fill-opacity="1"><g transform="translate(10.391939, 8.386932)"><g><path d="M 7 0 L 5.578125 0 L 5.578125 -2.921875 L 2.34375 -2.921875 L 2.34375 0 L 0.9375 0 L 0.9375 -7.203125 L 2.34375 -7.203125 L 2.34375 -4.296875 L 5.578125 -4.296875 L 5.578125 -7.203125 L 7 -7.203125 Z M 7 0 "/></g></g></g><g fill="#ffffff" fill-opacity="1"><g transform="translate(22.633404, 8.386932)"><g><path d="M 5.84375 -7.203125 L 5.84375 -5.84375 L 2.34375 -5.84375 L 2.34375 -4.296875 L 5.453125 -4.296875 L 5.453125 -2.921875 L 2.34375 -2.921875 L 2.34375 -1.375 L 5.984375 -1.375 L 5.984375 0 L 0.9375 0 L 0.9375 -7.203125 Z M 5.84375 -7.203125 "/></g></g></g></g></g></svg>